<?xml version="1.0" encoding="UTF-8"?>
<svg width="53px" height="45px" viewBox="0 0 53 45" version="1.1" xmlns="http://www.w3.org/2000/svg" xmlns:xlink="http://www.w3.org/1999/xlink">
    <!-- Generator: Sketch 42 (36781) - http://www.bohemiancoding.com/sketch -->
    <title>arizona-diamondbacks</title>
    <desc>Created with Sketch.</desc>
    <defs></defs>
    <g id="Spritesheet" stroke="none" stroke-width="1" fill="none" fill-rule="evenodd">
        <g id="Artboard" transform="translate(-719.000000, -215.000000)" fill="#000000">
            <g id="A" transform="translate(47.000000, 164.000000)">
                <g id="Group-8" transform="translate(672.000000, 51.000000)">
                    <g id="Sprites/A/Arizona-Diamondbacks">
                        <g id="icon-arizona-diamondbacks-black">
                            <path d="M26.2956496,26.3571429 L30.6979353,18.6428571 L32.0003638,18.6428571 L33.601721,26.3571429 L26.2956496,26.3571429 Z M22.5375067,22.7025 L13.7644353,28.2034286 L16.5190781,34.758 L1.61443527,44.1366429 L28.8580781,1.1655 L31.7959353,5.4765 L25.2709353,8.38285714 L28.008221,13.2062143 L19.5218638,17.298 L22.5375067,22.7025 Z M31.3305067,45 L52.3005067,45 L42.2809353,0 L28.323221,0 L-0.000421875,45 L22.3478638,45 L19.147721,38.2802143 L26.0494353,26.7049286 C26.2345781,27.4223571 26.5894353,28.8321429 26.6453638,29.0494286 C26.2930781,29.6633571 20.9393638,38.9166429 20.9393638,38.9166429 C20.9393638,38.9166429 28.831721,32.3955 29.1942924,32.0914286 C29.3241496,32.2527857 35.0359353,39.1808571 35.0359353,39.1808571 C35.0359353,39.1808571 32.3494353,30.2181429 32.1642924,29.6093571 C32.3018638,29.3895 33.0675067,27.9681429 33.6370781,27.0546429 L35.946221,38.3207143 L35.946221,38.3284286 L31.3305067,45 Z" id="arizona-diamondbacks-black"></path>
                        </g>
                    </g>
                </g>
            </g>
        </g>
    </g>
</svg>