<?xml version="1.0" encoding="UTF-8"?>
<svg width="52px" height="45px" viewBox="0 0 52 45" version="1.1" xmlns="http://www.w3.org/2000/svg" xmlns:xlink="http://www.w3.org/1999/xlink">
    <!-- Generator: Sketch 42 (36781) - http://www.bohemiancoding.com/sketch -->
    <title>arizona-diamondbacks-color</title>
    <desc>Created with Sketch.</desc>
    <defs></defs>
    <g id="Spritesheet" stroke="none" stroke-width="1" fill="none" fill-rule="evenodd">
        <g id="Artboard" transform="translate(-495.000000, -215.000000)">
            <g id="A" transform="translate(47.000000, 164.000000)">
                <g id="Group-7" transform="translate(448.000000, 51.000000)">
                    <g id="Sprites/A/Arizona-Diamondbacks-(Color)">
                        <g id="arizona-diamondbacks">
                            <g>
                                <path d="M35.9471309,38.0000162 L31.1084479,44.6713932 L51.9297662,44.6713932 L41.9816862,0.118327499 L28.1227097,0.118327499 L1.74405944e-14,44.6635012 L22.1898693,44.6635012 L19.0122659,37.9684482 L25.8650081,26.4566399 C26.0489884,27.1695512 26.4011794,28.5664365 26.4563735,28.7821514 C26.1068108,29.3924667 20.7908302,38.5866554 20.7908302,38.5866554 C20.7908302,38.5866554 28.6273415,32.1046866 28.9874173,31.8021596 C29.1162036,31.9626304 34.7880548,38.8470917 34.7880548,38.8470917 C34.7880548,38.8470917 32.1203398,29.9396458 31.9363594,29.3345919 C32.0730305,29.1162464 32.9613928,27.703577 33.5264753,26.7959962 L35.9471309,37.9921242 L35.9471309,38.0000162 Z M26.1094391,26.0462555 L30.4802864,18.708793 L31.7734054,18.708793 L33.3635212,26.0462555 L26.1094391,26.0462555 L26.1094391,26.0462555 Z" id="path30" fill="#EFE4BC"></path>
                                <polygon id="path34" fill="#1D0B09" points="13.6671113 27.9377066 22.3777921 22.4703869 19.3839062 17.0996127 27.8099431 13.0331243 25.0922906 8.23925585 31.571027 5.35104416 28.6536244 1.06689419 1.60352011 43.7717044 16.4021105 34.4512435"></polygon>
                                <path d="M30.9507504,29.2030585 C31.1794117,28.8452875 32.3673991,26.956467 32.3673991,26.956467 L26.9242092,26.956467 C26.9242092,26.956467 27.3394791,28.5638059 27.4314693,28.9242075 C27.1791534,29.3556373 24.0987968,34.6801117 24.0987968,34.6801117 C24.0987968,34.6801117 28.4906704,31.0471576 29.1056904,30.5315464 C29.5393584,31.0550496 32.6328564,34.8116452 32.6328564,34.8116452 C32.6328564,34.8116452 31.100563,29.6923629 30.9481221,29.2030585" id="path46" fill="#B91134"></path>
                                <polygon id="path50" fill="#B91134" points="49.6457817 42.9114755 40.5098435 1.86961658 30.1938027 1.86961658 32.7353598 5.77721257 26.3328438 8.65726918 29.0899207 13.4424564 20.6741341 17.4757984 23.492713 22.7045164 14.7738845 28.1981429 17.4628886 34.7879691 4.39713022 42.8904302 19.099788 42.8904302 16.7322238 38.0158002 29.4289702 17.116449 33.3635212 17.116449 38.1154707 38.4235539 34.8038245 42.9114755 49.6457817 42.9114755"></polygon>
                                <polygon id="path54" fill="#1D0B09" points="50.796973 43.7874884 41.2773043 0.962430317 29.6024373 0.962430317 30.1938027 1.87356258 40.5098435 1.87356258 49.6457817 42.9141062 34.8038245 42.9141062 38.118099 38.4288153 33.3635212 17.120658 29.4289702 17.120658 16.7322238 38.0184309 19.1039933 42.8956915 4.39713022 42.8956915 2.95656413 43.7953804 20.6909551 43.7953804 17.8886717 38.0000162 29.9230888 17.9064389 32.5461229 17.9064389 37.0878091 38.2078391 33.0060737 43.7953804 50.796973 43.7953804"></polygon>
                            </g>
                        </g>
                    </g>
                </g>
            </g>
        </g>
    </g>
</svg>