<?xml version="1.0" encoding="UTF-8"?>
<svg width="50px" height="47px" viewBox="0 0 50 47" version="1.1" xmlns="http://www.w3.org/2000/svg" xmlns:xlink="http://www.w3.org/1999/xlink">
    <!-- Generator: Sketch 42 (36781) - http://www.bohemiancoding.com/sketch -->
    <title>atlanta-braves</title>
    <desc>Created with Sketch.</desc>
    <defs></defs>
    <g id="Spritesheet" stroke="none" stroke-width="1" fill="none" fill-rule="evenodd">
        <g id="Artboard" transform="translate(-270.000000, -214.000000)" stroke-width="0.7" stroke="#000000" fill="#000000">
            <g id="A" transform="translate(47.000000, 164.000000)">
                <g id="Group-3-Copy" transform="translate(224.000000, 51.000000)">
                    <g id="Sprites/A/Atlanta-Braves">
                        <path d="M30.7140166,13.8994406 C27.4168795,16.8120565 24.7967113,22.3062315 22.204842,27.8741309 C22.2564225,27.8699123 22.3041896,27.8660955 22.3565729,27.8588637 C25.4550147,27.5253964 28.1287705,27.1109729 30.4814027,26.54669 C30.0617342,22.704986 30.0976599,18.4319843 30.7140166,13.8994406 L30.7140166,13.8994406 Z M31.0471824,30.2981971 C26.5181347,31.134075 24.0386587,31.0872691 20.1996255,32.1559715 C16.9018863,38.9992829 13.3811669,44.9295769 8.34052904,44.9988818 C1.68885401,45.0886769 -0.743456947,39.7491825 0.193019901,36.5675831 C0.88243224,34.2184466 1.50420791,34.2895595 1.50420791,35.6003271 C1.50420791,36.303019 3.37174264,40.3906049 8.06315849,40.161999 C10.4111745,40.0454863 12.3377157,37.7546062 14.3280802,34.2933763 C13.0973738,34.8146701 11.7400243,35.4181254 10.2032469,36.1533605 C9.11403563,36.6746542 9.03054349,36.4982782 9.23746754,35.6003271 C9.38919846,34.9384146 10.9928097,31.0555294 17.1106167,28.9781889 C21.7233572,19.7417474 27.7052887,7.15355791 39.9631806,0.768864506 C40.5759247,0.450061736 42.8328218,-1.18955276 41.135884,1.59751065 C35.4732698,10.9193277 33.7815503,19.0703934 34.0537026,25.4795947 C38.5644864,23.8335519 41.0086388,21.4382121 41.4132546,17.9070747 C41.5722108,16.5187659 41.9565557,16.5000837 42.7242419,17.3548448 C43.6272015,18.3568537 45.5457146,26.1451231 34.505082,29.4826084 C35.8798927,36.8620789 39.8881179,40.994261 42.035231,40.6437186 C44.2624242,40.2817258 45.9704006,37.8819666 45.6261962,34.4942602 C45.4256946,32.5257988 46.1656839,33.2624401 46.8681419,33.941026 C48.9397909,35.9452448 48.767789,42.3896007 44.6578077,44.1704366 C38.7308686,46.7369294 33.1264581,40.6435177 31.0471824,30.2981971 L31.0471824,30.2981971 Z" id="atlanta-braves"></path>
                    </g>
                </g>
            </g>
        </g>
    </g>
</svg>