<?xml version="1.0" encoding="UTF-8"?>
<svg width="48px" height="45px" viewBox="0 0 48 45" version="1.1" xmlns="http://www.w3.org/2000/svg" xmlns:xlink="http://www.w3.org/1999/xlink">
    <!-- Generator: Sketch 42 (36781) - http://www.bohemiancoding.com/sketch -->
    <title>baltimore-orioles-color</title>
    <desc>Created with Sketch.</desc>
    <defs></defs>
    <g id="Spritesheet" stroke="none" stroke-width="1" fill="none" fill-rule="evenodd">
        <g id="Artboard" transform="translate(-495.000000, -506.000000)">
            <g id="B" transform="translate(47.000000, 455.000000)">
                <g id="Group-22" transform="translate(448.000000, 51.000000)">
                    <g id="Sprites/B/Baltimore-Orioles-(Color)">
                        <g id="Group">
                            <g>
                                <path d="M20.427393,44.402 C15.1714397,44.402 10.2509728,42.50225 6.93338521,39.14975 C3.95128405,36.16975 2.38568093,32.14675 2.34840467,27.52775 L0.857354086,27.7885 L0.782801556,27.52775 C0.745525292,27.3415 -0.298210117,22.797 4.69680934,18.774 C3.35486381,15.645 2.08747082,9.9085 7.30614786,5.47575 C7.86529183,4.917 8.23805447,4.6935 8.49898833,4.47 C8.64809339,4.35825 8.75992218,4.28375 8.87175097,4.20925 C9.16996109,3.38975 9.76638132,2.64475 10.0645914,2.34675 C11.7047471,0.63325 13.7922179,0.3725 13.8667704,0.33525 C14.1649805,0.298 14.4631907,0.26075 14.7614008,0.26075 C16.3642802,0.26075 17.2961868,0.93125 17.7062257,1.22925 C17.7435019,1.2665 17.7435019,1.2665 17.7807782,1.2665 C17.9671595,1.30375 18.1908171,1.341 18.4890272,1.341 C18.7872374,1.341 19.1972763,1.37825 19.719144,1.4155 C22.6639689,1.788 25.1614786,3.16625 27.1743969,5.4385 C27.8453696,5.364 30.5292607,4.9915 31.8712062,4.6935 C32.542179,4.5445 33.250428,4.3955 33.9214008,4.2465 C37.2017121,3.53875 40.295642,2.86825 42.5322179,2.86825 C42.8677043,2.86825 43.1659144,2.86825 43.4268482,2.9055 L43.4641245,2.9055 C45.0670039,3.2035 46.2971206,4.06025 46.8189883,5.32675 C47.9372763,8.00875 47.2290272,10.09475 44.3960311,12.367 C41.0038911,15.08625 36.1579767,16.50175 33.3995331,17.135 C33.4368093,17.3585 33.5113619,17.76825 33.6977432,18.43875 C34.368716,18.36425 35.076965,18.36425 35.7479377,18.36425 C41.2648249,18.36425 44.80607,20.37575 45.0297276,22.35 C45.0670039,23.0205 44.5824125,23.80275 43.4268482,24.138 C38.4691051,25.44175 37.4626459,27.863 36.1579767,33.525 C35.3751751,36.8775 33.3995331,39.67125 30.3428794,41.60825 C27.6217121,43.4335 24.0804669,44.402 20.427393,44.402" id="Shape" fill="#DF4601"></path>
                                <path d="M14.7614008,0.55875 C16.4015564,0.55875 17.333463,1.341 17.6689494,1.5645 C18.1162646,1.7135 18.600856,1.60175 19.6818677,1.75075 C21.5456809,2.0115 24.4905058,2.79375 27.0625681,5.811 C27.0625681,5.811 30.3801556,5.364 31.9457588,5.066 C35.8970428,4.2465 39.8856031,3.278 42.5322179,3.278 C42.830428,3.278 43.1286381,3.278 43.389572,3.31525 C45.0670039,3.61325 46.1107393,4.5445 46.5207782,5.5875 C47.6763424,8.344 46.7444358,10.24375 44.2096498,12.2925 C41.0411673,14.8255 36.4189105,16.3155 33.101323,17.09775 C33.101323,17.09775 33.1385992,17.61925 33.5113619,18.923 C34.2941634,18.8485 35.0396887,18.81125 35.7479377,18.81125 C41.1157198,18.81125 44.5451362,20.74825 44.7315175,22.53625 C44.7687938,23.05775 44.3587549,23.72825 43.3150195,24.02625 C38.2081712,25.36725 37.1271595,27.9375 35.8224903,33.63675 C34.2196109,40.63975 27.4353307,44.21575 20.3901167,44.21575 C11.6301946,44.21575 2.53478599,38.70275 2.57206226,27.30425 L1.00645914,27.565 C1.00645914,27.565 -0.111828794,22.946 4.99501946,18.96025 C4.06311284,16.87425 1.75198444,10.61625 7.41797665,5.811 C8.312607,4.95425 8.64809339,4.8425 9.0581323,4.50725 C9.31906615,3.725 9.87821012,2.98 10.2136965,2.682 C11.8165759,1.043 13.8294942,0.78225 13.8294942,0.78225 C14.2022568,0.596 14.5004669,0.55875 14.7614008,0.55875 M14.7614008,0 C14.4631907,0 14.1277043,0.03725 13.8294942,0.0745 C13.6431128,0.11175 11.555642,0.40975 9.87821012,2.1605 C9.58,2.4585 8.98357977,3.2035 8.64809339,4.06025 C8.57354086,4.13475 8.46171206,4.20925 8.34988327,4.28375 C8.05167315,4.47 7.71618677,4.73075 7.11976654,5.2895 C4.54770428,7.45 3.24303502,10.132 3.24303502,13.29825 C3.24303502,15.01175 3.61579767,16.837 4.36132296,18.6995 C1.82653696,20.7855 0.89463035,22.98325 0.559143969,24.54775 C0.186381323,26.2985 0.48459144,27.565 0.48459144,27.60225 L0.596420233,28.12375 L1.11828794,28.04925 L2.05019455,27.90025 C2.16202335,32.44475 3.76490272,36.39325 6.74700389,39.37325 C10.139144,42.763 15.1341634,44.7 20.427393,44.7 C24.1177432,44.7 27.6962646,43.7315 30.4919844,41.9435 C33.5859144,39.96925 35.6361089,37.101 36.4189105,33.674 C37.7235798,28.012 38.6554864,25.73975 43.4641245,24.5105 L43.4641245,24.5105 L43.4641245,24.5105 C44.80607,24.138 45.365214,23.20675 45.2906615,22.4245 L45.2906615,22.4245 L45.2906615,22.4245 C45.1788327,21.307 44.097821,20.22675 42.3831128,19.4445 C41.1529961,18.88575 38.9536965,18.21525 35.7106615,18.21525 C35.1142412,18.21525 34.517821,18.2525 33.8841245,18.28975 C33.809572,17.9545 33.7350195,17.731 33.6977432,17.5075 C36.5307393,16.837 41.1902724,15.38425 44.5078599,12.7395 C47.4526848,10.39275 48.1982101,8.195 47.0053696,5.364 C46.4462257,4.023 45.1415564,3.0545 43.4268482,2.7565 L43.389572,2.7565 L43.3522957,2.7565 C43.0540856,2.71925 42.7558755,2.71925 42.4203891,2.71925 C40.146537,2.71925 37.052607,3.38975 33.7722957,4.0975 C33.101323,4.2465 32.3930739,4.3955 31.7221012,4.5445 C30.4547082,4.80525 28.031751,5.1405 27.2116732,5.25225 C25.2733074,2.9055 22.7385214,1.5645 19.7564202,1.15475 C19.2345525,1.08025 18.8245136,1.08025 18.4890272,1.08025 C18.2280934,1.08025 18.0417121,1.08025 17.892607,1.043 C17.892607,1.043 17.8553307,1.043 17.8553307,1.00575 C17.4452918,0.70775 16.4388327,0 14.7614008,0" id="Shape" fill="#FFFFFF"></path>
                                <path d="M38.1336187,22.46175 C32.6167315,25.51625 32.9894942,29.46475 26.8016342,31.10375 C19.7936965,32.929 14.1277043,28.2355 18.2280934,27.30425 C19.1972763,27.118 19.3091051,26.522 18.2653696,26.70825 C15.8051362,26.85725 12.6366537,28.12375 15.6187549,33.04075 C15.6187549,33.04075 16.0287938,33.227 16.2151751,33.04075 C16.2151751,33.04075 15.0968872,30.545 15.9542412,29.83725 C19.9055253,33.5995 28.7027237,34.27 34.2196109,26.93175 C36.0834241,24.47325 38.2454475,23.05775 40.3329183,22.201 C36.9780545,21.3815 33.1758755,21.307 31.0884047,21.94025 C30.8274708,18.625 30.6410895,17.69375 30.007393,16.27825 C29.7091829,15.645 29.6719066,15.2725 31.1256809,14.86275 C32.0203113,14.602 35.7479377,13.74525 38.9536965,12.2925 C41.2275486,11.2495 42.7931518,10.09475 43.2031907,9.685 C43.538677,9.387 44.7315175,8.046 44.2842023,6.96575 C43.8368872,5.8855 42.7558755,5.811 41.4512062,5.92275 C40.3329183,6.0345 39.8110506,6.07175 32.8403891,7.599 C29.1873152,8.344 27.0998444,8.38125 25.7951751,8.791 C25.7951751,8.791 24.0804669,4.619 18.3771984,4.43275 C17.6316732,4.43275 16.4388327,4.28375 15.8424125,3.68775 C15.208716,3.2035 14.090428,3.278 13.1585214,3.7995 C12.4502724,4.172 11.8538521,4.768 11.7420233,5.32675 C11.4810895,6.29525 11.1456031,6.22075 9.80365759,7.33825 C8.12622568,8.7165 4.28677043,11.771 8.53626459,19.55625 C4.65953307,21.79125 4.10038911,24.39875 4.10038911,24.39875 L5.88964981,24.287 C5.62871595,24.77125 5.40505837,26.373 5.40505837,27.08075 C5.3677821,31.141 6.59789883,34.4935 9.09540856,37.0265 C11.8165759,39.783 15.9542412,41.38475 20.3528405,41.38475 L20.3528405,41.38475 C23.4467704,41.38475 26.4288716,40.56525 28.74,39.1125 C29.7837354,38.442 30.715642,37.6225 31.4238911,36.69125 C22.5521401,42.20425 14.4259144,37.51075 12.7857588,32.81725 C11.1828794,28.2355 14.0531518,24.69675 17.7062257,25.5535 C22.8130739,26.78275 25.496965,26.075 26.2797665,23.6165 C26.913463,23.84 28.3672374,23.80275 29.2618677,23.35575 C30.6038132,22.75975 33.6977432,21.64225 38.1336187,22.46175" id="Shape" fill="#000000"></path>
                                <path d="M12.7484825,6.07175 L15.5442023,5.02875 C15.5442023,5.02875 13.4567315,3.427 12.7484825,6.07175" id="Shape" fill="#DF4601"></path>
                                <path d="M19.3091051,13.559 C19.3091051,13.559 23.5958755,10.24375 28.4045136,9.685 C32.8776654,9.12625 39.9974319,7.56175 39.9974319,7.56175 C39.9974319,7.56175 36.5307393,9.64775 33.0640467,12.069 C29.299144,14.304 26.5407004,15.23525 22.1793774,15.1235 C19.3463813,14.751 17.4825681,14.751 19.3091051,13.559" id="Shape" fill="#DF4601"></path>
                                <path d="M35.6361089,11.95725 C35.6361089,11.95725 42.6440467,7.0775 42.8677043,7.45 C43.5014008,8.30675 39.9974319,10.5045 35.6361089,11.95725" id="Shape" fill="#DF4601"></path>
                                <path d="M13.9040467,16.7625 L8.49898833,19.5935 L7.97712062,18.51325 C7.97712062,18.51325 10.8846693,18.178 13.9040467,16.7625 Z" id="Shape" fill="#FFFFFF"></path>
                                <path d="M24.2668482,20.59925 C24.9005447,22.5735 24.4532296,24.5105 23.2603891,24.883 C22.0675486,25.29275 20.5392218,23.989 19.9055253,22.01475 C19.2718288,20.0405 19.719144,18.1035 20.9119844,17.731 C22.1421012,17.32125 23.6331518,18.625 24.2668482,20.59925" id="Shape" fill="#FFFFFF"></path>
                                <path d="M22.1421012,21.49325 C22.6639689,22.38725 22.5521401,23.43025 21.9557198,23.7655 C21.3592996,24.10075 20.4646693,23.6165 19.9428016,22.7225 C19.4209339,21.8285 19.5327626,20.7855 20.1291829,20.45025 C20.7256031,20.115 21.6202335,20.562 22.1421012,21.49325" id="Shape" fill="#000000"></path>
                                <path d="M29.299144,18.6995 C29.8210117,20.711 29.2618677,22.61075 28.031751,22.946 C26.8016342,23.28125 25.3851362,21.903 24.8259922,19.8915 C24.3414008,17.88 24.9005447,15.98025 26.1306615,15.645 C27.3607782,15.30975 28.7772763,16.688 29.299144,18.6995" id="Shape" fill="#FFFFFF"></path>
                                <path d="M26.9507393,19.70525 C27.3607782,20.562 27.2489494,21.49325 26.6525292,21.79125 C26.0933852,22.052 25.2733074,21.605 24.8632685,20.711 C24.4532296,19.85425 24.5650584,18.923 25.1614786,18.625 C25.7206226,18.36425 26.5407004,18.8485 26.9507393,19.70525" id="Shape" fill="#000000"></path>
                                <path d="M19.1972763,8.195 C19.7564202,8.53025 20.2782879,8.53025 20.9119844,8.195 C21.0238132,8.60475 21.135642,9.1635 21.135642,9.6105 C21.135642,9.983 21.0983658,10.46725 20.9119844,10.76525 C20.8001556,10.9515 20.6883268,11.026 20.5019455,11.06325 C19.9055253,11.175 19.3836576,10.281 19.1972763,9.6105 C19.0854475,9.1635 19.0854475,8.642 19.1972763,8.195 L19.1972763,8.195 Z M20.8374319,7.93425 C20.5019455,8.08325 20.2410117,8.08325 19.9800778,7.9715 C19.6818677,7.85975 19.4209339,7.599 19.2718288,7.301 C19.16,7.04025 19.16,6.74225 19.3091051,6.51875 C19.3836576,6.407 19.5700389,6.3325 19.7564202,6.3325 C20.2037354,6.3325 20.6137743,7.18925 20.8374319,7.93425 L20.8374319,7.93425 Z M21.694786,7.18925 C21.6202335,7.33825 21.5456809,7.48725 21.4338521,7.599 C20.986537,6.36975 20.3528405,5.7365 19.719144,5.77375 C19.3463813,5.811 19.0108949,5.96 18.8245136,6.258 C18.600856,6.556 18.5263035,7.003 18.6754086,7.3755 C18.3399222,8.195 18.3771984,9.1635 18.600856,9.9085 C18.8617899,10.69075 19.2345525,11.2495 19.7564202,11.51025 C20.0546304,11.6965 20.427393,11.6965 20.6883268,11.622 C21.0610895,11.51025 21.3220233,11.2495 21.5084047,10.83975 C21.9184436,9.983 21.8438911,8.7165 21.5456809,7.85975 C21.694786,7.748 21.8811673,7.48725 21.9557198,7.26375 L21.694786,7.18925 L21.694786,7.18925 Z" id="Shape" fill="#DF4601"></path>
                                <path id="Shape" fill="#DF4601"></path>
                                <path d="M23.5585992,8.493 L23.2976654,8.2695 L23.2231128,8.195 C23.1485603,8.15775 23.111284,8.08325 23.111284,8.00875 L23.111284,7.9715 L23.0740078,7.9715 L22.7757977,8.195 C22.7385214,8.30675 22.7012451,8.53025 22.7012451,8.7165 L22.6639689,9.3125 C22.6266926,9.685 22.5521401,9.983 22.3657588,10.09475 L22.3657588,10.09475 L22.2912062,10.43 L22.3284825,10.43 C22.5521401,10.31825 22.7012451,10.09475 22.8130739,9.72225 L22.8503502,9.387 L22.8876265,9.089 L22.8876265,9.0145 L22.9249027,8.7165 C22.9249027,8.642 22.962179,8.5675 22.962179,8.493 C22.962179,8.493 22.962179,8.493 22.962179,8.45575 L22.9994553,8.493 C23.0740078,8.60475 23.2976654,8.791 23.4094942,8.8655 C23.4094942,8.8655 23.4094942,8.8655 23.4467704,8.90275 L23.4094942,8.90275 C23.0367315,9.05175 22.962179,9.3125 23.0367315,9.42425 C23.0740078,9.49875 23.1485603,9.57325 23.1858366,9.6105 C23.2603891,9.64775 23.3722179,9.64775 23.4840467,9.57325 C23.7077043,9.4615 23.8568093,9.20075 23.7822568,8.94 L23.7822568,8.90275 L23.7449805,8.791 C23.7077043,8.67925 23.670428,8.60475 23.5585992,8.493 M23.521323,9.238 C23.4840467,9.3125 23.4467704,9.34975 23.3722179,9.387 C23.2976654,9.42425 23.2231128,9.387 23.1858366,9.34975 C23.111284,9.3125 23.111284,9.238 23.1485603,9.1635 C23.1858366,9.089 23.2976654,9.0145 23.4840467,8.94 L23.521323,8.94 C23.521323,8.94 23.521323,8.97725 23.5585992,8.97725 C23.5585992,9.089 23.5585992,9.20075 23.521323,9.238" id="Shape" fill="#DF4601"></path>
                            </g>
                        </g>
                    </g>
                </g>
            </g>
        </g>
    </g>
</svg>