<?xml version="1.0" encoding="UTF-8"?>
<svg width="47px" height="45px" viewBox="0 0 47 45" version="1.1" xmlns="http://www.w3.org/2000/svg" xmlns:xlink="http://www.w3.org/1999/xlink">
    <!-- Generator: Sketch 42 (36781) - http://www.bohemiancoding.com/sketch -->
    <title>baltimore-orioles</title>
    <desc>Created with Sketch.</desc>
    <defs></defs>
    <g id="Spritesheet" stroke="none" stroke-width="1" fill="none" fill-rule="evenodd">
        <g id="Artboard" transform="translate(-719.000000, -506.000000)" fill="#000000">
            <g id="B" transform="translate(47.000000, 455.000000)">
                <g id="Group-22-Copy" transform="translate(672.000000, 51.000000)">
                    <g id="Sprites/B/Baltimore-Orioles">
                        <g>
                            <path d="M5.18325148,19.3410209 L5.19,19.355 L11.3525,16.125 C8.08641996,17.6572351 4.93510664,18.0800586 4.62068973,18.1193719 C0.785443264,10.1130849 4.85307125,6.87258586 6.6775,5.3725 C8.2075,4.0975 8.59,4.1825 8.8875,3.0775 C9.015,2.44 9.695,1.76 10.5025,1.335 C11.565,0.74 12.84,0.655 13.5625,1.2075 C14.2425,1.8875 15.6025,2.0575 16.4525,2.0575 C22.955,2.27 24.91,7.03 24.91,7.03 C26.3975,6.5625 28.7775,6.52 32.9425,5.67 C40.89,3.9275 41.485,3.885 42.76,3.7575 C44.2475,3.63 45.48,3.715 45.99,4.9475 C46.5,6.18 45.14,7.71 44.7575,8.05 C44.29,8.5175 42.505,9.835 39.9125,11.025 C36.2575,12.6825 32.0075,13.66 30.9875,13.9575 C29.33,14.425 29.3725,14.85 29.7125,15.5725 C30.435,17.1875 30.6475,18.25 30.945,22.0325 C33.325,21.31 37.66,21.395 41.485,22.33 C39.105,23.3075 36.64,24.9225 34.515,27.7275 C28.225,36.1 18.195,35.335 13.69,31.0425 C12.7125,31.85 13.9875,34.6975 13.9875,34.6975 C13.775,34.91 13.3075,34.6975 13.3075,34.6975 C9.9075,29.0875 13.52,27.6425 16.325,27.4725 C17.515,27.26 17.3875,27.94 16.2825,28.1525 C11.6075,29.215 18.0675,34.57 26.0575,32.4875 C33.1125,30.6175 32.6875,26.1125 38.9775,22.6275 C33.92,21.6925 30.3925,22.9675 28.8625,23.6475 C27.8425,24.1575 26.185,24.2 25.4625,23.945 C24.57,26.75 21.51,27.5575 15.6875,26.155 C11.5225,25.1775 8.25,29.215 10.0775,34.4425 C11.9475,39.7975 21.2125,45.1525 31.3275,38.8625 C30.52,39.925 29.4575,40.86 28.2675,41.625 C25.6325,43.2825 22.2325,44.2175 18.705,44.2175 C13.69,44.2175 8.9725,42.39 5.87,39.245 C3.0225,36.355 1.62,32.53 1.6625,27.8975 C1.6625,27.09 1.9175,25.2625 2.215,24.71 L0.175,24.8375 C0.175,24.8375 0.807758284,21.884628 5.18325148,19.3410209 Z M23.1675,20.5025 C22.445,18.25 20.745,16.7625 19.3425,17.23 C17.9825,17.655 17.4725,19.865 18.195,22.1175 C18.9175,24.37 20.66,25.8575 22.02,25.39 C23.38,24.965 23.89,22.755 23.1675,20.5025 Z M28.905,18.335 C28.31,16.04 26.695,14.4675 25.2925,14.85 C23.89,15.2325 23.2525,17.4 23.805,19.695 C24.4425,21.99 26.0575,23.5625 27.46,23.18 C28.8625,22.7975 29.5,20.63 28.905,18.335 Z M22.36,6.69 L22.0625,6.435 L21.9775,6.35 C21.8925,6.3075 21.85,6.2225 21.85,6.1375 L21.85,6.095 L21.8075,6.095 L21.4675,6.35 C21.425,6.4775 21.3825,6.7325 21.3825,6.945 L21.34,7.625 C21.2975,8.05 21.2125,8.39 21,8.5175 L20.915,8.9 L20.9575,8.9 C21.2125,8.7725 21.3825,8.5175 21.51,8.0925 L21.5525,7.71 L21.595,7.37 L21.595,7.285 L21.6375,6.945 C21.6375,6.86 21.68,6.775 21.68,6.69 C21.68,6.69 21.68,6.69 21.68,6.6475 L21.7225,6.69 C21.8075,6.8175 22.0625,7.03 22.19,7.115 C22.19,7.115 22.19,7.115 22.2325,7.1575 L22.19,7.1575 C21.765,7.3275 21.68,7.625 21.765,7.7525 C21.8075,7.8375 21.8925,7.9225 21.935,7.965 C22.02,8.0075 22.1475,8.0075 22.275,7.9225 C22.53,7.795 22.7,7.4975 22.615,7.2 L22.615,7.1575 L22.5725,7.03 C22.53,6.9025 22.4875,6.8175 22.36,6.69 Z M10.035,3.9275 C10.8425,0.91 13.2225,2.7375 13.2225,2.7375 L10.035,3.9275 Z M17.515,12.47 C15.4325,13.83 17.5575,13.83 20.7875,14.255 C25.76,14.3825 28.905,13.32 33.1975,10.77 C37.15,8.0075 41.1025,5.6275 41.1025,5.6275 C41.1025,5.6275 32.985,7.4125 27.885,8.05 C22.4025,8.6875 17.515,12.47 17.515,12.47 Z M36.13,10.6425 C41.1025,8.985 45.0975,6.4775 44.375,5.5 C44.12,5.075 36.13,10.6425 36.13,10.6425 Z M20.235,5.2025 C20.15,5.3725 20.065,5.5425 19.9375,5.67 C19.4275,4.2675 18.705,3.545 17.9825,3.5875 C17.5575,3.63 17.175,3.8 16.9625,4.14 C16.7075,4.48 16.6225,4.99 16.7925,5.415 C16.41,6.35 16.4525,7.455 16.7075,8.305 C17.005,9.1975 17.43,9.835 18.025,10.1325 C18.365,10.345 18.79,10.345 19.0875,10.26 C19.5125,10.1325 19.81,9.835 20.0225,9.3675 C20.49,8.39 20.405,6.945 20.065,5.9675 C20.235,5.84 20.4475,5.5425 20.5325,5.2875 L20.235,5.2025 Z M19.2575,6.0525 C18.875,6.2225 18.5775,6.2225 18.28,6.095 C17.94,5.9675 17.6425,5.67 17.4725,5.33 C17.345,5.0325 17.345,4.6925 17.515,4.4375 C17.6,4.31 17.8125,4.225 18.025,4.225 C18.535,4.225 19.0025,5.2025 19.2575,6.0525 Z M17.3875,6.35 C18.025,6.7325 18.62,6.7325 19.3425,6.35 C19.47,6.8175 19.5975,7.455 19.5975,7.965 C19.5975,8.39 19.555,8.9425 19.3425,9.2825 C19.215,9.495 19.0875,9.58 18.875,9.6225 C18.195,9.75 17.6,8.73 17.3875,7.965 C17.26,7.455 17.26,6.86 17.3875,6.35 Z" id="Combined-Shape"></path>
                            <path d="M26.2275,19.4825 C26.695,20.46 26.5675,21.5225 25.8875,21.8625 C25.25,22.16 24.315,21.65 23.8475,20.63 C23.38,19.6525 23.5075,18.59 24.1875,18.25 C24.825,17.9525 25.76,18.505 26.2275,19.4825 Z M20.745,21.5225 C21.34,22.5425 21.2125,23.7325 20.5325,24.115 C19.8525,24.4975 18.8325,23.945 18.2375,22.925 C17.6425,21.905 17.77,20.715 18.45,20.3325 C19.13,19.95 20.15,20.46 20.745,21.5225 Z" id="Pupils"></path>
                        </g>
                    </g>
                </g>
            </g>
        </g>
    </g>
</svg>