<?xml version="1.0" encoding="UTF-8"?>
<svg width="31px" height="47px" viewBox="0 0 31 47" version="1.1" xmlns="http://www.w3.org/2000/svg" xmlns:xlink="http://www.w3.org/1999/xlink">
    <!-- Generator: Sketch 42 (36781) - http://www.bohemiancoding.com/sketch -->
    <title>boston-red-sox</title>
    <desc>Created with Sketch.</desc>
    <defs>
        <path d="M8.11594203,42.8917945 C17.4925497,47.8026936 24.2015749,43.1991714 25.2173198,38.596141 C26.2065191,34.1140941 26.9658234,33.1491766 28.0607043,32.3045049 C27.2004765,31.4613086 27.1516427,31.5375381 26.3695491,30.0028667 C25.36883,28.0386054 24.9298259,23.0994277 21.6489398,21.1041828 C24.9298259,18.956479 24.0407987,16.3941852 25.0420186,14.4299239 C25.82286,12.8950067 25.9796293,12.9719739 26.8386049,12.1282858 C25.7447258,11.2841059 24.819887,10.3184506 23.8306877,5.83714146 C22.8149428,1.23337333 14.6113502,-3.44564065 7.18884942,3.61222457 C4.2194985,-2.14162493 -1.77635684e-15,1.69394687 -1.77635684e-15,3.22861821 C2.57893023,3.30509358 4.41558535,4.76279775 4.41558535,6.68033775 L4.41558535,19.118774 C4.41558535,20.8068879 2.34427713,21.9532807 1.71870249,22.4136083 C2.34452756,22.8741819 4.41558535,24.0190993 4.41558535,25.7072132 L4.41558535,39.1324522 C4.41558535,41.0509758 2.57893023,42.5094177 -1.77635684e-15,42.5863849 C-0.000250430203,44.1193349 3.5844075,46.957776 8.11594203,42.8917945 L8.11594203,42.8917945 Z M9.37585638,32.3045049 L9.37585638,27.2795075 C9.37585638,26.2061474 11.3287111,23.9047551 15.469825,23.9047551 C19.3767866,23.9047551 22.6005746,27.5677041 21.2126904,30.0026208 C20.431849,31.5372922 20.3932828,31.4610627 19.5335559,32.304259 C20.3932828,33.1489307 20.431849,33.0719635 21.2126904,34.6061431 C21.682247,35.7574539 23.5184013,41.1272053 15.469825,41.1272053 C11.3284607,41.1272053 9.37585638,38.8260589 9.37585638,37.7512234 L9.37585638,32.3045049 L9.37585638,32.3045049 Z M15.2744894,19.7610687 C11.1333756,19.7610687 9.37585638,18.4186924 9.29672044,15.688202 C9.28094334,15.1012351 9.29672044,14.3047601 9.29672044,12.1280399 L9.29672044,8.90918906 C9.29672044,7.32902594 11.1333756,4.41828973 15.2744894,4.4136176 C18.5566276,4.40992908 22.2677528,7.90296007 20.8811208,10.0949262 C20.3341812,11.0158273 20.1208147,11.3298436 19.37879,12.1280399 C22.1921229,14.3524649 20.9399719,19.6464786 15.2744894,19.7610687 L15.2744894,19.7610687 Z" id="path-1"></path>
        <mask id="mask-2" maskContentUnits="userSpaceOnUse" maskUnits="objectBoundingBox" x="-1" y="-1" width="30.0607043" height="47">
            <rect x="-1" y="-1" width="30.0607043" height="47" fill="white"></rect>
            <use xlink:href="#path-1" fill="black"></use>
        </mask>
    </defs>
    <g id="Spritesheet" stroke="none" stroke-width="1" fill="none" fill-rule="evenodd">
        <g id="Artboard" transform="translate(-270.000000, -505.000000)">
            <g id="B" transform="translate(47.000000, 455.000000)">
                <g id="Group-21-Copy" transform="translate(224.000000, 51.000000)">
                    <g id="Sprites/B/Boston-Red-Sox">
                        <g id="a">
                            <use fill="#000000" fill-rule="evenodd" xlink:href="#path-1"></use>
                            <use stroke="#000000" mask="url(#mask-2)" stroke-width="2" xlink:href="#path-1"></use>
                        </g>
                    </g>
                </g>
            </g>
        </g>
    </g>
</svg>