<?xml version="1.0" encoding="UTF-8"?>
<svg width="65px" height="45px" viewBox="0 0 65 45" version="1.1" xmlns="http://www.w3.org/2000/svg" xmlns:xlink="http://www.w3.org/1999/xlink">
    <!-- Generator: Sketch 42 (36781) - http://www.bohemiancoding.com/sketch -->
    <title>cincinnati-reds-color</title>
    <desc>Created with Sketch.</desc>
    <defs></defs>
    <g id="Spritesheet" stroke="none" stroke-width="1" fill="none" fill-rule="evenodd">
        <g id="Artboard" transform="translate(-47.000000, -797.000000)" fill="#000000">
            <g id="C" transform="translate(47.000000, 638.000000)">
                <g id="Group-18" transform="translate(0.000000, 159.000000)">
                    <g id="Sprites/C/Cincinnati-Reds">
                        <path d="M9.17196584,31.2955351 C16.0649073,38.6156659 21.9178098,45 36.8033476,45 C49.8350064,45 59.9230105,38.5608194 64.666379,30.6363554 L54.4877589,30.6363554 C49.7259947,34.2531568 43.891488,37.1709211 36.4752907,37.1709211 C29.6293605,37.1709211 22.4775164,34.3158385 19.025595,29.1006541 C17.6936092,27.0880269 16.9104288,24.7258812 16.9104288,22.0387445 C16.9104288,17.405069 22.6263854,7.72756177 37.1842069,7.72756177 C45.744345,7.72756177 52.5071539,11.6792333 54.6764853,15.1083303 L64.9692269,15.1083303 C60.1955396,5.68154978 47.8721157,-3.55271368e-15 35.5486919,-3.55271368e-15 C23.4443132,-3.55271368e-15 14.1963799,6.98151344 8.8868323,13.2690997 C1.85217569,21.6023574 0,22.2066906 0,22.2066906 C4.57712573,25.5836664 6.34549873,28.2953307 9.17196584,31.2955351 L9.17196584,31.2955351 Z" id="Shape"></path>
                    </g>
                </g>
            </g>
        </g>
    </g>
</svg>