<?xml version="1.0" encoding="UTF-8"?>
<svg width="38px" height="45px" viewBox="0 0 38 45" version="1.1" xmlns="http://www.w3.org/2000/svg" xmlns:xlink="http://www.w3.org/1999/xlink">
    <!-- Generator: Sketch 42 (36781) - http://www.bohemiancoding.com/sketch -->
    <title>colorado-rockies-color</title>
    <desc>Created with Sketch.</desc>
    <defs></defs>
    <g id="Spritesheet" stroke="none" stroke-width="1" fill="none" fill-rule="evenodd">
        <g id="Artboard" transform="translate(-719.000000, -797.000000)" fill="#11087B">
            <g id="C" transform="translate(47.000000, 638.000000)">
                <g id="Group-20" transform="translate(672.000000, 159.000000)">
                    <g id="Sprites/C/Colorado-Rockies-(Color)">
                        <path d="M34.0850532,41.8466862 C32.5581112,40.3306539 29.7852211,32.3888282 27.4683739,31.8561231 C28.3213467,31.4332091 33.6641867,30.2048834 33.7060236,24.4270025 C33.7024851,18.1803745 27.9314935,16.1391372 22.1528006,16.1197623 C20.9243367,16.1147623 18.685127,16.1989285 16.4084514,16.327261 C13.5194172,16.4974683 12.0366017,16.6258008 9.83215198,16.7999664 L9.8246588,18.9216199 C12.9337009,18.9339115 13.5772812,19.663282 13.5666658,23.0484694 L13.5535528,27.1009443 C9.27578393,26.1861583 6.48936452,21.4005629 6.51121961,14.7043544 C6.53411541,7.61419003 9.87794358,2.64088751 14.7408043,2.65672075 C16.5676814,2.66234571 18.1757994,3.39984114 19.4519283,4.73129123 C20.7257676,6.06128298 21.6334822,7.98627105 22.0247923,10.3179233 L23.7438509,10.3264649 L23.4489113,0.764857473 L22.0970181,0.76152416 C21.947571,1.21839633 21.7652371,1.40047853 21.434705,1.39902021 C20.5207461,1.39527023 18.3689567,0.0163204453 14.4587696,7.05459666e-05 C10.2161771,-0.0120127125 6.59239564,1.52860274 4.05949524,4.26379412 C1.4916267,7.05002686 0.015679885,10.8389617 6.91092761e-05,15.4120584 C-0.00908921251,18.5689138 0.891548477,22.1380583 2.96778165,24.9824157 C5.03881124,27.8263564 8.3978339,29.8944686 13.2983686,29.9121768 C13.3824587,29.9121768 13.4615533,29.9059269 13.5448107,29.9046769 L13.5160869,38.8237883 C13.5035983,42.1227262 12.7786339,42.795222 9.74431534,42.7843887 L9.73765475,44.9120839 L23.4283051,44.9577086 L23.4349657,42.8320968 C20.6158677,42.8235552 19.5728598,42.4129327 19.5818099,39.0681618 L19.6026243,33.012991 L21.5156728,33.0196576 C21.5156728,33.0196576 28.5282415,44.9772918 28.7249372,44.9772918 C29.2230251,44.9772918 37.1495526,45 37.1495526,45 L37.1564213,42.8902214 C37.1564213,42.8900131 35.5628733,43.1410532 34.0850532,41.8466862 L34.0850532,41.8466862 Z M19.6101175,30.7990463 L19.6146966,29.3034306 C19.7520715,29.2990556 19.8911114,29.2913474 20.0253641,29.2913474 C20.4647554,29.294889 20.8643913,29.294889 21.1947153,29.3903051 C21.5597993,29.4355131 21.9250915,29.5286375 22.2527096,29.6673867 L22.3651072,29.3480137 C23.4349657,26.2421996 24.3229066,22.8563872 24.6249231,20.2534867 L22.9083622,20.2480701 C22.02729,22.5878472 20.9303728,24.3372114 19.628226,25.5049125 L19.6536195,18.2789156 L21.4205512,18.2839156 C24.9269396,18.2980821 26.7592284,20.6520259 26.7488212,24.2247121 C26.7313371,28.8817666 24.8459717,30.9057123 19.6101175,30.7990463 L19.6101175,30.7990463 Z"></path>
                    </g>
                </g>
            </g>
        </g>
    </g>
</svg>