<?xml version="1.0" encoding="UTF-8"?>
<svg width="31px" height="45px" viewBox="0 0 31 45" version="1.1" xmlns="http://www.w3.org/2000/svg" xmlns:xlink="http://www.w3.org/1999/xlink">
    <!-- Generator: Sketch 42 (36781) - http://www.bohemiancoding.com/sketch -->
    <title>detroit-tigers-color</title>
    <desc>Created with Sketch.</desc>
    <defs></defs>
    <g id="Spritesheet" stroke="none" stroke-width="1" fill="none" fill-rule="evenodd">
        <g id="Artboard" transform="translate(-47.000000, -1391.000000)" fill="#021540">
            <g id="D" transform="translate(47.000000, 1340.000000)">
                <g id="Group-30" transform="translate(0.000000, 51.000000)">
                    <g id="Sprites/D/Detroit-Tigers-(Color)">
                        <g id="Shape">
                            <path d="M1.03057783,0.659173729 C7.4395851,6.30362288 15.9124194,6.30362288 23.5172481,2.39605932 C25.0385954,5.43661017 27.8626191,8.31108051 30.3271522,9.23491525 C29.2192953,10.2662924 28.8409143,10.7551907 28.7319604,12.2739407 L28.7319604,30.0773517 C28.787296,32.0325636 29.1654862,32.7916525 30.6870244,34.5216737 C26.1798444,35.2897246 22.3219991,37.4586864 20.0408367,41.2602331 C16.3476625,38.0566525 12.0137402,37.0020127 8.48256574,37.416928 C2.38858976,38.1397881 0.33315847,44.9263983 0.296713299,44.8493644 C-0.273243373,43.6477119 0.296713299,38.2198729 4.00744226,35.3293856 C7.56914673,32.5624576 13.1118656,32.1303814 18.8471143,34.9627119 C20.4760798,33.5516949 22.3219991,32.4663559 23.8433465,32.0329449 L23.8433465,10.1032627 L21.6713288,7.93277542 C14.283263,10.5368644 3.63783862,8.42148305 0.1614273,0.875783898 C-0.32762491,-0.186101695 0.393646004,0.0976271186 1.03057783,0.659173729"></path>
                            <path d="M9.50398458,14.6625636 C9.50398458,12.6551059 10.6963713,10.1701907 12.5451528,8.69224576 C13.0882049,8.25730932 11.0623495,7.37141949 10.1008458,8.20353814 C7.57658841,10.3929025 6.0958841,11.6222034 5.77054894,14.3454661 C3.69164772,14.4997246 1.46505769,16.0184746 0.759051772,17.4294915 C-0.0452225414,19.0384322 1.1454469,19.0689407 1.95430072,18.5161653 C2.98640505,17.8106568 4.4524168,17.5400847 5.70147485,17.5923305 L5.69994835,19.6100847 C3.62104713,19.7643432 1.57362995,21.284428 0.867433221,22.6956356 C0.0631589081,24.3034322 1.2545916,24.3339407 2.06191892,23.7807839 C3.0947865,23.0754661 4.4524168,22.6956356 5.70147485,22.7495975 L5.70147485,28.8289831 C5.70147485,31.2176059 4.50698915,32.4104873 3.80098323,33.0622246 C3.09497731,33.7154873 3.48595194,34.3946822 4.50717996,33.98625 C6.95148695,33.0086441 9.50417539,30.5122881 9.50417539,26.6569703"></path>
                            <path d="M11.8937192,28.8287924 C11.8937192,31.2174153 10.6984703,32.4102966 9.99246435,33.0620339 C9.28626761,33.7152966 9.46028853,34.2854237 10.4815166,33.8766102 C12.9258235,32.9005297 15.6954657,30.2398093 15.6954657,26.3862076 L15.6954657,14.6625636 C15.6954657,12.6551059 15.8563206,10.0611229 17.705102,8.58470339 C18.2481541,8.14976695 17.4167845,7.37141949 16.456044,8.20353814 C13.9310233,10.3929025 11.8935284,12.0033686 11.9074577,15.1049364"></path>
                            <path d="M15.2615583,17.0513771 C17.5969114,18.0812288 21.9974272,18.0812288 24.5508789,17.0513771 L24.5508789,15.2052331 C21.9974272,16.2368008 17.5969114,16.2368008 15.2615583,15.2052331"></path>
                            <path d="M15.2615583,22.6954449 C17.5969114,21.6642585 21.9974272,21.6642585 24.5508789,22.6954449 L24.5508789,24.5417797 C21.9974272,23.5104025 17.5969114,23.5104025 15.2615583,24.5417797"></path>
                            <path d="M12.9796326,12.0571398 C11.7305746,11.6222034 10.6446612,11.4330508 9.55779368,11.486822 L8.85178775,13.1960593 C10.1008458,12.8701907 11.5130485,12.9254873 12.5451528,13.4143856"></path>
                            <path d="M9.16395686,27.9608263 C10.1960612,28.1236653 11.6082638,28.1236653 12.3142698,27.9068644 L12.1104821,26.3326271 C11.4044762,26.5498093 9.99227354,26.5498093 8.9601692,26.386589"></path>
                        </g>
                    </g>
                </g>
            </g>
        </g>
    </g>
</svg>