<?xml version="1.0" encoding="UTF-8"?>
<svg width="48px" height="45px" viewBox="0 0 48 45" version="1.1" xmlns="http://www.w3.org/2000/svg" xmlns:xlink="http://www.w3.org/1999/xlink">
    <!-- Generator: Sketch 42 (36781) - http://www.bohemiancoding.com/sketch -->
    <title>houston-astros</title>
    <desc>Created with Sketch.</desc>
    <defs></defs>
    <g id="Spritesheet" stroke="none" stroke-width="1" fill="none" fill-rule="evenodd">
        <g id="Artboard" transform="translate(-271.000000, -2902.000000)" fill="#000000">
            <g id="H" transform="translate(47.000000, 2851.000000)">
                <g id="Group-32" transform="translate(224.000000, 51.000000)">
                    <g id="Sprites/H/Houston-Astros">
                        <g>
                            <path d="M27.6354249,12.96225 L23.51655,0.09585 L19.2988788,12.96585 L21.75975,12.96585 L21.75975,17.03385 L18.55575,18.18225 L18.55575,23.11425 L28.47735,23.11425 L28.47735,18.18225 L25.26615,17.03385 L25.26615,12.96225 L27.6354249,12.96225 Z M36.4991431,17.17785 L47.29095,17.17785 L33.69375,26.9605557 L33.69375,18.18225 L36.4991431,17.17785 Z M33.69375,31.4906046 L34.3484073,33.4934335 L33.69375,33.25905 L33.69375,31.4906046 Z M35.9745071,38.46825 L38.07495,44.89425 L29.2718524,38.46825 L35.9745071,38.46825 Z M25.26615,35.5442061 L23.51655,34.26705 L21.77055,35.5442519 L21.77055,34.40385 L18.55935,33.25545 L18.55935,28.32345 L28.47735,28.32345 L28.47735,33.25545 L25.26615,34.40385 L25.26615,35.5442061 Z M17.773296,38.46825 L8.99847,44.88705 L11.1157281,38.46825 L17.773296,38.46825 Z M12.7653944,33.4670278 L13.33791,31.7313569 L13.33791,33.26265 L12.7653944,33.4670278 Z M13.33791,26.8429999 L0.01791,17.17785 L10.5208523,17.17785 L13.33791,18.18225 L13.33791,25.18425 L13.33791,26.75025 L13.33791,26.8429999 Z" id="Combined-Shape"></path>
                            <polygon id="path168" points="36.90855 17.03025 36.90855 12.96153 35.87535 14.00013 35.87535 16.29945 32.66775 17.44785 32.66775 33.98625 33.70095 33.25545 33.70095 26.74665 33.70095 18.29745 33.70095 18.17865 36.90855 17.03025"></polygon>
                            <polygon id="path172" points="36.90855 34.40385 35.87535 35.13105 35.87535 37.43145 26.31375 37.43145 25.27335 38.46825 36.90855 38.46825"></polygon>
                            <polygon id="path176" points="18.56655 28.32345 20.81655 28.32345 28.48455 28.32345 29.52135 27.29025 17.52975 27.29025 17.52975 33.98265 18.56655 33.25905 18.56655 31.43745 18.56655 28.32345"></polygon>
                            <polygon id="path180" points="21.77415 35.40825 21.77415 34.40385 20.73735 35.12745 20.73735 37.43505 11.17467 37.43505 10.14399 38.46825 11.00223 38.46825 13.48515 38.46825 17.56215 38.46825 21.77415 38.46825 21.77415 35.40825"></polygon>
                            <polygon id="path184" points="14.38407 17.45505 11.17215 16.30665 10.14003 17.03745 13.35087 18.18585"></polygon>
                            <polygon id="path188" points="26.31015 16.30305 25.27335 17.03385 28.48455 18.18225 29.52135 17.45505"></polygon>
                            <polygon id="path192" points="21.78135 17.03025 21.78135 12.96333 20.74455 13.99977 20.74455 16.29945 17.53695 17.44785 17.53695 24.14385 18.57375 23.11065 18.57375 18.17865 21.78135 17.03025"></polygon>
                        </g>
                    </g>
                </g>
            </g>
        </g>
    </g>
</svg>