<?xml version="1.0" encoding="UTF-8"?>
<svg width="31px" height="45px" viewBox="0 0 31 45" version="1.1" xmlns="http://www.w3.org/2000/svg" xmlns:xlink="http://www.w3.org/1999/xlink">
    <!-- Generator: Sketch 42 (36781) - http://www.bohemiancoding.com/sketch -->
    <title>los-angeles-angels-color</title>
    <desc>Created with Sketch.</desc>
    <defs></defs>
    <g id="Spritesheet" stroke="none" stroke-width="1" fill="none" fill-rule="evenodd">
        <g id="Artboard" transform="translate(-47.000000, -3639.000000)">
            <g id="L" transform="translate(47.000000, 3588.000000)">
                <g id="Group-12" transform="translate(0.000000, 51.000000)">
                    <g id="Sprites/L/Los-Angeles-Angels-(Color)">
                        <g transform="translate(15.500000, 22.500000) rotate(0.000000) translate(-15.500000, -22.500000) translate(0.000000, 0.000000)" id="Shape">
                            <path d="M14.2937329,30.9346592 L15.3818586,27.202617 L16.4656507,30.9346592 L14.2937329,30.9346592 Z M18.1376902,44.2829096 L30.7233954,44.2829096 C29.5617858,43.4928562 28.5311282,42.1110158 28.0753401,40.5307206 L24.5562189,28.4639535 C24.176741,27.1681604 24.7949471,25.869543 25.7839639,24.9904297 C24.3809883,24.5566158 23.1345897,23.5848651 22.7436181,22.2403056 L20.7727445,15.4887002 C23.5743621,14.551971 25.4014712,12.8914654 25.4014712,10.9664163 C25.4014712,8.44958013 22.2848153,6.3904704 17.9464438,5.80000148 L16.3005948,0.153077561 L14.454832,0.153077561 L12.8087945,5.80000148 C8.47042303,6.3904704 5.35225974,8.44958013 5.35225974,10.9664163 C5.35225974,12.8914654 7.17936889,14.551971 9.98400123,15.4887002 L8.01463494,22.2403056 C7.6249823,23.5850534 6.37726477,24.5568041 4.97127441,24.9904297 C5.96029122,25.869543 6.58000474,27.1681604 6.20184571,28.4639535 L2.68140563,40.5307206 C2.21713864,42.1110158 1.19646727,43.4926679 0.0376840086,44.2829096 L12.6232008,44.2829096 C11.5953694,43.4928562 11.0318051,42.1110158 11.4919268,40.5307206 L11.8024431,39.4791362 L18.9584479,39.4791362 L19.2646304,40.5307206 C19.7260711,42.1108275 19.1626952,43.4926679 18.1376902,44.2829096 L18.1376902,44.2829096 Z" fill="#FFFFFF"></path>
                            <path d="M13.1407906,31.7936258 L15.382047,24.1284505 L17.6146361,31.7936258 L13.1407906,31.7936258 Z M28.6044236,43.4267673 C28.004871,42.6423625 27.5277914,41.7286043 27.2489298,40.7749292 L23.7512885,28.7885608 C23.1992178,26.8866709 24.2242228,25.5364628 24.358001,25.3208739 C23.1434454,24.6629981 22.2535376,23.6622512 21.9157004,22.4786773 L19.791076,15.1868757 C22.7882737,14.3881611 24.8324427,12.799393 24.8324427,10.9664163 C24.8324427,8.64784664 21.5477161,6.71074707 17.1948363,6.28277007 L15.6582708,1.01223244 L15.1033738,1.01223244 L13.565301,6.28277007 C9.21242116,6.71074707 5.92336089,8.64803493 5.92336089,10.9664163 C5.92336089,12.799393 7.97035623,14.3881611 10.9690612,15.1868757 L8.84142209,22.4786773 C8.49925129,23.6622512 7.61235815,24.6629981 6.39761414,25.3208739 C6.53421867,25.5364628 7.56054264,26.8866709 7.00432667,28.7885608 L3.50970014,40.7749292 C3.23083848,41.7286043 2.75357051,42.6423625 2.14987269,43.4267673 L10.8641113,43.4267673 C10.1613045,41.8752801 10.5306078,40.7463096 10.846965,39.6804153 L11.1559739,38.6201696 L19.6043518,38.6201696 L19.914868,39.6804153 C20.2238769,40.7463096 20.5946875,41.8752801 19.8918808,43.4267673 L28.6044236,43.4267673 L28.6044236,43.4267673 Z" fill="#003263"></path>
                            <path d="M11.3353498,33.1470348 L15.382047,19.3009529 L19.4157433,33.1470348 L11.3353498,33.1470348 Z M26.2898717,42.070534 C26.1016401,41.6681641 25.9362073,41.254497 25.8112848,40.8321686 L22.4689017,29.4033188 C21.9458477,27.6191085 22.2331882,26.8463775 22.6154925,25.7688093 C21.6093295,25.0019152 20.9423225,23.9992854 20.6174864,22.8693735 L15.382047,4.89490451 L10.1379404,22.8693735 C9.81008953,23.9992854 9.15024254,25.0019152 8.14257215,25.7688093 C8.52073118,26.8463775 8.81391277,27.6191085 8.28784401,29.4033188 L4.94282299,40.8321686 C4.81771208,41.254497 4.6581203,41.6681641 4.46272872,42.070534 L9.22674108,42.070534 C9.11180485,41.3493937 9.22108848,40.4013673 9.42514739,39.7261691 L10.1381288,37.2667606 L20.6176748,37.2667606 L21.3393235,39.7261691 C21.5318888,40.4013673 21.6424914,41.3493937 21.5318888,42.070534 L26.2898717,42.070534 L26.2898717,42.070534 Z" fill="#CE1141"></path>
                            <path d="M15.382047,12.2132546 L15.382047,4.89490451 L10.1379404,22.8693735 C9.81008953,23.9992854 9.15024254,25.0019152 8.14257215,25.7688093 C8.52073118,26.8463775 8.81391277,27.6191085 8.28784401,29.4033188 L4.94282299,40.8321686 C4.81771208,41.254497 4.6581203,41.6681641 4.46272872,42.070534 L9.22674108,42.070534 L7.08346309,40.6226048" fill="#900028"></path>
                            <polyline fill="#900028" points="15.382047 19.3009529 19.4157433 33.1470348 22.0937574 35.209722 15.382047 12.2132546"></polyline>
                            <path d="M26.2898717,42.070534 L23.6346565,40.4845903 L22.0937574,35.209722 L8.66430725,35.209722 L10.137752,37.2669489 L20.6172979,37.2669489 L21.3389467,39.7263574 C21.531512,40.4015556 21.6421145,41.349582 21.531512,42.0707223" fill="#900028"></path>
                            <path d="M16.7951974,9.75968305 L16.5722965,8.98977635 C16.1828322,8.96962961 15.7860196,8.95531978 15.382047,8.95531978 C14.9709145,8.95531978 14.5756093,8.96962961 14.1846377,8.98977635 L13.9632441,9.75968305 C14.4175248,9.73388769 14.8904591,9.71656526 15.382047,9.71656526 C15.8621413,9.71656526 16.3379019,9.73388769 16.7951974,9.75968305" fill="#900028"></path>
                            <path d="M12.678031,14.1669235 L13.0631616,12.8423225 C10.6308472,12.5521718 8.90303545,11.8167216 8.90303545,10.966228 C8.90303545,9.85439155 11.8024431,8.95513149 15.382047,8.95513149 C18.9573174,8.95513149 21.8580439,9.85439155 21.8580439,10.966228 C21.8580439,11.8167216 20.1272174,12.5521718 17.6949031,12.8423225 L18.0757,14.1669235 C21.2111979,13.698653 23.4592374,12.4459777 23.4592374,10.966228 C23.4592374,9.09295778 19.8410074,7.57027852 15.3818586,7.57027852 C10.9097089,7.57027852 7.29995772,9.09295778 7.29995772,10.966228 C7.30014614,12.4459777 9.54404043,13.698653 12.678031,14.1669235" fill="#999596"></path>
                        </g>
                    </g>
                </g>
            </g>
        </g>
    </g>
</svg>