<?xml version="1.0" encoding="UTF-8"?>
<svg width="45px" height="45px" viewBox="0 0 45 45" version="1.1" xmlns="http://www.w3.org/2000/svg" xmlns:xlink="http://www.w3.org/1999/xlink">
    <!-- Generator: Sketch 42 (36781) - http://www.bohemiancoding.com/sketch -->
    <title>minnesota-twins</title>
    <desc>Created with Sketch.</desc>
    <defs></defs>
    <g id="Spritesheet" stroke="none" stroke-width="1" fill="none" fill-rule="evenodd">
        <g id="Artboard" transform="translate(-47.000000, -4032.000000)" fill="#000000">
            <g id="M" transform="translate(47.000000, 3879.000000)">
                <g id="Group-39" transform="translate(0.000000, 153.000000)">
                    <g id="Sprites/M/Minnesota-Twins">
                        <g id="Group-Copy">
                            <path d="M26.4662151,37.8970996 L26.4662151,40.0154104 L29.2938167,44.5107729 L18.6590438,44.5107729 L21.4837769,40.0154104 L21.4837769,37.6869323 C23.2081434,37.8385817 25.4712191,37.9743586 26.4662151,37.8970996" id="Shape"></path>
                            <path d="M26.4662151,23.1494343 L26.4662151,4.48125896 C27.9251474,4.59657371 34.9386932,4.94232669 37.5838566,5.63249402 C38.9655299,9.00702789 41.7858645,10.9285578 43.8313147,10.9606853 C43.8592351,10.9606853 42.4511713,6.00157769 42.8363187,2.32336255 C38.2346295,1.24804781 29.1888287,0.304111554 23.9759522,0.304111554 C18.7626932,0.304111554 9.71689243,1.24823904 5.11654183,2.32336255 C5.50168924,6.00157769 4.09247809,10.9606853 4.12154582,10.9606853 C6.16565737,10.9285578 8.98886056,9.00702789 10.3676653,5.63249402 C13.0128287,4.94232669 20.0277131,4.59657371 21.4837769,4.48125896 L21.4837769,23.2266932 L21.4837769,32.0726534 C22.9805737,32.4562709 26.1627251,32.3220239 26.4662151,32.2828207 L26.4662151,23.1494343" id="Shape"></path>
                            <path d="M21.1116335,8.71520319 C14.0923506,9.59794422 9.85534661,13.4526693 6.95488446,17.3234582 C6.18898805,18.3490518 1.74468526,22.5131952 0.287282869,23.4338008 C2.81713147,25.0417052 6.52594422,28.439761 9.0267251,31.4291474 C11.7828048,34.7239363 15.8855618,37.6752669 24.1302789,38.0984701 C33.8004622,38.5974024 42.7588685,33.5755697 44.4453705,26.139012 L37.7747092,26.0644303 C36.7009243,29.434757 29.805753,32.3849402 24.1300876,32.1177849 C15.6576096,31.722502 10.5424542,27.5512829 10.5585179,23.4003347 C10.5745817,19.2887809 14.6218805,15.5566375 21.114502,14.4885896" id="Shape"></path>
                            <path d="M26.8383586,14.1327012 C37.1505179,14.5966375 38.5555219,20.8236335 38.7729562,21.6174502 L44.5214821,21.5386614 C44.3055777,16.1796813 38.5719681,9.26978486 26.8383586,8.5140239" id="Shape"></path>
                        </g>
                    </g>
                </g>
            </g>
        </g>
    </g>
</svg>