<?xml version="1.0" encoding="UTF-8"?>
<svg width="33px" height="45px" viewBox="0 0 33 45" version="1.1" xmlns="http://www.w3.org/2000/svg" xmlns:xlink="http://www.w3.org/1999/xlink">
    <!-- Generator: Sketch 42 (36781) - http://www.bohemiancoding.com/sketch -->
    <title>philadelphia-phillies-color</title>
    <desc>Created with Sketch.</desc>
    <defs></defs>
    <g id="Spritesheet" stroke="none" stroke-width="1" fill="none" fill-rule="evenodd">
        <g id="Artboard" transform="translate(-47.000000, -4680.000000)" fill="#CE1141">
            <g id="P" transform="translate(47.000000, 4629.000000)">
                <g id="Group" transform="translate(0.000000, 51.000000)">
                    <g id="Sprites/P/Philadelphia-Phillies-(Color)">
                        <path d="M26.8208101,11.3137248 C26.4108788,7.76807562 24.297728,6.10248259 20.543701,6.35515353 L19.5747899,6.42100926 L19.5747899,18.4693429 L20.805543,18.2385598 C24.8288931,17.485155 27.1879643,14.7672144 26.8208101,11.3137248 L26.8208101,11.3137248 Z M9.94783038,13.3990281 C9.94783038,13.3990281 8.69520922,21.0857159 2.66977531,18.3896632 C-0.956687641,16.762278 -1.32998026,10.4370565 4.32369563,4.88597567 C12.7227795,-3.30682207 33.5191682,-1.30599843 32.6923999,11.7178831 C32.2402669,19.1365401 26.8267567,22.0998557 19.3877599,24.7951404 L19.3877599,38.4856432 C19.3877599,42.6487618 15.0952785,45.5314377 11.5491905,44.9176163 C7.76312863,44.2496511 7.65628177,39.7393979 12.188737,34.9626499 L12.188737,7.60775629 C8.69520922,9.04832627 6.40327695,13.4794757 9.94783038,13.3990281 L9.94783038,13.3990281 Z" id="philadelphia-phillies"></path>
                    </g>
                </g>
            </g>
        </g>
    </g>
</svg>