<?xml version="1.0" encoding="UTF-8"?>
<svg width="32px" height="45px" viewBox="0 0 32 45" version="1.1" xmlns="http://www.w3.org/2000/svg" xmlns:xlink="http://www.w3.org/1999/xlink">
    <!-- Generator: Sketch 42 (36781) - http://www.bohemiancoding.com/sketch -->
    <title>pittsburgh-pirates</title>
    <desc>Created with Sketch.</desc>
    <defs></defs>
    <g id="Spritesheet" stroke="none" stroke-width="1" fill="none" fill-rule="evenodd">
        <g id="Artboard" transform="translate(-719.000000, -4680.000000)" fill="#000000">
            <g id="P" transform="translate(47.000000, 4629.000000)">
                <g id="Group-41" transform="translate(672.000000, 51.000000)">
                    <g id="Sprites/P/Pittsburgh-Pirates">
                        <path d="M21.3810673,20.689375 L8.48211554,20.689375 L8.48211554,7.23770833 L21.3810673,7.23770833 C23.4221368,7.23770833 24.6984818,8.52770833 24.6984818,10.2283333 L24.6984818,17.9229167 C24.6982736,19.7164583 23.6885624,20.689375 21.3810673,20.689375 L21.3810673,20.689375 Z M29.981201,14.9364583 C29.981201,12.6395833 30.3065316,10.1564583 31.7439807,7.681875 C27.9442944,6.74270833 25.0240205,3.16395833 24.077169,0 C22.504842,1.53979167 20.9626959,1.89520833 18.5240695,1.89520833 L2.22735929,1.87395833 L1.77635684e-15,7.43229167 C1.3483631,8.00333333 2.22735929,9.276875 2.22735929,10.80375 L2.22735929,36.2395833 C2.22735929,37.770625 1.34815495,39.0397917 1.77635684e-15,39.6191667 L2.22735929,45 L8.44402502,45 L10.6674296,39.6191667 C9.3276004,39.0608333 8.44402502,37.7454167 8.44402502,36.2395833 L8.44402502,26.2139583 L18.5240695,26.2183333 C20.9626959,26.2183333 22.504842,26.823125 24.077169,28.363125 C25.1083192,25.1989583 28.193652,22.8385417 31.9848045,21.8952083 C30.5475635,19.4245833 29.981201,17.225 29.981201,14.9364583 L29.981201,14.9364583 Z" id="pittsburgh-pirates"></path>
                    </g>
                </g>
            </g>
        </g>
    </g>
</svg>