<?xml version="1.0" encoding="UTF-8"?>
<svg width="40px" height="45px" viewBox="0 0 40 45" version="1.1" xmlns="http://www.w3.org/2000/svg" xmlns:xlink="http://www.w3.org/1999/xlink">
    <!-- Generator: Sketch 42 (36781) - http://www.bohemiancoding.com/sketch -->
    <title>texas-rangers-color</title>
    <desc>Created with Sketch.</desc>
    <defs></defs>
    <g id="Spritesheet" stroke="none" stroke-width="1" fill="none" fill-rule="evenodd">
        <g id="Artboard" transform="translate(-495.000000, -5920.000000)">
            <g id="T" transform="translate(47.000000, 5869.000000)">
                <g id="Group-25" transform="translate(448.000000, 51.000000)">
                    <g id="Sprites/T/Texas-Rangers-(Color)">
                        <g id="texas-rangers">
                            <g id="Group">
                                <path d="M13.5873702,6.71377119 C8.00744283,7.26959746 7.49205851,10.5841525 7.49205851,15.8415254 L7.48614333,16.7834746 L2.78109089,16.7834746 L0.0879645216,14.2609958 L5.08247938,14.2609958 L5.08992107,13.0913771 C5.09717194,7.95680085 7.53422806,5.88527542 13.507229,5.88527542 L13.5873702,5.88527542 L13.5873702,6.71377119 Z M27.0066346,19.0779025 C27.855559,19.7141949 28.7409286,20.0650424 28.7409286,20.0650424 C28.7409286,20.0650424 25.4856689,20.9654237 25.4856689,23.3141949 L25.4856689,34.8017797 C25.4883403,34.880339 25.4856689,34.9558475 25.4826159,35.0284958 L24.6703275,35.0284958 C23.1096727,35.0284958 22.7864365,34.5079449 22.7864365,33.728072 L22.7864365,22.2383898 C22.7864365,20.2883263 25.6574001,19.4583051 25.6864035,19.4502966 L27.0066346,19.0779025 Z M22.7864365,5.91521186 C26.0634489,5.92302966 28.4625333,6.73722458 29.9518242,8.22603814 C29.0317267,7.53063559 27.7391635,7.05622881 25.9468625,6.90349576 L25.4854781,6.87432203 L25.4854781,16.6374153 C25.4854781,17.6375212 26.1813709,18.4332203 26.9284015,19.0123093 L25.7316261,18.5445763 C25.702241,18.5329449 22.7864365,17.3736229 22.7864365,15.5602754 L22.7864365,5.91521186 Z M36.6514388,0.158834746 L39.2193922,2.55622881 L39.2193922,16.9444068 L35.4838576,16.9444068 L32.6480036,14.2611864 L36.6514388,14.2611864 L36.6514388,0.158834746 Z M27.6166619,42.057839 L27.6166619,35.982839 L29.8907642,38.1008898 L29.8907642,44.8495551 L12.6716614,44.8495551 L9.7165496,42.057839 L27.6166619,42.057839 Z" id="Combined-Shape" fill="#CE1141"></path>
                                <path d="M4.14082013,13.0339831 C4.14082013,7.42881356 7.03200979,4.92978814 13.507229,4.92978814 L14.543722,4.92978814 L14.543722,15.5602754 C14.543722,17.3837288 13.2219644,18.4204449 12.2741992,18.9644492 C13.2292153,19.4531568 14.543722,20.4162712 14.543722,22.2383898 L14.543722,33.6233898 C14.543722,35.1013347 13.5247837,35.982839 11.8185391,35.982839 L9.71635879,35.982839 L9.71635879,41.1034958 L26.6570663,41.1034958 L26.6570663,35.982839 L24.6701366,35.982839 C22.7862457,35.982839 21.8314204,35.2264195 21.8314204,33.728072 L21.8314204,22.2383898 C21.8314204,20.4345763 23.365743,19.4436229 24.4314303,18.9448093 C23.3773826,18.3563771 21.8314204,17.2390042 21.8314204,15.5602754 L21.8314204,4.90347458 L22.3351652,4.93112288 C22.3351652,4.93112288 22.7906344,4.95591102 22.7646839,4.95591102 C29.0462285,4.95591102 32.6508657,7.79338983 32.6508657,12.7424364 C32.6508657,12.7424364 32.6478127,13.0261653 32.6451414,13.3068432 L35.6947053,13.3068432 L35.6947053,0.158644068 L0.0879645216,0.158644068 L0.0879645216,13.3068432 L4.17287662,13.3068432" id="Shape" fill="#004685"></path>
                            </g>
                        </g>
                    </g>
                </g>
            </g>
        </g>
    </g>
</svg>