<?xml version="1.0" encoding="UTF-8"?>
<svg width="57px" height="45px" viewBox="0 0 57 45" version="1.1" xmlns="http://www.w3.org/2000/svg" xmlns:xlink="http://www.w3.org/1999/xlink">
    <!-- Generator: Sketch 42 (36781) - http://www.bohemiancoding.com/sketch -->
    <title>toronto-blue-jays</title>
    <desc>Created with Sketch.</desc>
    <defs></defs>
    <g id="Spritesheet" stroke="none" stroke-width="1" fill="none" fill-rule="evenodd">
        <g id="Artboard" transform="translate(-47.000000, -6022.000000)" fill="#000000">
            <g id="T" transform="translate(47.000000, 5869.000000)">
                <g id="Group-29" transform="translate(0.000000, 153.000000)">
                    <g id="Sprites/T/Toronto-Blue-Jays">
                        <g>
                            <path d="M32.8681677,6.29720497 L32.8681677,6.29720497 C33.4928571,6.15326087 34.1161491,6.00232919 34.736646,5.84301242 C35.3375776,5.68928571 35.9371118,5.52857143 36.5338509,5.36086957 C37.2018634,5.17360248 37.8684783,4.98074534 38.5267081,4.7613354 C39.4392857,4.45667702 40.3322981,4.09332298 41.2085404,3.69642857 C41.9506211,3.36102484 42.6815217,3.00046584 43.3830745,2.58819876 C43.967236,2.24580745 44.5318323,1.86428571 45.0307453,1.40729814 C45.4444099,1.02717391 45.8119565,0.59673913 46.1194099,0.127173913 C46.1641304,0.452795031 46.173913,0.782608696 46.1473602,1.10962733 C46.1263975,1.37096273 46.081677,1.62950311 46.0299689,1.88524845 C45.9726708,2.17034161 45.9041925,2.45263975 45.8259317,2.73214286 L47.4177019,2.03059006 C48.1108696,1.72453416 48.8389752,1.46878882 49.5950311,1.43804348 L49.2582298,1.73850932 C49.0192547,2.00822981 48.7900621,2.28493789 48.5720497,2.57142857 C48.3470497,2.86490683 48.1332298,3.1681677 47.9291925,3.47701863 C47.607764,3.96335404 47.3100932,4.46645963 47.0389752,4.98214286 L46.439441,6.31118012 L46.848913,5.98975155 C47.0850932,5.84860248 47.3240683,5.71304348 47.564441,5.5802795 C47.8048137,5.44751553 48.0493789,5.32034161 48.3093168,5.22950311 C48.5217391,5.15543478 48.7439441,5.10652174 48.9675466,5.08416149 C49.1659938,5.06459627 49.367236,5.06459627 49.5656832,5.08416149 C49.4496894,5.18198758 49.3420807,5.28959627 49.2442547,5.40559006 C49.0486025,5.63897516 48.8948758,5.90729814 48.7914596,6.19378882 C48.6237578,6.55993789 48.4770186,6.93586957 48.3526398,7.31878882 C48.1793478,7.85124224 48.0507764,8.39767081 47.9152174,8.94130435 C47.7852484,9.46397516 47.6482919,9.98524845 47.5057453,10.5037267 L45.3871118,7.01273292 L42.8743789,11.1032609 L40.4790373,10.1543478 L41.0184783,15.5878882 L38.3170807,13.0164596 L37.4981366,14.9743789 L34.1049689,14.4419255 L34.1049689,15.0847826 C33.5990683,15.034472 33.0945652,14.9785714 32.5900621,14.9156832 C31.9234472,14.8332298 31.2582298,14.7381988 30.602795,14.5956522 C30.0423913,14.4740683 29.4889752,14.3175466 28.938354,14.1568323 C28.3555901,13.9863354 27.7756211,13.8088509 27.1998447,13.6159938 C26.6268634,13.4231366 26.059472,13.2149068 25.4864907,13.0234472 C25.0895963,12.8906832 24.6899068,12.7677019 24.2888199,12.6517081 C24.7346273,12.5860248 25.1832298,12.5371118 25.6332298,12.5021739 C26.0189441,12.4728261 26.4060559,12.4546584 26.7931677,12.4588509 C27.2599379,12.4588509 27.7253106,12.5007764 28.1864907,12.5692547 C27.5715839,12.3484472 26.9440994,12.1639752 26.3082298,12.0158385 C25.6779503,11.8690994 25.0392857,11.7586957 24.3978261,11.6762422 C23.8639752,11.607764 23.3259317,11.5602484 22.7878882,11.5406832 C22.3057453,11.523913 21.8236025,11.5267081 21.3414596,11.5560559 C20.8802795,11.5812112 20.4190994,11.6231366 19.9677019,11.7167702 C19.5568323,11.8020186 19.1557453,11.9319876 18.7700311,12.0968944 C18.5436335,12.193323 18.3228261,12.3037267 18.1090062,12.4253106 C17.5290373,12.6824534 17.0790373,13.2163043 16.923913,13.8326087 C16.8107143,14.2812112 16.8526398,14.7675466 17.0385093,15.1909938 C16.6276398,15.2049689 16.2153727,15.0847826 15.8729814,14.8569876 C15.6200311,14.6892857 15.4076087,14.4642857 15.2273292,14.2197205 C15.0624224,13.996118 14.9226708,13.7529503 14.8248447,13.4930124 C14.668323,13.0751553 14.627795,12.6069876 14.763354,12.1821429 C14.8486025,11.9138199 15.0009317,11.6706522 15.1798137,11.4526398 C15.3572981,11.2346273 15.5613354,11.0389752 15.7625776,10.843323 C16.1706522,10.4464286 16.5717391,10.0425466 17.0231366,9.69596273 C17.5919255,9.25854037 18.2305901,8.9189441 18.8930124,8.64223602 C19.7748447,8.27468944 20.7013975,8.01475155 21.646118,7.87360248 C22.8591615,7.6765528 24.077795,7.50326087 25.2978261,7.35512422 C26.460559,7.21397516 27.626087,7.09378882 28.7874224,6.94565217 C30.1611801,6.77096273 31.5307453,6.55714286 32.893323,6.30419255" id="path3086"></path>
                            <path d="M13.8214286,12.510559 C13.8214286,12.510559 13.2582298,12.7313665 13.0122671,12.8906832 C12.7663043,13.05 12.5371118,13.2540373 12.3498447,13.4524845 C12.1611801,13.6509317 12.0298137,13.8829193 11.9305901,14.039441 C11.8313665,14.1959627 11.6930124,14.486646 11.5001553,14.6040373 C11.3086957,14.7214286 10.3541925,14.8360248 9.6568323,14.9562112 C8.96086957,15.0736025 8.07065217,15.2413043 7.39285714,15.3852484 C6.71785714,15.5291925 6.17701863,15.6507764 5.59704969,15.8003106 C5.01708075,15.9512422 4.42313665,16.0923913 3.87810559,16.2517081 C3.33586957,16.4096273 2.76987578,16.5940994 2.33524845,16.7464286 C1.90201863,16.8987578 1.61273292,17.010559 1.3318323,17.140528 C1.05232919,17.2718944 0.87484472,17.3892857 0.719720497,17.4857143 C0.564596273,17.5821429 0.434627329,17.6911491 0.317236025,17.818323 C0.201242236,17.9468944 0.132763975,18.1299689 0.132763975,18.1299689 L14.665528,18.1746894 C14.665528,18.1746894 14.8024845,17.9804348 14.8849379,17.8923913 C14.9673913,17.8057453 15.0414596,17.7330745 15.2315217,17.6296584 C15.4201863,17.5262422 15.6563665,17.4451863 15.8995342,17.3864907 C16.1427019,17.3291925 16.3774845,17.3180124 16.6164596,17.3138199 C16.8554348,17.3138199 17.102795,17.2998447 17.3864907,17.3725155 C17.6715839,17.4409938 17.9664596,17.5583851 18.1984472,17.6841615 C18.4290373,17.8099379 18.6302795,17.9650621 18.7923913,18.092236 C18.9531056,18.222205 19.0900621,18.3913043 19.2507764,18.5226708 C19.4114907,18.6540373 19.5568323,18.7784161 19.7454969,18.9097826 C19.935559,19.0411491 20.1619565,19.2074534 20.3869565,19.3080745 C20.6119565,19.4100932 20.8131988,19.4701863 21.0465839,19.5149068 C21.2799689,19.5582298 21.5175466,19.5736025 21.784472,19.5708075 C22.0513975,19.5708075 22.3854037,19.5232919 22.6579193,19.4408385 C22.9290373,19.3583851 23.1791925,19.2214286 23.4,19.0900621 C23.6208075,18.9600932 23.809472,18.8091615 23.982764,18.6680124 C24.1574534,18.5268634 24.2860248,18.3899068 24.4481366,18.2473602 C24.6102484,18.1048137 24.7639752,17.9371118 24.9568323,17.8099379 C25.1496894,17.6813665 25.3704969,17.5821429 25.5787267,17.5080745 C25.7869565,17.4340062 25.9700311,17.3836957 26.1950311,17.3585404 C26.4200311,17.3347826 34.1776398,17.3445652 34.1776398,17.3445652 L34.1468944,16.1608696 C34.1468944,16.1608696 27.3843168,16.1748447 26.2397516,16.1608696 C26.0119565,16.1413043 25.8386646,16.0979814 25.6793478,16.0490683 C25.5200311,16.0001553 25.471118,15.9596273 25.2880435,15.8618012 C25.1049689,15.7625776 24.9093168,15.6340062 24.7052795,15.4774845 C24.5012422,15.3209627 24.2706522,15.0931677 24.0708075,14.9198758 C23.8695652,14.7451863 23.6990683,14.5732919 23.5034161,14.4349379 C23.3063665,14.2965839 23.1149068,14.1805901 22.8996894,14.0911491 C22.6830745,14.0017081 22.451087,13.9360248 22.2163043,13.903882 C21.9815217,13.8731366 21.7411491,13.8829193 21.5035714,13.903882 C21.2645963,13.9262422 21.0465839,13.95 20.7908385,14.036646 C20.6161491,14.0967391 20.3771739,14.2113354 20.2318323,14.3021739 C19.978882,14.4628882 19.7818323,14.6417702 19.5428571,14.8220497 C19.3248447,14.988354 19.1166149,15.1770186 18.902795,15.3363354 C18.6638199,15.5152174 18.4639752,15.6773292 18.184472,15.836646 C17.9846273,15.9498447 17.6869565,16.110559 17.4591615,16.1427019 C17.1712733,16.1818323 17.0245342,16.1846273 16.8037267,16.1678571 C16.5857143,16.1524845 16.4194099,16.1217391 16.1958075,16.0490683 C15.972205,15.977795 15.7444099,15.8785714 15.5180124,15.7346273 C15.2930124,15.5906832 15.072205,15.3978261 14.8625776,15.1798137 C14.6543478,14.9618012 14.4363354,14.7032609 14.2770186,14.4237578 C14.1163043,14.1442547 13.9681677,13.7809006 13.8857143,13.459472 C13.8032609,13.1380435 13.8214286,12.507764 13.8214286,12.507764 L13.8214286,12.510559 Z M20.8439441,14.8667702 L20.8439441,16.381677 L20.0403727,16.381677 C20.0403727,16.381677 20.0767081,15.9680124 20.1354037,15.7709627 C20.1787267,15.6256211 20.2402174,15.4802795 20.3212733,15.3517081 C20.3967391,15.2301242 20.4917702,15.121118 20.5979814,15.026087 C20.6720497,14.9604037 20.8439441,14.8625776 20.8439441,14.8625776 L20.8439441,14.8667702 Z" id="path3003"></path>
                            <path d="M38.5868012,14.3930124 L40.9430124,16.6136646 C41.1386646,16.7604037 41.4167702,16.9141304 41.6110248,16.8177019 C41.7423913,16.7338509 41.8597826,16.5535714 41.8248447,16.3299689 C41.6864907,14.8150621 41.3468944,11.3059006 41.3468944,11.3059006 L43.1245342,12.0535714 L45.4388199,8.49968944 L47.6371118,12.0773292 L49.3909938,11.3757764 C49.3909938,11.3757764 49.1128882,14.7507764 49.003882,16.3257764 C49.0178571,16.5186335 49.047205,16.6416149 49.228882,16.7450311 C49.4832298,16.8414596 49.5782609,16.7450311 49.8549689,16.5940994 C50.8024845,15.8254658 51.4341615,15.1406832 52.240528,14.2784161 L52.8330745,15.8785714 L55.9118012,15.3978261 L55.7035714,18.7658385 L56.7572981,19.2102484 L50.2322981,24.8687888 L51.259472,26.2104037 L45.9768634,25.7799689 L45.4150621,26.6687888 L44.9007764,25.8274845 L39.4756211,26.1782609 L40.5740683,24.9386646 L33.9568323,19.1389752 L35.1041925,18.8119565 L34.8931677,15.3517081 L38.0026398,15.842236 L38.5868012,14.3930124 Z" id="path4003"></path>
                            <path d="M0.145341615,18.5254658 L4.58944099,18.6819876 L8.21459627,18.9349379 L11.4302795,19.2968944 L13.6341615,19.621118 C13.6341615,19.621118 13.6201863,19.9257764 13.6690994,20.1395963 C13.7138199,20.3534161 13.8074534,20.6524845 13.9346273,20.8858696 C14.0618012,21.1192547 14.2420807,21.3302795 14.4279503,21.5245342 C14.6138199,21.7173913 14.7717391,21.8445652 15.0428571,22.0416149 C15.3125776,22.2386646 15.6982919,22.4818323 16.0658385,22.6802795 C16.4333851,22.8787267 16.8358696,23.0352484 17.2467391,23.2225155 C17.6576087,23.4097826 18.1453416,23.627795 18.5352484,23.801087 C18.9251553,23.9729814 19.1180124,24.031677 19.5833851,24.2580745 C20.0473602,24.484472 20.7978261,24.885559 21.3051242,25.1846273 C21.8124224,25.4850932 22.2079193,25.7450311 22.6299689,26.0413043 C23.0506211,26.3361801 23.3846273,26.5849379 23.8346273,26.9552795 C24.2832298,27.3270186 24.8003106,27.8007764 25.3159938,28.2815217 C25.8302795,28.759472 26.3864907,29.2486025 26.9175466,29.8341615 C27.4486025,30.4197205 28.0076087,31.1352484 28.482764,31.7976708 C28.9579193,32.4600932 29.4274845,33.2007764 29.7712733,33.796118 C30.1136646,34.3914596 30.3763975,34.9420807 30.5664596,35.3501553 C30.7565217,35.7582298 30.9395963,36.2291925 30.9395963,36.2291925 C30.9395963,36.2291925 31.361646,35.6128882 31.6159938,35.2006211 C31.8689441,34.788354 32.2728261,34.2796584 32.5607143,33.7709627 C32.85,33.2608696 33.2902174,32.6934783 33.6647516,32.2029503 C34.0406832,31.7124224 34.514441,31.1631988 34.8694099,30.7341615 C35.2243789,30.3051242 35.4913043,29.9697205 35.7959627,29.6259317 C36.1020186,29.2807453 36.5869565,28.7748447 36.5869565,28.7748447 L33.9624224,28.7496894 C33.9624224,28.7496894 34.3607143,27.8986025 34.606677,27.3815217 C34.8526398,26.8630435 35.1642857,26.1950311 35.4437888,25.6947205 C35.7246894,25.1930124 35.9734472,24.8114907 36.2543478,24.3572981 C36.5352484,23.9031056 37.1417702,22.9332298 37.1417702,22.9332298 L39.513354,25.0532609 L37.8279503,27.1131988 C37.8279503,27.1131988 38.6832298,27.0684783 39.3596273,27.0377329 C40.0374224,27.0083851 40.9709627,26.9371118 41.6138199,26.8909938 C42.0428571,26.861646 43.2237578,26.7149068 43.2237578,26.7149068 C43.2237578,26.7149068 42.1476708,27.6512422 41.5369565,28.2200311 C40.9262422,28.7902174 40.0639752,29.5322981 39.5692547,30.1360248 C39.0493789,30.7690994 38.7349379,31.0304348 38.1647516,31.6886646 C37.5945652,32.3468944 36.7881988,33.3013975 36.1663043,34.0979814 C35.5444099,34.8931677 35.0007764,35.6506211 34.4319876,36.4583851 C33.8631988,37.2647516 33.3139752,38.0781056 32.757764,38.9389752 C32.2015528,39.7998447 31.6858696,40.6201863 31.096118,41.625 C30.5049689,42.6298137 29.2290373,44.9720497 29.2290373,44.9720497 C29.2290373,44.9720497 28.6141304,43.3663043 28.3024845,42.5403727 C27.989441,41.714441 27.718323,40.8521739 27.3535714,40.0136646 C26.9888199,39.1751553 26.5318323,38.3352484 26.1097826,37.5177019 C25.6877329,36.7001553 25.2419255,35.8574534 24.8212733,35.1097826 C24.4006211,34.3607143 24.1071429,33.8450311 23.5928571,33.026087 C23.0785714,32.2057453 22.3309006,31.05 21.7145963,30.2072981 C21.0982919,29.3659938 20.4428571,28.575 19.9201863,27.9670807 C19.3975155,27.360559 19.0872671,27.0139752 18.6079193,26.547205 C18.1285714,26.0790373 17.5667702,25.5899068 17.0427019,25.1734472 C16.517236,24.7569876 15.9903727,24.3656832 15.4635093,24.0414596 C14.9380435,23.717236 14.3790373,23.4265528 13.8982919,23.2225155 C13.4175466,23.0184783 13.0206522,22.9206522 12.648913,22.8060559 C12.2771739,22.6914596 11.9976708,22.6369565 11.6357143,22.5586957 C11.2751553,22.4790373 10.7496894,22.367236 10.1906832,22.2554348 C9.63307453,22.142236 9.1886646,22.0360248 8.33478261,21.8138199 C7.48090062,21.5902174 6.14767081,21.2380435 5.31195652,20.9822981 C4.47624224,20.7265528 3.89627329,20.5253106 3.3121118,20.3072981 C2.72934783,20.0906832 2.19689441,19.8656832 1.80698758,19.6937888 C1.41708075,19.5218944 0.964285714,19.2968944 0.964285714,19.2968944 C0.964285714,19.2968944 0.468167702,18.9908385 0.338198758,18.851087 C0.208229814,18.7099379 0.145341615,18.5254658 0.145341615,18.5254658 L0.145341615,18.5254658 Z" id="path4005"></path>
                        </g>
                    </g>
                </g>
            </g>
        </g>
    </g>
</svg>