<?xml version="1.0" encoding="UTF-8"?>
<svg width="46px" height="45px" viewBox="0 0 46 45" version="1.1" xmlns="http://www.w3.org/2000/svg" xmlns:xlink="http://www.w3.org/1999/xlink">
    <!-- Generator: Sketch 42 (36781) - http://www.bohemiancoding.com/sketch -->
    <title>washington-nationals</title>
    <desc>Created with Sketch.</desc>
    <defs></defs>
    <g id="Spritesheet" stroke="none" stroke-width="1" fill="none" fill-rule="evenodd">
        <g id="Artboard" transform="translate(-271.000000, -6571.000000)" fill="#000000">
            <g id="W" transform="translate(47.000000, 6520.000000)">
                <g id="Group-6-Copy" transform="translate(224.000000, 51.000000)">
                    <g id="Sprites/W/Washington-Nationals">
                        <path d="M40.979514,1.24950527 C36.7978254,-2.10206872 33.0059724,2.08731497 33.0059724,4.484872 C37.1833071,5.37676277 40.9214629,9.5662582 39.2512658,20.4424762 C37.8837159,29.3402654 32.6411435,34.8778769 29.3464088,34.9898381 C32.0774897,31.2400307 33.9174862,27.0129914 34.9123927,22.8818231 C37.9126298,10.5287672 33.1135902,6.54665708 29.3174949,6.36396585 C24.7048886,6.12775223 20.079779,12.420264 18.7909329,19.8452379 C17.771578,25.7272251 17.9040908,31.7377107 21.4764661,36.143307 C18.3100019,40.133574 10.7176997,41.369617 12.0480746,31.741845 C13.1671212,23.690581 17.1620415,14.8051946 19.3792585,10.4418353 L19.4456824,10.325628 C20.6310411,7.88661625 21.5759344,6.1608266 21.9778266,5.47241029 L21.0826117,5.46011914 C12.4500785,5.60940078 5.56633458,7.60861271 2.37117981,11.9887327 C-0.63341107,16.0914079 -0.720487718,20.4135361 1.75773599,22.9646208 L2.12245318,23.3336906 C2.85188756,24.0596508 3.80091138,24.4372127 4.7499352,24.4372127 L4.75406576,24.4372127 C5.61199401,24.4372127 6.47405281,24.1220005 7.12880222,23.4665468 C7.78779382,22.8153391 8.11098215,21.9400973 8.11098215,21.0775936 C8.11098215,20.1273757 7.72974272,19.1776048 7.00455054,18.4515328 C6.61080781,18.0700601 6.17151728,17.7797654 5.70331285,17.5930516 L5.71146233,17.5677989 L5.93529397,17.1077746 C6.51948896,16.0914079 7.53493663,15.1623085 8.85291984,14.5026088 C9.89292759,13.9842573 11.1073119,13.6233444 12.4294257,13.4904882 L12.2263585,13.9259302 C10.394623,17.3315853 7.71735105,23.8069 6.86779555,27.1747877 C4.23607134,37.7317709 8.49646377,43.9084106 13.1050511,44.7750486 C18.6542896,45.8120867 22.9064209,43.1201007 25.1565708,39.6440509 C27.838085,41.3489455 34.9247844,42.3279918 40.2543218,32.8289416 C46.383513,21.8943966 46.6074563,5.7666158 40.979514,1.24950527 M25.2933258,32.5092599 C24.2448336,29.9458841 23.7639026,26.9299703 23.7639026,24.0636734 C23.7639026,20.6043842 24.4560503,17.3894655 25.6496702,15.4979687 C26.4287829,14.2535453 27.3696573,13.6521727 28.4181494,13.7226792 C28.7952583,13.7434625 29.2180266,13.8719609 29.524581,14.5979211 C29.7690654,15.1828682 29.8769065,15.9624626 29.8769065,16.8629571 C29.8769065,21.3717991 27.1832239,29.066061 25.2933258,32.5092599" id="washington-nationals"></path>
                    </g>
                </g>
            </g>
        </g>
    </g>
</svg>