<?xml version="1.0" encoding="UTF-8"?>
<svg width="33px" height="47px" viewBox="0 0 33 47" version="1.1" xmlns="http://www.w3.org/2000/svg" xmlns:xlink="http://www.w3.org/1999/xlink">
    <!-- Generator: Sketch 42 (36781) - http://www.bohemiancoding.com/sketch -->
    <title>chicago-white-sox-color</title>
    <desc>Created with Sketch.</desc>
    <defs></defs>
    <g id="Spritesheet" stroke="none" stroke-width="1" fill="none" fill-rule="evenodd">
        <g id="Artboard" transform="translate(-494.000000, -688.000000)">
            <g id="C" transform="translate(47.000000, 638.000000)">
                <g id="Group-16" transform="translate(448.000000, 51.000000)">
                    <g id="Sprites/C/Chicago-White-Sox-(Color)">
                        <g id="Group">
                            <g>
                                <path d="M30.0756518,41.9721154 C30.0756518,42.1230769 29.947284,42.2330769 29.7515229,42.4328846 C29.5110219,42.6792308 27.7350145,44.1025 26.8983579,44.7246154 C26.0615125,45.3453846 25.8312054,44.3432692 25.661118,44.0730769 C25.2996114,43.5007692 22.8009682,39.5746154 22.8009682,39.5746154 C22.8009682,39.5746154 19.3399435,44.1067308 19.0735801,44.4559615 C18.808727,44.8065385 18.331878,44.8638462 17.8184065,44.3415385 C17.3128635,43.8278846 15.4354832,42.0263462 15.4354832,42.0263462 C15.4354832,42.0263462 15.4326516,38.6444231 15.4311413,37.88 C15.4311413,37.1419231 15.8755208,36.8807692 16.4012628,37.3751923 L18.1921836,38.9992308 L20.6738368,35.9021154 L20.1307274,34.9823077 L18.0253053,36.6225 L10.8374588,32.1711538 C10.7143766,32.1607692 10.6373559,31.8498077 10.7806371,31.7046154 C10.9418521,31.5388462 11.5417832,30.9946154 11.5417832,30.9946154 L11.5381964,28.2596154 C11.3294098,28.1246154 10.2628237,27.4965385 9.95757244,27.4965385 C9.82939333,27.3644231 7.6747006,26.9653846 5.84772354,27.2384615 C3.94429208,27.5201923 2.44729599,28.4473077 1.52550131,29.0446154 C0.0802299288,29.9571154 -0.122893373,29.1721154 0.249373496,27.9632692 C0.533859385,27.0359615 1.48019499,25.83 2.53658719,24.8880769 C3.67585217,23.8698077 5.28460383,23.0673077 7.02077949,22.6476923 C7.69697621,22.4848077 9.83788826,22.2501923 11.0951384,22.7138462 L13.7717976,20.7330769 C13.7717976,20.4013462 12.3597509,19.7411538 12.0760201,19.6238462 C11.8030496,19.5094231 9.2640083,18.3532692 7.42985774,17.4890385 C5.59061022,16.6203846 4.06246604,14.9184615 3.49066262,14.0338462 C2.95057362,13.1990385 2.34630067,11.3459615 2.59133231,8.74019231 C2.73687884,7.19076923 3.81195989,4.855 4.82587741,3.75461538 C6.65134426,1.74903846 8.48398462,0.162884615 11.9867289,0.16 C14.8427256,0.157115385 18.2699594,1.99538462 19.033182,2.14961538 C19.7935729,2.30519231 19.8887162,2.30519231 20.6117294,1.56557692 L23.3740931,3.44365385 L19.2867086,8.80173077 L16.9723111,7.19365385 L16.9902448,6.92653846 C16.9887346,5.35230769 15.4039576,4.68769231 14.5612601,4.4 C13.3802756,3.99807692 12.6946401,3.95403846 11.7815291,3.95692308 C10.3910028,3.95692308 9.60890261,5.06903846 9.58794844,5.66903846 C9.55547891,6.58019231 10.0517718,7.35480769 11.6329621,8.17057692 L13.7472567,9.23288462 C13.7472567,9.23288462 19.7214604,12.3140385 20.6432551,13.0151923 C21.4238451,13.6080769 22.0460518,13.9821154 22.8468409,15.26 C23.5424815,15.9686538 23.8088449,18.7842308 23.8088449,18.7842308 C23.8088449,18.7842308 23.7714672,20.2190385 23.2400619,21.8492308 L23.8305542,21.8478846 C25.3528463,21.8463462 24.5922666,22.8953846 24.4410567,23.0303846 C24.0363203,23.3913462 23.8218705,23.6730769 23.8218705,23.6730769 L23.829044,29.6253846 C23.829044,29.6253846 24.7334712,29.8953846 24.9898295,30.2548077 C24.9898295,30.2548077 27.8039178,26.6865385 27.9653215,26.4253846 C28.1295569,26.1598077 28.5356148,25.9969231 28.8410548,26.3463462 C29.1464949,26.6953846 30.8617164,28.4738462 30.8617164,28.4738462 L30.8647368,31.7838462 C30.8647368,31.7838462 30.9238238,33.0119231 30.0394068,32.4146154 L29.0183158,31.5988462 L25.4393058,36.2028846 L27.2166347,39.0844231 L29.3854857,37.4117308 C29.8349621,36.9686538 30.0711212,37.3736538 30.0711212,37.6055769" id="Shape" fill="#000000"></path>
                                <path d="M30.0756518,41.9721154 C30.0756518,42.1230769 29.947284,42.2330769 29.7515229,42.4328846 C29.5110219,42.6792308 27.7350145,44.1025 26.8983579,44.7246154 C26.0615125,45.3453846 25.8312054,44.3432692 25.661118,44.0730769 C25.2996114,43.5007692 22.8009682,39.5746154 22.8009682,39.5746154 C22.8009682,39.5746154 19.3399435,44.1067308 19.0735801,44.4559615 C18.808727,44.8065385 18.331878,44.8638462 17.8184065,44.3415385 C17.3128635,43.8278846 15.4354832,42.0263462 15.4354832,42.0263462 C15.4354832,42.0263462 15.4326516,38.6444231 15.4311413,37.88 C15.4311413,37.1419231 15.8755208,36.8807692 16.4012628,37.3751923 L18.1921836,38.9992308 L20.6738368,35.9021154 L20.1307274,34.9823077 L18.0253053,36.6225 L10.8374588,32.1711538 C10.7143766,32.1607692 10.6373559,31.8498077 10.7806371,31.7046154 C10.9418521,31.5388462 11.5417832,30.9946154 11.5417832,30.9946154 L11.5381964,28.2596154 C11.3294098,28.1246154 10.2628237,27.4965385 9.95757244,27.4965385 C9.82939333,27.3644231 7.6747006,26.9653846 5.84772354,27.2384615 C3.94429208,27.5201923 2.44729599,28.4473077 1.52550131,29.0446154 C0.0802299288,29.9571154 -0.122893373,29.1721154 0.249373496,27.9632692 C0.533859385,27.0359615 1.48019499,25.83 2.53658719,24.8880769 C3.67585217,23.8698077 5.28460383,23.0673077 7.02077949,22.6476923 C7.69697621,22.4848077 9.83788826,22.2501923 11.0951384,22.7138462 L13.7717976,20.7330769 C13.7717976,20.4013462 12.3597509,19.7411538 12.0760201,19.6238462 C11.8030496,19.5094231 9.2640083,18.3532692 7.42985774,17.4890385 C5.59061022,16.6203846 4.06246604,14.9184615 3.49066262,14.0338462 C2.95057362,13.1990385 2.34630067,11.3459615 2.59133231,8.74019231 C2.73687884,7.19076923 3.81195989,4.855 4.82587741,3.75461538 C6.65134426,1.74903846 8.48398462,0.162884615 11.9867289,0.16 C14.8427256,0.157115385 18.2699594,1.99538462 19.033182,2.14961538 C19.7935729,2.30519231 19.8887162,2.30519231 20.6117294,1.56557692 L23.3740931,3.44365385 L19.2867086,8.80173077 L16.9723111,7.19365385 L16.9902448,6.92653846 C16.9887346,5.35230769 15.4039576,4.68769231 14.5612601,4.4 C13.3802756,3.99807692 12.6946401,3.95403846 11.7815291,3.95692308 C10.3910028,3.95692308 9.60890261,5.06903846 9.58794844,5.66903846 C9.55547891,6.58019231 10.0517718,7.35480769 11.6329621,8.17057692 L13.7472567,9.23288462 C13.7472567,9.23288462 19.7214604,12.3140385 20.6432551,13.0151923 C21.4238451,13.6080769 22.0460518,13.9821154 22.8468409,15.26 C23.5424815,15.9686538 23.8088449,18.7842308 23.8088449,18.7842308 C23.8088449,18.7842308 23.7714672,20.2190385 23.2400619,21.8492308 L23.8305542,21.8478846 C25.3528463,21.8463462 24.5922666,22.8953846 24.4410567,23.0303846 C24.0363203,23.3913462 23.8218705,23.6730769 23.8218705,23.6730769 L23.829044,29.6253846 C23.829044,29.6253846 24.7334712,29.8953846 24.9898295,30.2548077 C24.9898295,30.2548077 27.8039178,26.6865385 27.9653215,26.4253846 C28.1295569,26.1598077 28.5356148,25.9969231 28.8410548,26.3463462 C29.1464949,26.6953846 30.8617164,28.4738462 30.8617164,28.4738462 L30.8647368,31.7838462 C30.8647368,31.7838462 30.9238238,33.0119231 30.0394068,32.4146154 L29.0183158,31.5988462 L25.4393058,36.2028846 L27.2166347,39.0844231 L29.3854857,37.4117308 C29.8349621,36.9686538 30.0711212,37.3736538 30.0711212,37.6055769 L30.0756518,41.9721154 L30.0756518,41.9721154 Z" id="Shape" stroke="#000000" stroke-width="2"></path>
                                <path d="M6.55355814,11.8651923 C7.48252633,12.6515385 9.42465693,13.8459615 10.0210013,14.1438462 C11.4115275,14.8407692 13.0304731,15.8267308 13.7540527,16.3519231 C14.8212051,17.1265385 14.9357923,18.3676923 14.9746802,18.5219231 C15.0128131,18.6759615 14.9775119,20.5392308 14.6730157,21.0821154 C14.6722606,20.6551923 13.8916706,19.7265385 13.3004232,19.5063462 C13.2371832,19.4828846 11.6240896,18.6363462 11.3956703,18.5203846 C11.1666847,18.4030769 8.65350574,17.3261538 8.3869536,17.1325 C8.32012678,17.0826923 7.34207676,16.7011538 6.37289922,16.0498077 C5.57852853,15.5171154 4.82606619,14.7688462 4.34714071,14.1101923 C3.26129941,12.6196154 3.08838032,10.8530769 3.08687011,9.84653846 C3.08687011,9.245 3.22373293,8.35596154 3.42836644,7.67211538 C3.84593962,6.27673077 4.45361054,5.57692308 4.45361054,5.57692308 C4.20650236,5.83076923 4.22821164,8.35134615 4.70562691,9.41807692 C4.95273509,10.3482692 6.55355814,11.8651923 6.55355814,11.8651923" id="Shape" fill="#FFFFFF"></path>
                                <path d="M16.8405452,18.9840385 C17.6030127,19.7601923 20.0414362,21.1863462 20.4980861,21.4196154 C20.9545472,21.6515385 22.2480424,22.4525 22.5936918,22.5596154 C23.0084334,22.6873077 23.8883197,22.5463462 23.8883197,22.5463462 L23.1668167,23.3621154 L23.17248,30.2271154 C24.4284087,30.2271154 24.8663698,31.0003846 24.6962823,31.0003846 C24.5061846,31.0032692 24.1259891,31.2351923 23.9732691,31.3113462 C23.820549,31.3905769 21.6515093,33.0603846 21.6515093,33.0603846 L17.9097742,35.8567308 C17.9097742,35.8567308 11.9803105,32.2151923 11.8277793,32.1007692 C11.7707688,32.0421154 11.5417832,31.9555769 11.5417832,31.9555769 C11.7226309,31.8294231 11.766427,31.8248077 11.8183405,31.7794231 C11.9516165,31.6634615 12.1322754,31.5873077 12.1317091,30.9769231 C12.1317091,30.8213462 12.1243468,23.3738462 12.1243468,23.3738462 C12.1237805,23.0438462 12.0099484,22.8311538 12.0099484,22.8311538 L16.3270737,19.5298077 C16.5271766,19.3259615 16.8405452,18.9840385 16.8405452,18.9840385" id="Shape" fill="#FFFFFF"></path>
                                <path d="M15.5319479,23.4853846 L16.882076,22.4759615 C18.1400813,23.5411538 20.1766001,24.2776923 20.1969879,24.5682692 C20.2215288,24.935 20.2026512,30.4251923 20.2026512,30.4251923 L17.9069426,32.3267308 L15.5391214,30.8565385" id="Shape" fill="#000000"></path>
                                <path d="M15.5319479,23.4853846 L16.882076,22.4759615 C18.1400813,23.5411538 20.1766001,24.2776923 20.1969879,24.5682692 C20.2215288,24.935 20.2026512,30.4251923 20.2026512,30.4251923 L17.9069426,32.3267308 L15.5391214,30.8565385 L15.5319479,23.4853846 L15.5319479,23.4853846 Z" id="Shape" stroke="#000000" stroke-width="0.5"></path>
                                <path d="M17.266047,5.50057692 C17.6305741,5.87173077 17.7045744,6.96192308 17.7045744,6.96192308 L19.1902439,7.92865385 L22.4220942,3.61961538 L20.6693062,2.41942308 C20.1754674,2.96230769 19.2234685,3.00346154 18.8430842,2.80980769 C18.4627,2.61615385 15.1927169,1.40711538 14.7296486,1.2575 C13.8531602,0.972884615 11.9499175,0.761538462 10.921653,0.916923077 C9.8941436,1.0725 8.2061059,1.39230769 6.88750342,2.82134615 C5.34784389,4.49096154 5.32915504,5.82903846 5.32991014,6.54653846 C5.33066525,7.67192308 5.61873789,9.15807692 6.85654411,10.4184615 C8.6410465,12.2319231 11.3522518,13.3675 11.962188,13.7107692 C13.0451977,14.3182692 16.4586508,16.1346154 16.9519232,16.4251923 C19.047529,17.665 19.8483181,18.9825 19.6208426,20.6507692 C19.4105458,22.1986538 18.0624942,23.3665385 18.0624942,23.3665385 C18.0624942,23.3665385 16.332737,24.8807692 15.3807381,24.8823077 C14.6943474,24.8823077 12.8537785,23.6498077 11.0585158,23.3417308 C9.34386068,23.0467308 8.30181548,23.0657692 6.9465904,23.4061538 C5.44223204,23.7875 3.86236316,24.4067308 2.3795253,25.9225 C0.705268268,27.6317308 0.726033662,28.7761538 0.726033662,28.7761538 L2.39953559,27.7667308 C3.79950065,26.9655769 5.64384513,26.4828846 6.94866694,26.4813462 C10.3375791,26.4784615 11.9563359,27.5626923 12.2236432,28.0278846 C12.5007668,28.5105769 15.3071153,27.2298077 15.3071153,27.2298077 C16.0941237,27.2282692 18.8372322,25.9561538 20.1967991,24.5682692 C20.8909296,23.8594231 22.19443,22.9307692 22.7819018,21.0351923 C23.6359258,18.2798077 23.0310865,15.6242308 21.0234506,14.1057692 C19.5761026,13.0098077 13.6717462,9.95807692 13.6717462,9.95807692 C13.6717462,9.95807692 10.0957567,8.17538462 9.70970915,7.78365385 C9.43315187,7.50192308 8.87154237,7.06615385 8.87078726,5.68846154 C8.86871072,4.86826923 9.76671959,3.96307692 10.1533335,3.77673077 C10.7719534,3.47596154 10.9743216,3.335 12.2272299,3.31461538 C12.9364625,3.30423077 13.5939704,3.47884615 13.6847718,3.48769231 C14.4647955,3.56980769 16.3127267,4.18884615 17.266047,5.50057692" id="Shape" fill="#FFFFFF"></path>
                                <polyline id="Shape" fill="#FFFFFF" points="16.539447 28.1526923 18.7509614 26.5475 27.0267258 39.9590385 29.3482967 38.1719231 29.3526386 41.8955769 26.4620958 44.2638462 17.7657379 30.1934615 16.5422787 31.0223077"></polyline>
                                <polyline id="Shape" fill="#FFFFFF" points="28.4236704 27.0023077 30.3276682 28.7453846 30.3320101 31.8482692 28.9220398 30.6863462 18.5032869 44.0392308 16.0254091 41.7151923 16.0223887 37.9519231 18.1950152 39.9678846"></polyline>
                            </g>
                        </g>
                    </g>
                </g>
            </g>
        </g>
    </g>
</svg>