<?xml version="1.0" encoding="UTF-8"?><svg id="Layer_1" xmlns="http://www.w3.org/2000/svg" viewBox="0 0 126 126"><defs><style>.cls-1{fill:#fff;}.cls-2{fill:#cc3433;}.cls-3{fill:#0e3386;}</style></defs><path class="cls-1" d="m0,63C0,28.2,28.2,0,63,0c34.8,0,63,28.2,63,63s-28.2,63-63,63S0,97.8,0,63Z"/><path class="cls-3" d="m4.1,62.8C4.1,30.3,30.5,3.9,63,3.9s58.9,26.4,58.9,58.9-26.4,58.89-58.9,58.89S4.1,95.3,4.1,62.8Z"/><path class="cls-1" d="m63,106.3c24,0,43.5-19.5,43.5-43.5s-19.5-43.5-43.5-43.5S19.5,38.8,19.5,62.8s19.4,43.5,43.5,43.5Z"/><path class="cls-2" d="m63,24.6c-21.1,0-38.2,17.1-38.2,38.21s17.1,38.19,38.2,38.19c12.5,0,23.5-6,30.5-15.19l-11.4-10.7c-4.1,6.3-11.1,10.5-19.2,10.5-12.6,0-22.8-10.2-22.8-22.8.1-12.6,10.3-22.8,22.9-22.8,8.3,0,15.5,4.4,19.5,11l11.2-10.9c-7-9.4-18.1-15.5-30.7-15.5Zm-6.8,28.1v13.81c0,1.9-2.89,1.9-2.89,0v-13.8h-6.9v13.6c0,4.5,1.1,6.6,4.4,6.6h7.1c4,0,5.2-1.21,5.2-6.21v-14h-6.9Zm9.4,0v20.21h10.8c3.8,0,5.8-.71,5.8-5.21,0-1.7,0-3.7-1.9-4.79,1.39-.7,1.9-2,1.9-4.5,0-4.7-1.7-5.71-5.8-5.71h-10.8Zm24,0c-3,0-4.7,1.21-4.79,4.71-.11,3.5,0,2,0,3.29s-.21,4.21,3.79,4.21h5c1.4,0,1.1,1.7,1.1,1.7v1.1c0,1.2-2.39,1.2-2.89.3-.4-.6-.21-1.7-.21-1.7h-6.79c0,1.39-.8,6.7,3.39,6.7,3.61-.1,7.71-.1,7.71-.1,3.7,0,5.6-1,5.6-4.3v-4.5c0-2.4-1.7-3.9-4.1-3.9h-4.9c-1.3,0-1-1.89-1-2.5,0-.89,2.8-1.2,2.8.3v.9h7.29c0-4.7-.9-6.21-5.6-6.21h-6.4Zm-16.79,4.7c2.1,0,2.89,0,2.89.79v1.11c0,1-1.7.89-2.89.89v-2.79h0Zm1.26,8.18c1.05,0,1.23.07,1.53.82.1.2,0,.79,0,1.1,0,1-1.4.9-2.9.9v-2.8c.58,0,1.02-.01,1.37-.02h0Z"/></svg>