<?xml version="1.0" encoding="UTF-8"?>
<svg width="31px" height="45px" viewBox="0 0 31 45" version="1.1" xmlns="http://www.w3.org/2000/svg" xmlns:xlink="http://www.w3.org/1999/xlink">
    <!-- Generator: Sketch 42 (36781) - http://www.bohemiancoding.com/sketch -->
    <title>chicago-white-sox</title>
    <desc>Created with Sketch.</desc>
    <defs></defs>
    <g id="Spritesheet" stroke="none" stroke-width="1" fill="none" fill-rule="evenodd">
        <g id="Artboard" transform="translate(-719.000000, -689.000000)" fill="#000000">
            <g id="C" transform="translate(47.000000, 638.000000)">
                <g id="Group-15" transform="translate(672.000000, 51.000000)">
                    <g id="Sprites/C/Chicago-White-Sox">
                        <g>
                            <path d="M6.54894055,11.8651923 C7.47725419,12.6515385 9.41801639,13.8459615 10.0139405,14.1438462 C11.403487,14.8407692 13.0212919,15.8267308 13.7443617,16.3519231 C14.8107622,17.1265385 14.9252687,18.3676923 14.9641292,18.5219231 C15.0022351,18.6759615 14.9669588,20.5392308 14.6626772,21.0821154 C14.6619226,20.6551923 13.8818826,19.7265385 13.2910518,19.5063462 C13.2278563,19.4828846 11.6158994,18.6363462 11.387641,18.5203846 C11.1588167,18.4030769 8.64740854,17.3261538 8.38104421,17.1325 C8.31426448,17.0826923 7.33690358,16.7011538 6.36840892,16.0498077 C5.57459794,15.5171154 4.82266578,14.7688462 4.34407774,14.1101923 C3.25900152,12.6196154 3.08620427,10.8530769 3.08469512,9.84653846 C3.08469512,9.245 3.22146151,8.35596154 3.42595084,7.67211538 C3.8432298,6.27673077 4.45047256,5.57692308 4.45047256,5.57692308 C4.20353849,5.83076923 4.22523247,8.35134615 4.70231136,9.41807692 C4.94924543,10.3482692 6.54894055,11.8651923 6.54894055,11.8651923" id="Shape"></path>
                            <path d="M16.8286795,18.9840385 C17.5906098,19.7601923 20.0273152,21.1863462 20.4836433,21.4196154 C20.9397828,21.6515385 22.2323666,22.4525 22.5777725,22.5596154 C22.9922218,22.6873077 23.8714882,22.5463462 23.8714882,22.5463462 L23.1504935,23.3621154 L23.1561528,30.2271154 C24.4111966,30.2271154 24.8488491,31.0003846 24.6788815,31.0003846 C24.4889177,31.0032692 24.1089901,31.2351923 23.9563777,31.3113462 C23.8037652,31.3905769 21.6362538,33.0603846 21.6362538,33.0603846 L17.8971551,35.8567308 C17.8971551,35.8567308 11.9718693,32.2151923 11.8194455,32.1007692 C11.7624752,32.0421154 11.5336509,31.9555769 11.5336509,31.9555769 C11.7143712,31.8294231 11.7581364,31.8248077 11.8100133,31.7794231 C11.9431955,31.6634615 12.1237271,31.5873077 12.1231612,30.9769231 C12.1231612,30.8213462 12.1158041,23.3738462 12.1158041,23.3738462 C12.1152382,23.0438462 12.0014863,22.8311538 12.0014863,22.8311538 L16.3155697,19.5298077 C16.5155316,19.3259615 16.8286795,18.9840385 16.8286795,18.9840385 Z M15.5210042,23.4853846 L15.5281726,30.8565385 L17.8943255,32.3267308 L20.1884165,30.4251923 C20.1884165,30.4251923 20.2072809,24.935 20.1827572,24.5682692 C20.1623838,24.2776923 18.1272999,23.5411538 16.870181,22.4759615 L15.5210042,23.4853846 Z" id="Combined-Shape"></path>
                            <path d="M17.2538815,5.50057692 C17.6181517,5.87173077 17.6920998,6.96192308 17.6920998,6.96192308 L19.1767226,7.92865385 L22.4062957,3.61961538 L20.6547428,2.41942308 C20.1612519,2.96230769 19.2099238,3.00346154 18.8298075,2.80980769 C18.4496913,2.61615385 15.1820122,1.40711538 14.7192702,1.2575 C13.8433994,0.972884615 11.9414977,0.761538462 10.9139577,0.916923077 C9.88717226,1.0725 8.20032393,1.39230769 6.88265053,2.82134615 C5.34407584,4.49096154 5.32540015,5.82903846 5.32615473,6.54653846 C5.3269093,7.67192308 5.61477896,9.15807692 6.85171303,10.4184615 C8.63495808,12.2319231 11.344253,13.3675 11.9537595,13.7107692 C13.0360061,14.3182692 16.4470541,16.1346154 16.939979,16.4251923 C19.0341082,17.665 19.8343331,18.9825 19.6070179,20.6507692 C19.3968693,22.1986538 18.0497675,23.3665385 18.0497675,23.3665385 C18.0497675,23.3665385 16.321229,24.8807692 15.3699009,24.8823077 C14.6839939,24.8823077 12.8447218,23.6498077 11.0507241,23.3417308 C9.33727706,23.0467308 8.29596608,23.0657692 6.94169588,23.4061538 C5.43839748,23.7875 3.85964177,24.4067308 2.3778487,25.9225 C0.704771341,27.6317308 0.725522104,28.7761538 0.725522104,28.7761538 L2.39784489,27.7667308 C3.79682355,26.9655769 5.63986852,26.4828846 6.94377096,26.4813462 C10.3302954,26.4784615 11.9479116,27.5626923 12.2150305,28.0278846 C12.4919588,28.5105769 15.29633,27.2298077 15.29633,27.2298077 C16.0827839,27.2282692 18.8239596,25.9561538 20.1825686,24.5682692 C20.87621,23.8594231 22.1787919,22.9307692 22.7658498,21.0351923 C23.6192721,18.2798077 23.014859,15.6242308 21.0086376,14.1057692 C19.5623095,13.0098077 13.6621132,9.95807692 13.6621132,9.95807692 C13.6621132,9.95807692 10.0886433,8.17538462 9.70286776,7.78365385 C9.42650534,7.50192308 8.86529154,7.06615385 8.86453697,5.68846154 C8.86246189,4.86826923 9.75983803,3.96307692 10.1461795,3.77673077 C10.7643636,3.47596154 10.9665892,3.335 12.2186147,3.31461538 C12.9273476,3.30423077 13.5843921,3.47884615 13.6751296,3.48769231 C14.4546037,3.56980769 16.3012329,4.18884615 17.2538815,5.50057692" id="Shape"></path>
                            <polyline id="Shape" points="16.5277934 28.1526923 18.7377496 26.5475 27.0076829 39.9590385 29.3276181 38.1719231 29.3319569 41.8955769 26.4434508 44.2638462 17.7532203 30.1934615 16.5306231 31.0223077"></polyline>
                            <polyline id="Shape" points="28.4036433 27.0023077 30.3062995 28.7453846 30.3106383 31.8482692 28.9016616 30.6863462 18.4902496 44.0392308 16.0141178 41.7151923 16.0110995 37.9519231 18.1821951 39.9678846"></polyline>
                        </g>
                    </g>
                </g>
            </g>
        </g>
    </g>
</svg>