<?xml version="1.0" encoding="UTF-8"?>
<svg width="48px" height="45px" viewBox="0 0 48 45" version="1.1" xmlns="http://www.w3.org/2000/svg" xmlns:xlink="http://www.w3.org/1999/xlink">
    <!-- Generator: Sketch 42 (36781) - http://www.bohemiancoding.com/sketch -->
    <title>houston-astros-color</title>
    <desc>Created with Sketch.</desc>
    <defs></defs>
    <g id="Spritesheet" stroke="none" stroke-width="1" fill="none" fill-rule="evenodd">
        <g id="Artboard" transform="translate(-47.000000, -2902.000000)">
            <g id="H" transform="translate(47.000000, 2851.000000)">
                <g id="Group-31" transform="translate(0.000000, 51.000000)">
                    <g id="Sprites/H/Houston-Astros-(Color)">
                        <g>
                            <g id="star">
                                <polygon id="path4132" fill="#F48412" points="23.7872863 0.0396295522 18.1811587 17.1343773 0.254529011 17.1343773 14.8967971 27.7514946 9.24812775 44.8642558 23.7872863 34.2363304 38.3668234 44.8714612 32.7787219 27.7875215 47.596204 17.1343773 29.2636258 17.1343773"></polygon>
                                <polygon id="path4137" fill="#EA5B18" points="43.6592964 18.413331 28.885077 18.413331 29.2636258 17.1343773 23.7872863 0.0396295522 23.7872863 24.8657427 9.24812775 44.8642558 23.7872863 34.2363304 38.3668234 44.8714612 32.7787219 27.7875215 47.596204 17.1343773"></polygon>
                                <polygon id="path4147" fill="#EC6E1C" points="14.8967971 27.7514946 16.4614655 27.2435158 4.27219374 18.5322197 0.254529011 17.1343773"></polygon>
                            </g>
                            <g id="layer4" transform="translate(10.094635, 12.609403)" fill="#FFFFFF">
                                <polygon id="path164" points="0.297791732 21.7638296 0.297791732 25.8312627 11.9441163 25.8312627 11.9441163 21.7638296 8.72825404 20.6145725 8.72825404 15.6788919 18.6606538 15.6788919 18.6606538 20.6145725 15.4447915 21.7638296 15.4447915 25.8312627 27.0968845 25.8312627 27.0968845 21.7674322 23.8846274 20.6181752 23.8846274 5.53012388 27.0968845 4.38086687 27.0968845 0.306228358 15.4447915 0.306228358 15.4447915 4.38086687 18.6606538 5.53012388 18.6606538 10.4658045 8.72464882 10.4658045 8.72464882 5.53012388 11.9333007 4.38086687 11.9333007 0.309831045 11.9333007 0.309831045 9.44208895 0.309831045 0.283731348 0.309831045 0.283731348 4.38446955 3.49923312 5.53012388 3.49923312 12.5373493 3.49923312 14.1045179 3.49923312 20.6217779"></polygon>
                            </g>
                            <g id="layer6" transform="translate(10.094635, 12.609403)" fill="#CAC9C9">
                                <polygon id="path168" points="27.104095 4.37726418 27.104095 0.305507821 26.0693949 1.3448829 26.0693949 3.64591881 22.8571378 4.79517582 22.8571378 21.3459179 23.8918379 20.6145725 23.8918379 14.1009152 23.8918379 5.64540985 23.8918379 5.52652119 27.104095 4.37726418"></polygon>
                                <polygon id="path172" points="27.104095 21.7638296 26.0693949 22.4915722 26.0693949 24.793689 16.4939125 24.793689 15.452002 25.8312627 27.104095 25.8312627"></polygon>
                                <polygon id="path176" points="8.7354645 15.6788919 10.9887312 15.6788919 18.6678643 15.6788919 19.7061696 14.6449209 7.69715918 14.6449209 7.69715918 21.3423152 8.7354645 20.6181752 8.7354645 18.7952158 8.7354645 15.6788919"></polygon>
                                <polygon id="path180" points="11.9477216 22.7689791 11.9477216 21.7638296 10.9094162 22.4879696 10.9094162 24.7972916 1.33285234 24.7972916 0.300675914 25.8312627 1.16016198 25.8312627 3.64668689 25.8312627 7.72960623 25.8312627 11.9477216 25.8312627 11.9477216 22.7689791"></polygon>
                                <polygon id="path184" points="4.54691202 4.80238119 1.33032868 3.65312418 0.296710164 4.38446955 3.51221193 5.53372657"></polygon>
                                <polygon id="path188" points="16.4903073 3.64952149 15.452002 4.38086687 18.6678643 5.53012388 19.7061696 4.80238119"></polygon>
                                <polygon id="path192" points="11.954932 4.37726418 11.954932 0.307309164 10.9166267 1.34452263 10.9166267 3.64591881 7.70436964 4.79517582 7.70436964 11.4961728 8.74267495 10.4622018 8.74267495 5.52652119 11.954932 4.37726418"></polygon>
                            </g>
                        </g>
                    </g>
                </g>
            </g>
        </g>
    </g>
</svg>