<?xml version="1.0" encoding="UTF-8"?>
<svg width="45px" height="45px" viewBox="0 0 45 45" version="1.1" xmlns="http://www.w3.org/2000/svg" xmlns:xlink="http://www.w3.org/1999/xlink">
    <!-- Generator: Sketch 42 (36781) - http://www.bohemiancoding.com/sketch -->
    <title>kansas-city-royals</title>
    <desc>Created with Sketch.</desc>
    <defs></defs>
    <g id="Spritesheet" stroke="none" stroke-width="1" fill="none" fill-rule="evenodd">
        <g id="Artboard" transform="translate(-271.000000, -3456.000000)" fill="#000000">
            <g id="K" transform="translate(47.000000, 3405.000000)">
                <g id="Group-34" transform="translate(224.000000, 51.000000)">
                    <g id="Sprites/K/Kansas-City-Royals">
                        <path d="M4.22502315,5.84090009 C4.22502315,2.66873302 2.29533493,1.65305788 0.569170918,1.67333452 L0,1.65305788 L0,0.00921665278 L6.50498617,0.00921665278 L11.2649521,0.00921665278 L11.2682314,1.68603302 C9.6529502,1.81875282 8.00323587,2.90631784 8.00323587,5.84110491 L8.00159619,15.7152123 L8.78658885,15.2308259 C10.4096585,12.6948127 14.6676801,5.97710174 15.555972,4.03935169 C16.6443039,1.65940713 14.9790127,1.65940713 13.3793083,1.65940713 L13.3793083,0 L23.3651118,0 L23.3651118,1.65940713 L22.6598482,1.65940713 C21.5715163,1.65940713 20.2282155,1.65940713 18.4362597,4.11124159 C16.1407198,7.25063834 11.5857128,14.8556058 11.5857128,14.8556058 C18.5629243,15.4321586 21.1884481,26.0345863 22.9804039,27.4752516 C21.9545845,19.9028497 27.0115359,10.4568046 34.4378124,10.8178926 C35.2711754,10.8568074 36.2939204,10.7443642 38.6611959,11.4663353 C41.0317508,12.1883065 41.2475725,10.8897825 41.5666936,9.44747873 L43.3369237,9.44747873 L43.3369237,21.9233448 L41.8042409,21.9233448 C41.6777813,19.7592747 40.7081206,12.6165736 34.4595381,12.4039761 C28.1000727,12.1883065 26.9084416,20.3325505 26.8207192,25.8877343 C26.5015981,46.4406652 39.4320464,45.7936562 41.7978872,39.1572566 C42.1448827,38.1931947 41.993418,37.9242732 41.6070705,37.7165913 C38.7909349,36.2023977 42.0557255,32.163046 43.8651029,35.6977348 C44.6955964,37.3165886 43.2084145,45 35.4617872,45 C23.4274193,45 19.9074548,26.3923973 15.4274628,20.3372612 C11.9372174,15.6197687 9.0897231,17.7402133 8.01860779,18.8949575 L7.97167219,22.1373759 L8.00139124,27.9080246 C8.00139124,31.0799869 9.92943979,32.0973005 11.6572435,32.0755902 L12.2264144,32.0973005 L12.2264144,33.7397081 L6.11412951,33.7397081 L0,33.7397081 L0,32.0973005 L0.569170918,32.0755902 C2.29553989,32.0973005 4.22502315,31.0801917 4.22502315,27.9080246 L4.22502315,5.84090009" id="Shape-Copy"></path>
                    </g>
                </g>
            </g>
        </g>
    </g>
</svg>