<?xml version="1.0" encoding="UTF-8"?><svg id="svg2" xmlns="http://www.w3.org/2000/svg" viewBox="0 0 579.5 887"><defs><style>.cls-1{fill:#fff;}.cls-2{fill:#083884;}</style></defs><path id="path2161" class="cls-1" d="m38,842l38.88-.68,16.78-77.89-93.67.57v-43h37v-292H2.08l-.58-42h117.5v42h-38v290h22.84l49.92-207.5,67.96-.34,49.83,207.34h24.94l.53-71.5h47.94l.53,117h-62.5s17.63,77.5,17.63,77.5l37.37.54v44.96h-123v-45h38.23l-17.87-77.5-95.07-.52-17.96,78,37.67.02v45H38v-45Zm186.24-123.57l-36.27-156.43-36.97,156.46c0,.73,72.51.7,73.24-.03Z"/><path id="path2161-2" class="cls-2" d="m272,455l38.88-.68,16.78-77.89-93.67.57v-43h37V42h-34.92l-.58-42h117.5v42h-38v290h22.84l49.92-207.5,67.96-.34,49.83,207.34h24.94l.53-71.5h47.94l.53,117h-62.5s17.63,77.5,17.63,77.5l37.37.54v44.96h-123v-45h38.23l-17.87-77.5-95.07-.52-17.96,78,37.67.02v45h-122v-45Zm186.24-123.57l-36.27-156.43-36.97,156.46c0,.73,72.51.7,73.24-.03Z"/></svg>