<?xml version="1.0" encoding="UTF-8"?>
<svg width="28px" height="45px" viewBox="0 0 28 45" version="1.1" xmlns="http://www.w3.org/2000/svg" xmlns:xlink="http://www.w3.org/1999/xlink">
    <!-- Generator: Sketch 42 (36781) - http://www.bohemiancoding.com/sketch -->
    <title>los-angeles-angels</title>
    <desc>Created with Sketch.</desc>
    <defs></defs>
    <g id="Spritesheet" stroke="none" stroke-width="1" fill="none" fill-rule="evenodd">
        <g id="Artboard" transform="translate(-271.000000, -3639.000000)" fill="#000000">
            <g id="L" transform="translate(47.000000, 3588.000000)">
                <g id="Group-11" transform="translate(224.000000, 51.000000)">
                    <g id="Sprites/L/Los-Angeles-Angels">
                        <path d="M11.6526757,32.6577364 L14.0288771,24.5253146 L16.3958893,32.6577364 L11.6526757,32.6577364 Z M14.0288771,8.42707478 C17.8194127,8.42707478 20.8947906,9.38115109 20.8947906,10.5607618 C20.8947906,11.463099 19.0597518,12.24338 16.4809891,12.5512175 L16.8847136,13.9565623 C20.2089983,13.4597474 22.5923912,12.1307127 22.5923912,10.5607618 C22.5923912,8.57333055 18.7564173,6.95785076 14.0288771,6.95780525 L14.0288771,4.11934832 L13.1964509,6.97454736 C8.8473552,7.15047073 5.46016913,8.69101294 5.46016913,10.5607618 C5.46036888,12.1305329 7.83882191,13.4594429 11.1609117,13.9563915 L8.46902537,23.1894879 C8.12143475,24.388276 7.4218587,25.4520232 6.35351697,26.2656649 C6.75444477,27.4089184 7.06527867,28.2287528 6.50753557,30.1217233 L2.96111247,42.2472421 C2.82846869,42.6953144 2.65926797,43.1341975 2.45211196,43.5610947 L7.50296318,43.5610947 L5.23063947,42.024904 L6.90689099,36.2823829 L8.46882561,38.4646971 L19.5793399,38.4646971 L20.3444388,41.0740239 C20.5485983,41.7903802 20.6658602,42.7961956 20.5485983,43.5612945 L25.5934566,43.5610947 L22.7783721,41.8784765 L21.1446962,36.2820678 L6.90698296,36.2820678 L14.0288771,11.8838035 L14.0288771,9.23492331 C13.5076909,9.23492331 13.0062815,9.25330167 12.5246487,9.28066943 L12.5618071,9.15135822 L11.5082186,12.765138 L11.5703727,12.5512175 C8.99160988,12.24338 7.15976739,11.463099 7.15976739,10.5607618 C7.15976739,9.51563833 9.57277536,8.64755453 12.7624382,8.46319909 L12.7622978,8.46368074 C13.1758561,8.44238531 13.5940159,8.42727454 14.0288771,8.42727454 Z M28.0473664,45 L18.8102457,45 C19.5553681,43.3539387 19.1622311,42.1561494 18.834617,41.0252813 L18.5054047,39.9004062 L9.54835416,39.9004062 L9.22074002,41.0252813 C8.88533505,42.1561494 8.4937962,43.3539387 9.23891861,45 L0,45 C0.640046168,44.1677802 1.14605021,43.198322 1.441702,42.1865137 L5.14673829,29.4694915 C5.73644374,27.451668 4.64832531,26.0191552 4.50349588,25.7904246 C5.79137904,25.0924467 6.73167159,24.0306972 7.09444432,22.7749761 L9.35018756,15.0386878 C6.17093201,14.1912858 4.00068808,12.5056711 4.00068808,10.5609615 C4.00068808,8.10125852 7.48778106,6.0458793 12.1027457,5.59181409 L13.7334251,0 L14.3217322,0 L15.9508135,5.59181409 C20.5657781,6.0458793 24.0482765,8.10105875 24.0482765,10.5609615 C24.0482765,12.5056711 21.881029,14.1912858 18.7033716,15.0386878 L20.9559186,22.7749761 C21.3140967,24.0306972 22.2575855,25.0924467 23.5452689,25.7904246 C23.403436,26.0191552 22.3167159,27.451668 22.9020265,29.4694915 L26.610259,42.1865137 C26.9059108,43.198322 27.4117151,44.1677802 28.0473664,45 Z M14.0288771,19.4035469 L18.3054403,34.0936453 L21.1446962,36.2820678 L14.0288771,11.8838035 L14.0288771,19.4035469 Z"></path>
                    </g>
                </g>
            </g>
        </g>
    </g>
</svg>