<?xml version="1.0" encoding="UTF-8"?>
<svg width="45px" height="45px" viewBox="0 0 45 45" version="1.1" xmlns="http://www.w3.org/2000/svg" xmlns:xlink="http://www.w3.org/1999/xlink">
    <!-- Generator: Sketch 42 (36781) - http://www.bohemiancoding.com/sketch -->
    <title>miami-marlins-color</title>
    <desc>Created with Sketch.</desc>
    <defs></defs>
    <g id="Spritesheet" stroke="none" stroke-width="1" fill="none" fill-rule="evenodd">
        <g id="Artboard" transform="translate(-47.000000, -3930.000000)">
            <g id="M" transform="translate(47.000000, 3879.000000)">
                <g id="Group-4" transform="translate(0.000000, 51.000000)">
                    <g id="Sprites/M/Miami-Marlins-(Color)">
                        <g id="miami-marlins">
                            <path d="M29.7662416,31.0680978 L34.7452411,43.8366033 L44.4918826,43.8366033 L30.9390932,9.92470109 L22.2729413,25.854212 L15.0198313,12.3933424 L14.0839934,10.655462 L13.6324456,9.81464674 L13.0272052,11.3314402 L12.0855031,13.6870924 C11.0033031,14.5034511 10.083592,15.2899728 9.26552795,16.0742935 C5.54319006,19.6473913 5.20697259,22.303125 6.19998698,24.1698913 C6.35099163,24.4247283 6.52911847,24.6692935 6.7282589,24.9033424 C7.46275724,25.7639674 8.48191645,26.4700272 9.44927471,26.9317663 C9.47370912,26.9427717 9.49618877,26.9540217 9.52135621,26.9638043 C9.57266847,26.9889946 9.62569114,27.012962 9.67773643,27.0359511 C9.74346499,27.0645652 9.86881351,27.1188587 9.95555566,27.1560326 C9.99636113,27.1733967 10.031058,27.187337 10.0430308,27.1927174 C10.0444969,27.1927174 10.0469404,27.1927174 10.0513385,27.1944293 C9.95457829,27.1528533 9.82263248,27.0877989 9.72831566,27.0391304 L9.72758263,27.039375 L9.72758263,27.0396196 C9.65598981,27.0034239 9.58757346,26.9635598 9.51549196,26.925163 C9.48079509,26.9048641 9.44389914,26.8848098 9.40798056,26.8640217 C9.40138327,26.8596196 9.39429729,26.855462 9.38598959,26.852038 C9.32368184,26.8141304 9.26088541,26.7754891 9.19906636,26.7375815 C9.15361836,26.7084783 9.1084147,26.6791304 9.06369973,26.6492935 C9.04219745,26.6358424 9.02020648,26.6209239 8.99797117,26.6052717 C8.96938291,26.585462 8.93786252,26.5663859 8.91049599,26.5470652 C8.64196183,26.360462 8.4345137,26.1780163 8.30843214,26.0635598 C8.27178053,26.030788 8.22608818,25.9855435 8.18528272,25.946413 L12.9262911,13.830163 L13.3360562,12.7834239 L13.6309795,12.0304076 L13.6331786,12.0313859 L13.8491788,12.4322283 L14.142636,12.9761413 L22.2858916,28.0589674 L30.9395819,12.0311413 L42.9669311,42.7832609 L35.4738752,42.7832609 L29.928486,28.5769565 L22.2861359,42.7363043 L14.641831,28.5769565 L14.634745,28.5923641 L14.5690165,28.7633152 L14.5690165,28.760625 L9.08837848,42.7835054 L1.59849905,42.7835054 L7.7457077,27.0667663 C7.76476654,27.071413 7.78553579,27.0738587 7.80532766,27.077038 C7.51260344,27.0247011 7.23796068,26.9657609 6.99972519,26.9092663 L6.99263921,26.9092663 C6.99557134,26.9092663 6.99777044,26.9107337 6.99850347,26.9119565 C6.98970708,26.9092663 6.92373418,26.9016848 6.81646712,26.8850543 C6.81646712,26.8850543 6.81646712,26.8850543 6.81402368,26.8850543 L0.0493575065,43.8363587 L9.78891299,43.8363587 L14.7820845,31.0678533 L22.2702535,44.8053261 L29.7662416,31.0680978 L29.7662416,31.0680978 Z M7.48377083,25.2139402 C7.17516425,24.8341304 6.949879,24.4797554 6.79398746,24.2014402 C6.59704613,23.8475543 6.51128135,23.6159511 6.51128135,23.6159511 C6.44139894,23.383125 6.38104595,23.1143478 6.33828573,22.8052174 C5.97909992,20.1861685 8.42278518,17.343587 11.6417742,14.8013315 L7.48377083,25.2139402 L7.48377083,25.2139402 Z" id="Shape" fill="#202020"></path>
                            <path d="M20.9840262,5.85586957 C28.0795343,2.48967391 32.8994659,0.000244565217 32.9004432,0 L31.1257721,0.679157609 C30.9508217,0.760353261 27.2052711,2.47035326 26.5474969,2.75918478 C22.6643806,4.46600543 17.4537428,6.77494565 15.2905646,7.88013587 C14.8585642,8.10024457 14.1587627,8.48274457 13.3834589,8.93592391 C6.00377867,13.5763043 0.59302311,18.7733152 3.34238283,24.7470652 C0.191810112,21.0876359 2.95412007,15.7147826 6.28453003,12.0017935 C8.50903864,9.5175 9.56142865,8.49057065 10.6959183,6.64605978 C11.5858194,5.20165761 12.1573403,3.68486413 12.1072497,2.15853261 C12.1651593,2.18543478 10.9197374,1.55616848 10.9197374,1.55616848 C11.0704978,2.04603261 10.7474749,5.02263587 8.83059547,7.64486413 C6.7326571,10.5089674 -0.504814893,16.839538 1.69012808,22.8017935 C2.90671731,26.1026902 6.02992349,26.7610598 6.81622278,26.8852989 C6.87657577,26.8894565 6.93546269,26.9055978 6.99239487,26.9095109 C0.181058972,23.3958424 1.96428215,14.686875 20.9840262,5.85586957 L20.9840262,5.85586957 Z" id="Shape" fill="#202020"></path>
                            <path d="M15.0200756,12.3933424 C18.4279427,10.1744022 21.9281718,8.40717391 23.6622818,7.57222826 L22.9781184,7.24915761 C19.9587584,8.76350543 17.5429284,10.0993207 15.5549449,11.330462 C15.2715057,11.5063043 14.9961299,11.6801902 14.7290618,11.8523641 L15.0200756,12.3933424 L15.0200756,12.3933424 Z" id="Shape" fill="#8A8D8F"></path>
                            <path d="M15.5551892,11.330462 C17.5431727,10.0993207 19.9587584,8.76326087 22.977141,7.24915761 L21.9399003,6.76222826 L21.4492574,6.53013587 C19.4295091,7.54092391 16.5890091,9.09269022 14.0844821,10.6557065 L14.7295505,11.8526087 C14.9963743,11.6799457 15.2717501,11.5063043 15.5551892,11.330462 L15.5551892,11.330462 Z" id="Shape" fill="#2177BD"></path>
                            <path d="M9.95531132,27.1562772 C9.86856917,27.1193478 9.74322065,27.0648098 9.67749209,27.0361957 C9.62569114,27.0132065 9.57266847,26.9892391 9.52111187,26.9640489 C9.49594443,26.9542663 9.47346477,26.9430163 9.44927471,26.9320109 C8.48191645,26.4700272 7.46300159,25.7639674 6.7282589,24.903587 C6.52936281,24.669538 6.35099163,24.4249728 6.19998698,24.1701359 C5.20721693,22.3033696 5.54319006,19.6476359 9.26552795,16.074538 C10.083592,15.2899728 11.0033031,14.5036957 12.0855031,13.687337 L13.0272052,11.3316848 C12.6924538,11.5495924 12.3660101,11.7679891 12.0554488,11.9819837 C2.59102475,18.4986685 3.31183982,22.8908152 5.99033975,25.1405707 C6.45923606,25.5419022 6.9970374,25.9141304 7.53825957,26.1758152 C8.28302036,26.5363043 8.98941913,26.8718478 9.74297631,27.106875 C9.82971846,27.1330435 9.91523889,27.1540761 10.0010037,27.1836685 C10.0088227,27.183913 10.0305693,27.19125 10.0454743,27.1966304 L10.046696,27.1961413 C10.0369222,27.1907609 10.000515,27.1748641 9.95531132,27.1562772 L9.95531132,27.1562772 Z" id="Shape" fill="#2177BD"></path>
                            <path d="M6.28453003,12.0017935 C2.95412007,15.7150272 0.191810112,21.0876359 3.34238283,24.7470652 C0.593267454,18.7733152 6.00377867,13.5763043 13.3834589,8.93592391 C14.1587627,8.48274457 14.8588085,8.10024457 15.2905646,7.88013587 C17.4537428,6.77494565 22.6643806,4.46600543 26.5474969,2.75918478 C27.2052711,2.47035326 30.9508217,0.760353261 31.1257721,0.679157609 C31.1299259,0.677445652 31.1335911,0.67548913 31.1335911,0.67548913 C31.1335911,0.67548913 23.2354127,3.67899457 21.6640358,4.29432065 C21.6427779,4.30165761 21.6640358,4.29432065 21.6569499,4.29652174 C20.9104787,4.47970109 19.8554009,4.66777174 19.102088,4.63866848 C18.5036894,4.62105978 17.4884397,4.49535326 16.3366016,4.0113587 C15.9910991,3.86535326 13.975749,3.03334239 12.2782906,2.23826087 C12.2216028,2.21160326 12.1649149,2.18543478 12.1072497,2.15853261 C12.1573403,3.68486413 11.5858194,5.20165761 10.6959183,6.64605978 C9.5611843,8.49032609 8.50903864,9.5175 6.28453003,12.0017935 L6.28453003,12.0017935 Z" id="Shape" fill="#F26822"></path>
                            <polygon id="Shape" fill="#FFD107" points="13.7081922 13.2759783 13.8880295 16.2589402 13.9195499 16.7573641 13.9195499 16.7558967 21.9833936 31.5687228 22.2981088 32.1586141 22.6174665 31.5687228 30.6304866 16.7845109 30.6312197 16.7884239 30.9390932 12.0321196 22.2854029 28.0599457 14.141903 12.976875 13.8484457 12.432962 13.6324456 12.0321196 13.6639659 12.5576902"></polygon>
                            <polygon id="Shape" fill="#2177BD" points="4.57509877 40.6575 4.57436574 40.6605 7.55682972 40.6575"></polygon>
                            <polygon id="Shape" fill="#2177BD" points="22.6184439 37.3230978 22.2839368 37.9411141 21.9516288 37.3243207 22.2839368 37.9418478"></polygon>
                            <polygon id="Shape" fill="#2177BD" points="40.1928926 41.176712 40.2092637 41.216087 36.5384824 41.216087 30.1557261 24.8788859 22.2854029 39.4532609 14.4150797 24.8788859 8.02425997 41.2310054 4.35201261 41.2310054 4.42727059 41.0368207 4.35127958 41.2310054 1.59849905 42.7842391 9.08837848 42.7842391 14.5690165 28.7613587 14.634745 28.5933424 14.6415867 28.5776902 22.2861359 42.737038 29.9282417 28.5776902 35.4736309 42.7842391 42.9661981 42.7842391 40.2092637 41.216087"></polygon>
                            <polygon id="Shape" fill="#2177BD" points="34.7071234 27.1956522 39.8415258 40.3065489 39.9614988 40.6144565 40.1928926 41.176712"></polygon>
                            <polygon id="Shape" fill="#8A8D8F" points="8.02425997 41.2310054 14.4150797 24.8788859 22.2854029 39.4532609 30.1557261 24.8788859 36.5384824 41.216087 40.2092637 41.216087 40.1928926 41.176712 39.9614988 40.6144565 39.9614988 40.6144565 37.0161751 40.6144565 30.2417352 23.214375 22.6184439 37.3230978 22.2839368 37.9418478 21.9516288 37.3243207 14.3513059 23.2539946 7.55682972 40.6575 4.57436574 40.6582337 4.42727059 41.0368207 4.35201261 41.2310054"></polygon>
                            <path d="M13.8880295,16.2589402 L13.7057488,13.2769565 L13.6624999,12.5586685 L13.6304908,12.0308967 L13.3353231,12.783913 L12.9258024,13.8306522 L8.18479403,25.9469022 C8.2255995,25.9860326 8.27129184,26.0312772 8.30794346,26.0640489 C8.43426935,26.1785054 8.64171748,26.3609511 8.9100073,26.5475543 C8.93590777,26.5663859 8.96596209,26.5852174 8.99430601,26.6035598 C8.99919289,26.6072283 9.00554584,26.6113859 9.01165444,26.6143207 C9.02753681,26.6260598 9.04512958,26.6377989 9.06321104,26.649538 C9.10792601,26.679375 9.15312967,26.7087228 9.19882201,26.7378261 C9.26039672,26.7757337 9.3234375,26.814375 9.38574524,26.8522826 C9.3938086,26.8557065 9.40089458,26.8601087 9.40749187,26.8642663 C9.43681316,26.8811413 9.46637879,26.8972826 9.49570008,26.9136685 C9.51524761,26.925163 9.53528383,26.9347011 9.55458701,26.9457065 C9.61176353,26.9775 9.66820701,27.0090489 9.72709394,27.039375 L13.9190612,16.7571196 L13.8880295,16.2589402 L13.8880295,16.2589402 Z" id="Shape" fill="#F26822"></path>
                            <path d="M1.59849905,42.7842391 L4.35127958,41.2310054 L4.42727059,41.0368207 L4.57436574,40.6582337 L4.57509877,40.6577446 L4.57436574,40.6577446 L4.57827524,40.6523641 L9.65134727,27.2272011 C9.65281334,27.2272011 9.65379071,27.2257337 9.65379071,27.2257337 C9.60785402,27.2279348 9.56142865,27.2301359 9.51549196,27.230625 C9.47884034,27.2316033 9.44389914,27.2316033 9.40724752,27.2316033 C8.85087603,27.228913 8.30012444,27.1552989 7.80532766,27.0772826 C7.78553579,27.0741033 7.76476654,27.0716576 7.7457077,27.0670109 L1.59849905,42.7842391 L1.59849905,42.7842391 Z" id="Shape" fill="#F26822"></path>
                            <polygon id="Shape" fill="#F26822" points="34.7071234 27.1956522 40.1928926 41.176712 40.2092637 41.216087 42.9661981 42.7842391 30.9390932 12.0321196 30.6312197 16.7884239"></polygon>
                            <path d="M7.55707406,40.6575 L14.3515502,23.25375 L21.9518732,37.3243207 L22.2841811,37.9408696 L22.6186882,37.3228533 L30.2417352,23.2141304 L37.0161751,40.614212 L39.9617431,40.614212 L39.8417702,40.3063043 L34.7073678,27.1956522 L30.631464,16.7884239 L22.6177108,31.5687228 L22.2983531,32.1586141 L21.9836379,31.5687228 L13.9195499,16.7558967 L9.72758263,27.0396196 C9.82263248,27.0880435 9.95457829,27.1530978 10.0513385,27.1946739 C10.031058,27.1878261 9.99660547,27.1736413 9.95555566,27.1562772 C10.0007593,27.1751087 10.0369222,27.1910054 10.0469404,27.1958967 C10.0198182,27.1963859 9.78866865,27.2203533 9.65403506,27.2257337 L4.57827524,40.651875 L7.55707406,40.6575 Z" id="Shape" fill="#FFFFFF"></path>
                        </g>
                    </g>
                </g>
            </g>
        </g>
    </g>
</svg>