<?xml version="1.0" encoding="UTF-8"?>
<svg width="44px" height="45px" viewBox="0 0 44 45" version="1.1" xmlns="http://www.w3.org/2000/svg" xmlns:xlink="http://www.w3.org/1999/xlink">
    <!-- Generator: Sketch 42 (36781) - http://www.bohemiancoding.com/sketch -->
    <title>miami-marlins</title>
    <desc>Created with Sketch.</desc>
    <defs></defs>
    <g id="Spritesheet" stroke="none" stroke-width="1" fill="none" fill-rule="evenodd">
        <g id="Artboard" transform="translate(-271.000000, -3927.000000)" fill="#000000">
            <g id="M" transform="translate(47.000000, 3879.000000)">
                <g id="Group-4-Copy" transform="translate(224.000000, 48.000000)">
                    <g id="Sprites/M/Miami-Marlins">
                        <g id="miami-marlins-black">
                            <polygon id="Shape" points="3.44099611 40.4630597 3.44022956 40.4660597 6.55905662 40.4630597"></polygon>
                            <polygon id="Shape" points="22.3093121 36.9793559 21.9595109 37.6250446 21.6120092 36.9806335 21.9595109 37.6258112"></polygon>
                            <path d="M20.604616,6.11807268 C28.0245421,2.60115185 33.0648488,0.000255515899 33.0658708,0 L31.2100589,0.709567651 C31.0271095,0.794398929 27.1103063,2.58096609 26.4224575,2.88273037 C22.3617988,4.66597583 16.9129223,7.07830143 14.65084,8.23297777 C14.1990879,8.46294208 13.4672904,8.86256895 12.6565384,9.33603991 C4.93944724,14.1841986 -0.718696821,19.6139114 2.15636807,25.8551428 C-1.13825393,22.0318584 1.75035331,16.4184296 5.23303501,12.5391872 C7.55925175,9.94365672 8.65975873,8.87074546 9.84611905,6.94364455 C10.7767079,5.43456765 11.3743596,3.84985805 11.3219789,2.25518332 C11.3825361,2.28329007 10.0801716,1.62584766 10.0801716,1.62584766 C10.2378249,2.13764601 9.9000329,5.24753001 7.89551067,7.98717148 C5.70165117,10.9795182 -1.86672975,17.5935472 0.428569564,23.8227693 C1.70078322,27.2714674 4.96678744,27.9593162 5.7890376,28.0891183 C5.85215003,28.093462 5.91372936,28.1103261 5.97326457,28.1144143 C-1.14949663,24.4434174 0.715258403,15.3444963 20.604616,6.11807268 L20.604616,6.11807268 Z" id="Shape-Copy"></path>
                            <path d="M14.408797,13.4342229 C17.9724773,11.1159272 21.6327425,9.26956927 23.4461389,8.39723799 L22.7306944,8.05970149 C19.5732844,9.64185594 17.0469987,11.0374838 14.9681213,12.3237508 C14.6717229,12.5074667 14.3837565,12.6891385 14.1044776,12.8690217 L14.408797,13.4342229 L14.408797,13.4342229 Z" id="Shape-Copy-2"></path>
                            <path d="M14.970786,12.4033258 C17.0496634,11.1170587 19.5756935,9.72117537 22.7320814,8.13927644 L21.6474165,7.63054429 L21.1343405,7.3880597 C19.0222461,8.44410691 16.0518738,10.0653553 13.4328358,11.6983574 L14.1073978,12.9488522 C14.3864212,12.768458 14.6743876,12.5870417 14.970786,12.4033258 L14.970786,12.4033258 Z" id="Shape-Copy-3"></path>
                            <path d="M9.33861879,28.6227085 C9.24791065,28.5841256 9.11683099,28.5271455 9.04809721,28.4972502 C8.99392784,28.4732317 8.93848089,28.4481911 8.88456704,28.421873 C8.8582489,28.4116523 8.83474144,28.3998986 8.80944536,28.3884004 C7.79785792,27.9057309 6.73235662,27.1680565 5.96402032,26.2691515 C5.75603037,26.0246228 5.56950377,25.7691069 5.41159494,25.5028593 C4.37343385,23.5525065 4.72476821,20.7778593 8.61729741,17.0447721 C9.47276464,16.2250771 10.4345265,15.4035934 11.5662064,14.5506814 L12.5509647,12.0895522 C12.2009079,12.3172169 11.8595386,12.5453926 11.5347779,12.768969 C1.63762512,19.5774457 2.39139702,24.1662557 5.1923623,26.5167464 C5.68269731,26.936048 6.2450878,27.3249432 6.81105552,27.5983452 C7.58986798,27.9749757 8.32856444,28.3255435 9.11657547,28.5710943 C9.20728362,28.5984345 9.29671418,28.6204088 9.38640026,28.6513262 C9.39457677,28.6515818 9.41731769,28.6592472 9.43290416,28.6648686 L9.43418174,28.6643576 C9.4239611,28.6587362 9.38588923,28.6421277 9.33861879,28.6227085 L9.33861879,28.6227085 Z" id="Shape-Copy-4"></path>
                            <path d="M5.19618929,12.5050941 C1.71350759,16.384592 -1.17509964,21.9977652 2.11952236,25.8210496 C-0.755287021,19.5798183 4.90260153,14.1501055 12.6196927,9.30194679 C13.4304446,8.82847583 14.1624977,8.42884896 14.6139943,8.19888465 C16.8760765,7.04420831 22.3249531,4.63188271 26.3856117,2.84863725 C27.0734605,2.54687297 30.9902638,0.760305808 31.1732131,0.67547453 C31.1775569,0.673685918 31.1813896,0.671641791 31.1813896,0.671641791 C31.1813896,0.671641791 22.9220937,3.80963254 21.278871,4.45251055 C21.2566411,4.46017602 21.278871,4.45251055 21.271461,4.45481019 C20.49086,4.6461916 19.3875423,4.84268332 18.5997868,4.81227693 C17.9740284,4.79387979 16.9123598,4.66254461 15.7078579,4.15687865 C15.3465584,4.00433566 13.2390632,3.13507057 11.4639943,2.30438838 C11.4047146,2.27653715 11.3454349,2.24919695 11.2851332,2.2210902 C11.3375139,3.81576493 10.7398622,5.40047453 9.80927333,6.90955143 C8.6226575,8.83639682 7.52240604,9.9095636 5.19618929,12.5050941 L5.19618929,12.5050941 Z" id="Shape-Copy-5"></path>
                            <polygon id="Shape-Copy-6" points="3.3589755 42.9850746 3.35820896 42.9880746 6.47703602 42.9850746"></polygon>
                            <polygon id="Shape-Copy-7" points="22.1898402 38.9552239 21.8400389 39.6009126 21.4925373 38.9565015 21.8400389 39.6016791"></polygon>
                            <polygon id="Shape-Copy-8" points="34.9253731 28.880597 40.2945287 42.5785488 40.419987 42.9002433 40.6619606 43.4876744"></polygon>
                            <path d="M8.70500541,43.4458343 L15.810136,25.2628119 L11.5527382,25.5252313 L19.5005602,40.2258275 L19.8470433,40.868097 L21.9115753,44.6950715 L23.9828582,40.8717466 L24.3326594,40.2260579 L32.305069,25.4840778 L28.0470074,25.2193845 L35.1311857,43.3985741 L35.7146278,44.8957846 L37.3215018,44.8957846 L40.4017459,44.8957846 L43.8417067,44.8957846 L42.5918353,41.6909208 L42.466377,41.3692263 L37.095749,27.6677642 L32.8334727,16.7945008 L30.9891515,12.0895522 L28.5787584,16.5311812 L20.1986035,31.9732845 L19.8639443,32.5908795 L21.9307571,33.7108316 L24.0043736,32.6035273 L23.6752691,31.987223 L15.2330594,16.493676 L12.8633009,12.144631 L10.9923044,16.7304046 L6.60867364,27.4745926 L5.79180413,29.4767228 L7.71889251,30.4576059 C7.88638006,30.5428566 8.05083178,30.6222167 8.19646843,30.6847375 L9.12378926,28.5246254 L9.87520656,26.2972099 C9.93248944,26.3165342 9.93136894,26.3160822 9.93873079,26.3191935 L9.02362703,28.4845094 L8.1203269,30.654776 C8.12140652,30.6552253 8.13135396,30.6595511 8.08856726,30.6386796 L9.11918998,28.525903 L9.07684106,26.1755382 C8.89192467,26.1846206 8.89192467,26.1846206 8.84715121,26.1893403 C8.78884647,26.1944977 8.78884647,26.1944977 8.72966053,26.1995889 C8.70465488,26.2016755 8.70465488,26.2016755 8.68127779,26.2035343 C8.64566543,26.2063227 8.62027249,26.2079722 8.61453594,26.2082012 L7.06022494,26.2702608 L6.50971012,27.7251379 L1.20187836,41.7524498 L0,44.9287227 L3.39605365,44.9351298 L6.51104797,44.9410067 L8.11957154,44.9440414 L8.70500541,43.4458343 L8.70500541,43.4458343 Z M4.32596053,41.7346949 L6.51991797,40.2395225 L3.40492364,40.2336457 L5.59909894,43.4163257 L10.9069307,29.3890139 L8.70832041,28.5570759 L8.80210488,30.9059507 C8.87900955,30.9028801 8.95803816,30.8977465 9.04827494,30.8906811 C9.08762562,30.8875511 9.08762562,30.8875511 9.12424184,30.8844942 C9.39504238,30.8616863 9.24607441,30.8747446 9.16153889,30.8762678 L18.9381349,30.7001129 L10.1498127,26.4131264 C10.0829854,26.3805277 10.011622,26.3494942 9.92692716,26.3142429 L8.10852327,30.6498254 C8.21666189,30.6955268 8.27702247,30.7198749 8.37237197,30.752041 L10.0511101,26.3645134 C10.0203235,26.3512969 9.93518895,26.3102132 9.85156888,26.2676508 L8.7852307,28.3626283 L10.9617878,29.250664 L15.3454185,18.506476 L11.1046635,18.7432046 L19.5374547,34.2192916 L19.8571407,34.8181359 L21.9155994,38.6729514 L23.99757,34.8307837 L24.3315293,34.2144793 L32.7109843,18.7736667 L28.45627,18.510347 L32.7185307,29.3835706 L38.0876707,43.0812271 L38.2116566,43.3991557 L40.4017459,42.5450383 L40.4017459,40.194292 L37.3215018,40.194292 L39.5118179,41.6915025 L32.4276396,23.5123128 L30.5844138,18.7822863 L28.169578,23.2476194 L20.197993,37.9880761 L19.8490163,38.6322414 L21.9159372,39.751994 L23.9848311,38.635891 L23.6373295,37.9917354 L15.6884889,23.2892532 L13.2767421,18.8283938 L11.4310911,23.5516725 L4.32596053,41.7346949 L4.32596053,41.7346949 Z" id="Shape-Copy-9" fill-rule="nonzero"></path>
                        </g>
                    </g>
                </g>
            </g>
        </g>
    </g>
</svg>