<?xml version="1.0" encoding="UTF-8"?><svg id="Layer_1" xmlns="http://www.w3.org/2000/svg" viewBox="0 0 148.86 162.37"><defs><style>.cls-1{fill:none;stroke:#000;stroke-miterlimit:10;stroke-width:3px;}</style></defs><path class="cls-1" d="m147.36,48.03v20.14c0,16.67-2.78,26.74-15.97,54.86-13.89,29.17-30.9,37.85-51.39,37.85-13.54,0-26.04-4.51-36.11-12.5h0l-2.43-2.08-.35-.35c-2.78-2.43-5.21-5.21-7.64-8.33q-.35-.35-.69-.69h0c0-.35-.35-.35-.35-.69-1.39-1.74-2.43-3.47-3.47-5.21,0-.35-.35-.35-.35-.69-3.47-5.9-5.56-12.15-7.29-17.01-.69-1.39-1.04-2.78-1.39-4.17-3.82-10.07-11.46-29.17-14.93-38.89C1.18,59.83.49,52.89,2.92,45.94c2.43-7.29,8.33-12.85,16.32-19.44,7.99-6.6,14.58-11.81,23.96-18.4,5.9-4.17,12.15-6.6,18.06-6.6,2.43,0,4.86.35,7.29,1.04.35,0,.69.35,1.39.69,2.08.69,3.82,1.74,5.21,3.12l.35-.35c4.17-2.43,9.03-3.82,13.89-3.82,3.82,0,7.64.69,10.76,2.43.69.35,1.04.69,1.74.69.35,0,.35.35.69.35,2.43,1.39,4.86,3.12,6.6,4.86,2.78-1.04,5.56-1.39,8.33-1.39,4.17,0,7.64,1.04,11.11,3.12l.69.35c1.39,1.04,2.43,1.39,3.47,2.43,9.72,6.94,14.58,13.89,14.58,32.99"/><path d="m129.65,20.6c-1.39-1.04-2.08-1.39-4.17-2.78-4.17-2.78-9.38-3.47-17.01,0-.35,0-.69.35-1.39.35-1.74-3.47-4.51-5.56-6.94-6.94-1.04-.69-1.39-.69-2.43-1.04-5.21-2.43-12.5-2.78-19.1,1.39-1.39.69-3.13,1.74-4.86,2.78-1.74-2.78-3.82-4.17-6.25-5.21-.69-.35-1.04-.35-1.39-.35-4.86-1.74-12.5-.69-19.79,4.51-8.68,6.25-15.28,11.46-23.61,18.4-15.28,12.5-18.75,19.79-12.5,36.81,3.47,9.38,10.76,28.12,14.93,38.89,2.43,6.25,4.86,14.24,9.38,21.87h0c.35.69.69,1.39,1.39,2.08,0,.35.35.35.35.69,2.08,3.13,4.51,6.25,7.29,9.03l.69.69.35.35h0c9.38,8.33,21.53,13.54,35.07,13.54,25,0,45.49-20.49,45.49-45.49h0c0-23.96-19.44-43.4-43.4-43.4-12.85,0-26.04,7.64-33.68,19.44-3.13-7.99-10.42-25.35-15.62-38.19-2.78-6.94-2.08-10.42,2.08-14.58,2.08-2.08,4.86-4.17,7.99-6.25,3.13-2.08,6.6-.69,6.6,3.12v42.71c6.94-6.94,15.62-11.81,26.39-13.54V24.07c.69-.35,1.39-1.04,2.08-1.39,2.78-1.74,4.86.35,4.86,2.78v32.99h.69c9.38,0,18.06,2.43,25.35,6.94V28.24c.69-.35,1.39-.69,1.74-.69,2.78-1.04,4.86.69,4.86,3.12s-.35,39.24-.35,39.24c10.42,8.33,17.01,21.18,18.06,35.07,4.86-10.42,8.33-20.14,8.33-36.81v-20.14c.35-16.67-3.47-21.88-11.46-27.43m-47.92,63.19c14.58,0,26.04,11.81,26.04,26.04s-11.81,26.04-26.04,26.04-26.04-11.81-26.04-26.04,11.81-26.04,26.04-26.04"/><path d="m61.95,109.83c0-4.86,1.74-9.03,4.51-12.5,5.56,7.29,5.56,17.71,0,25-2.78-3.13-4.51-7.64-4.51-12.5m7.99,15.97c7.29-9.38,7.29-22.57,0-31.6,3.47-2.43,7.29-3.82,11.81-3.82s8.68,1.39,11.81,3.82c-7.29,9.38-7.29,22.57,0,31.6-3.47,2.43-7.29,4.17-11.81,4.17s-8.68-1.74-11.81-4.17m27.43-3.13c-5.56-7.29-5.56-17.71,0-25,2.78,3.47,4.51,7.64,4.51,12.5-.35,4.51-1.74,9.03-4.51,12.5"/></svg>