<?xml version="1.0" encoding="UTF-8"?><svg id="Layer_1" xmlns="http://www.w3.org/2000/svg" viewBox="0 0 110.53 76.91"><defs><style>.cls-1{fill:#01549c;}.cls-2{fill:#fff;}.cls-3{fill:#ef4043;}</style></defs><path class="cls-1" d="m33.46,37.2c-4.23-4.29-16.67-8.97-27.02,1.9-9.82,10.28-6.97,25.14-1.02,31.44,5.54,5.85,23.56,11.58,38.5-4.13.3,5.52,3.58,9.41,8.56,9.11,5.16-.32,9.94-5.29,12.42-8.55,2.04,6.46,11.29,10.52,19.8,9.86,9.05-.71,14.48-5.46,18.78-9.73,4.8-4.77,12.04-19.58,2-29.45-6.3-6.16-17.34-3.93-21.72.31l9.33-25.21c2.75-6.64-1.04-10.72-5.75-11.81-5.51-1.27-12.81-1.9-17.74,8.31-.68-6.81-7.53-8.5-9.54-8.99-4.6-1.08-12.97.99-15.21,7l-11.38,29.93"/><path class="cls-3" d="m33.46,37.2c-4.23-4.29-16.67-8.97-27.02,1.9-9.82,10.28-6.97,25.14-1.02,31.44,5.54,5.85,23.56,11.58,38.5-4.13,5.84-6.4,12.68-22.18,13.97-26.63-3.7,8.21-7.88,15.86-12.08,20.3-4.56,4.86-10.71,7.86-17.31,8.22-6.6.33-12.63-3.41-12.34-10,6.26,3.93,13.89,1.25,17.87-3.11,3.75-4.12,3.78-10.9.84-16.48-.4-.74-.99-1.09-1.42-1.52"/><path class="cls-2" d="m57.3,1.5c-5.17.16-9.54,2.2-11.33,6.89l-11.21,30.19c3.11,5.47,3.03,12.51-.72,16.63-3.98,4.36-11.61,7.04-17.87,3.11-.29,6.59,5.74,10.33,12.34,10,6.6-.36,12.75-3.36,17.31-8.22,8.38-8.9,16.72-30.55,21.35-44.08,4.28-12.57-5.7-14.64-9.87-14.51"/><path class="cls-2" d="m23.76,49.21c-1.7-1.5-5.37.21-6.62,4.82,2.01,1.42,4.65,1.37,6.11-.13,1.54-1.56,2.09-3.31.51-4.69"/></svg>