<?xml version="1.0" encoding="UTF-8"?>
<svg width="40px" height="45px" viewBox="0 0 40 45" version="1.1" xmlns="http://www.w3.org/2000/svg" xmlns:xlink="http://www.w3.org/1999/xlink">
    <!-- Generator: Sketch 42 (36781) - http://www.bohemiancoding.com/sketch -->
    <title>new-york-yankees</title>
    <desc>Created with Sketch.</desc>
    <defs></defs>
    <g id="Spritesheet" stroke="none" stroke-width="1" fill="none" fill-rule="evenodd">
        <g id="Artboard" transform="translate(-719.000000, -4314.000000)" fill="#000000">
            <g id="N" transform="translate(47.000000, 4263.000000)">
                <g id="Group-27-Copy" transform="translate(672.000000, 51.000000)">
                    <g id="Sprites/N/New-York-Yankees">
                        <path d="M4.40768486,8.07229444 C7.93468825,12.8970933 8.03241379,14.5671212 16.1625531,21.8967974 C15.6731028,18.5565773 9.86764668,8.64557531 6.85691051,5.56692387 C8.326413,4.08250948 11.3911121,1.10299437 12.2439895,0.0928889279 C13.1473749,2.6903264 16.3580042,12.80404 19.6888984,18.9276398 C22.2355206,14.1028409 26.6843357,1.85514807 26.6433699,0 C28.0992172,1.34680725 30.327491,4.26467042 31.9332169,5.6599772 C28.7981028,8.07229444 23.4108593,19.1132532 21.451413,24.309279 C20.8836507,25.8163813 21.353852,26.7215963 21.353852,26.7215963 C23.1099502,28.0684035 28.994212,33.5874855 30.0719897,34.6081128 C27.9174214,20.6908854 32.4231608,11.4125145 35.5576168,8.07229444 C36.0598998,8.60151472 37.5764553,9.86973629 39.1820167,11.505239 C37.5170632,13.7319428 34.2240088,19.5479406 34.0884434,25.6082444 C33.8923342,34.3297749 35.3615077,38.1339464 37.7123497,41.566891 C36.6608953,42.8550056 35.8731683,42.7705013 34.3822781,44.5360486 C32.0233745,42.3718188 23.0324608,34.2643416 21.4515775,32.8453605 L21.7460703,39.4329117 C21.8210919,39.8174554 21.9054912,43.2721015 23.4110238,44.9074399 C20.1038206,44.9117144 19.4684401,44.9120432 16.1623886,45 C17.2663252,43.5086806 17.6065548,40.2577325 17.6318911,39.2476271 L17.5335075,28.7630154 C16.2285261,27.5123852 9.78110858,21.6621912 9.20775254,21.0619479 C9.89298293,24.5877814 9.99153107,35.5361801 5.0940669,43.7942524 C4.69214184,43.2165326 0.602805319,38.3567154 0.685394913,38.2269997 C2.190763,35.8697582 4.8469562,30.5632522 4.89729966,25.6085732 C4.98926695,16.5608628 1.45518915,14.1819198 0,11.9691905 C0.625015668,11.992536 3.92382829,8.4359587 4.40768486,8.07229444 Z" id="Shape"></path>
                    </g>
                </g>
            </g>
        </g>
    </g>
</svg>