<?xml version="1.0" encoding="UTF-8"?>
<svg width="31px" height="45px" viewBox="0 0 31 45" version="1.1" xmlns="http://www.w3.org/2000/svg" xmlns:xlink="http://www.w3.org/1999/xlink">
    <!-- Generator: Sketch 42 (36781) - http://www.bohemiancoding.com/sketch -->
    <title>new-york-mets-color</title>
    <desc>Created with Sketch.</desc>
    <defs></defs>
    <g id="Spritesheet" stroke="none" stroke-width="1" fill="none" fill-rule="evenodd">
        <g id="Artboard" transform="translate(-47.000000, -4314.000000)" fill="#F47937">
            <g id="N" transform="translate(47.000000, 4263.000000)">
                <g id="Group-5" transform="translate(0.000000, 51.000000)">
                    <g id="Sprites/N/New-York-Mets-(Color)">
                        <path d="M22.4620209,17.8161605 L22.4620209,22.072968 L20.4746343,19.6581583 C21.0716558,18.9615966 21.7406121,18.3310349 22.4620209,17.8161605 L22.4620209,17.8161605 Z M15.3756922,22.2045928 C13.3956115,16.980474 10.2696316,14.6506017 8.15186313,13.5767905 L8.15186313,10.4419817 L16.1922648,20.327345 C15.9026522,20.9067193 15.630274,21.5322186 15.3756922,22.2045928 L15.3756922,22.2045928 Z M26.4984258,27.9898985 L26.4984258,16.7892242 C28.245655,17.5062234 28.6877544,20.1340328 27.3178083,21.4011563 C27.3178083,21.4011563 30.7511971,21.0458442 30.7511971,17.4923484 C30.7511971,14.6894142 28.4798178,13.0699786 26.4984258,12.6861665 L26.4984258,4.83405078 C26.5130375,3.93161435 28.8252548,2.82349065 29.8175431,4.66998848 C31.5093226,2.45805358 29.0712194,-1.91444127 24.4788184,0.933305379 C19.8907259,-1.91444127 17.4524354,2.45805358 19.1457135,4.66998848 C20.1380018,2.82349065 22.4474091,3.93161435 22.4620209,4.83405078 L22.4620209,13.6465404 C21.2559887,14.2763522 19.7487296,15.3128509 18.3143418,17.0369114 L8.16647489,4.72192591 C8.35811374,3.84367695 10.5199048,2.89811556 11.4696692,4.66998848 C13.1629473,2.45805358 10.7261554,-1.91444127 6.13506567,0.933305379 C1.5426646,-1.91444127 -0.894127281,2.45805358 0.799150844,4.66998848 C1.79143918,2.82349065 4.10234513,3.93161435 4.11695689,4.83405078 L4.11695689,12.713354 C2.17040827,13.142541 0,14.7539141 0,17.4923484 C0,21.0460317 3.43338881,21.4011563 3.43338881,21.4011563 C2.09716214,20.1677827 2.4821258,17.6445982 4.11676956,16.8507241 L4.11676956,27.9898985 C4.1021578,28.8923349 1.79125185,30.0012086 0.798963514,28.1554608 C-0.894314611,30.3658957 1.54247727,34.7383905 6.13487834,31.8908314 C10.7259681,34.738578 13.16276,30.3658957 11.4694819,28.1554608 C10.4771935,30.0012086 8.16778621,28.8923349 8.1516758,27.9898985 L8.1516758,17.7201606 C11.0655978,19.7070958 13.1056242,23.6534036 13.3500902,25.9422134 L13.3500902,38.9235731 C13.3500902,41.0256331 11.0230739,42.5385689 10.0337828,40.693196 C8.33900605,42.9049434 10.7757979,46.8527513 15.368199,44.0050046 C19.9577901,46.8527513 22.394582,42.9049434 20.7013039,40.693196 C19.7105142,42.5387564 17.3849965,40.8514458 17.3849965,38.9235731 L17.3849965,26.1282132 C17.4406336,25.2713392 17.777266,24.1433405 18.3347608,22.9635919 L22.4590236,28.0369609 C22.3711657,28.9290849 20.1217041,29.9719587 19.1455262,28.1556483 C17.452248,30.3660832 19.8905386,34.738578 24.478631,31.8910189 C29.0710321,34.7387655 31.5091353,30.3660832 29.8173558,28.1556483 C28.8252548,30.0012086 26.5130375,28.8923349 26.4984258,27.9898985 L26.4984258,27.9898985 Z" id="new-york-mets"></path>
                    </g>
                </g>
            </g>
        </g>
    </g>
</svg>