<?xml version="1.0" encoding="UTF-8"?>
<svg width="44px" height="45px" viewBox="0 0 44 45" version="1.1" xmlns="http://www.w3.org/2000/svg" xmlns:xlink="http://www.w3.org/1999/xlink">
    <!-- Generator: Sketch 42 (36781) - http://www.bohemiancoding.com/sketch -->
    <title>oakland-athletics</title>
    <desc>Created with Sketch.</desc>
    <defs></defs>
    <g id="Spritesheet" stroke="none" stroke-width="1" fill="none" fill-rule="evenodd">
        <g id="Artboard" transform="translate(-271.000000, -4497.000000)" fill="#000000">
            <g id="O" transform="translate(47.000000, 4446.000000)">
                <g id="Group-10" transform="translate(224.000000, 51.000000)">
                    <g id="Sprites/O/Oakland-Athletics">
                        <path d="M37.9907602,34.8483647 C36.7315026,36.4861278 33.6942207,38.2997633 32.5640783,34.5789882 L26.1154264,7.89535345 C25.2081614,1.83370993 19.8965688,-0.750230983 15.8653688,0.1873068 C10.0400052,1.54378938 10.605845,6.0233499 10.605845,6.0233499 C11.925049,4.21566646 13.6488909,4.51153902 14.4420272,5.027252 C14.9227508,5.33790859 15.8961105,5.75378138 15.2307444,7.54380079 L14.311567,9.95494137 C13.5243869,9.72934094 12.6903256,9.68537286 11.8562644,9.82898913 C7.13913977,10.6317427 8.3455601,14.8181186 8.3455601,14.8181186 C9.5314219,13.3591078 10.7758851,13.6666924 11.4224219,14.0858292 C11.9369614,14.4197179 12.3400622,14.7918146 11.9794234,16.1365851 L5.23488243,38.703924 C-0.787036015,40.7226159 0.0381869994,45 0.0381869994,45 C0.0381869994,45 2.27080433,43.1454685 6.04838516,42.7704918 C7.71497059,42.6036434 10.2949693,43.7902057 11.9997898,43.7431656 C14.4449092,43.6786535 15.4224959,42.0585544 15.3127864,40.1602468 L12.5275867,38.6015878 C12.3927074,39.3692053 11.7903618,39.9843745 10.5003625,39.4863255 L12.8809243,31.1922937 L22.3240118,31.1922937 C22.3240118,31.1922937 22.8752492,33.1727775 23.9769556,37.646386 C25.1745377,42.5214673 28.8055189,44.3349107 32.1903743,43.7255016 C35.6305648,43.1103324 37.8837406,39.4509974 38.2751211,34.505644 C38.274929,34.505644 38.2530255,34.5087161 37.9907602,34.8483647 L37.9907602,34.8483647 Z M18.1344919,13.6843565 L20.9504334,25.9654678 L14.5797885,25.9654678 L18.1344919,13.6843565 Z M41.4119293,14.4051258 C40.8182298,13.9099569 40.0631363,13.5849003 39.2746113,13.5849003 C38.683986,13.5849003 37.8952688,13.9276209 37.8952688,14.6161342 C37.8952688,15.3397836 38.7658358,15.6181841 39.3243744,15.7998165 L40.1451783,16.045961 C41.8690202,16.5557219 43.2014816,17.4258676 43.2014816,19.4268954 C43.2014816,20.6603057 42.9054004,21.9229001 41.9187833,22.7609817 C40.9513799,23.5812073 39.6525423,23.9268079 38.4036599,23.9268079 C36.843902,23.9268079 35.3150779,23.3995749 34.0500561,22.5148373 L35.4309357,19.9220643 C36.2356002,20.6280497 37.1884014,21.1994427 38.2893392,21.1994427 C39.0459697,21.1994427 39.8506342,20.824466 39.8506342,19.9543204 C39.8506342,19.0519187 38.5840754,18.7383821 37.8950766,18.5421577 C35.8749614,17.9678846 34.5440371,17.4406516 34.5440371,15.044103 C34.5440371,12.5333143 36.3337816,10.8926712 38.814254,10.8926712 C40.0631363,10.8926712 41.5921526,11.2851199 42.6915533,11.9091211 L41.4119293,14.4051258 Z M30.211184,14.6687423 C30.6992088,14.4371899 30.9601291,14.4108858 31.3851334,13.3619878 C31.7634487,12.4273301 31.2504462,12.5035542 30.7799058,12.5269783 C29.6380431,12.5912984 29.2480075,11.1441916 30.04979,10.2037738 C30.7138111,9.42156436 32.5813705,9.42156436 33.1253068,10.7164148 C33.8289079,12.386434 33.0373086,13.8394928 32.2370633,14.5308861 C31.9438641,14.7799105 31.0921264,15.2896715 30.7007459,15.3776077 L30.211184,14.6687423 Z" id="Combined-Shape-Copy-2"></path>
                    </g>
                </g>
            </g>
        </g>
    </g>
</svg>