<?xml version="1.0" encoding="UTF-8"?>
<svg width="33px" height="45px" viewBox="0 0 33 45" version="1.1" xmlns="http://www.w3.org/2000/svg" xmlns:xlink="http://www.w3.org/1999/xlink">
    <!-- Generator: Sketch 42 (36781) - http://www.bohemiancoding.com/sketch -->
    <title>san-francisco-giants-color</title>
    <desc>Created with Sketch.</desc>
    <defs></defs>
    <g id="Spritesheet" stroke="none" stroke-width="1" fill="none" fill-rule="evenodd">
        <g id="Artboard" transform="translate(-495.000000, -5533.000000)" fill="#FE5A1D">
            <g id="S" transform="translate(47.000000, 5482.000000)">
                <g id="Group-45" transform="translate(448.000000, 51.000000)">
                    <g id="Sprites/S/San-Francisco-Giants-(Color)">
                        <path d="M0.335814074,3.82145914 C2.10453519,2.97470866 3.98806087,1.19577952 4.6558192,0 C6.36090334,0.804143973 22.0499993,0.676754828 23.8651582,0 C24.9585964,1.59150356 26.1313657,2.48537942 27.7857123,3.02570736 C27.6371543,4.56233891 27.6835921,5.10697054 28.1853783,6.34105287 L23.8649432,6.34105287 L22.0497843,4.31939576 L6.66704882,4.31939576 L4.65603419,6.08132534 L4.65603419,14.2523061 L6.65844923,16.201446 L9.20543344,16.3036586 C9.20543344,13.2693439 9.23510203,12.6950168 7.0112475,12.0989561 C7.75102741,10.6096651 7.90001535,10.4392391 8.09587106,8.58391951 C10.0002507,9.22237152 29.7120209,8.87743099 30.5709052,8.38401324 C30.4348167,10.3161537 31.5194402,13.9841863 32.2551353,15.3506071 L27.9351302,15.3506071 C27.7175605,13.8524935 26.7698855,12.6950168 25.2649568,12.413986 L13.5250086,12.413986 L13.5250086,16.3036586 C13.5250086,16.3036586 22.6579905,16.5504751 23.8651582,16.1420552 C24.4651948,17.6993444 26.6204675,19.9891212 28.1855933,20.6193962 C27.6623081,23.8064919 27.7601285,29.2493652 28.1855933,32.560407 C26.4802942,33.403069 24.7496263,35.1307843 23.8651582,36.8804483 C21.7187,36.288261 13.5250086,36.5862913 13.5250086,36.5862913 L13.5250086,39.0292794 C13.9461736,40.6976038 14.8388113,41.1058085 16.4166215,41.2381469 C16.4166215,41.2381469 15.1535564,43.6165797 15.1066886,45 L7.72587361,45 C7.69190522,43.6467055 6.40755613,41.2381469 6.40755613,41.2381469 C7.82347898,41.174022 8.98872372,40.3315752 9.20543344,39.0292794 L9.20543344,36.5862913 C9.20543344,36.5862913 6.61609624,36.4799902 4.65603419,36.8804483 C4.06911203,35.5519001 1.90502466,33.1648599 0.336029064,32.560407 C0.697426925,31.5987481 0.52736999,25.632116 0,24.3724268 L4.6558192,24.3724268 L4.6558192,30.4412714 L6.47119311,32.560407 L9.20521845,32.560407 L9.20521845,20.0315126 C9.20521845,20.0315126 6.81109199,19.9120852 4.6558192,20.0739039 C4.03922844,18.8740359 2.18945617,16.9330729 0.335814074,16.0144508 C0.913921658,13.8139755 0.964874242,5.90250714 0.335814074,3.82145914 L0.335814074,3.82145914 Z M13.5250086,20.0315126 L13.5250086,24.5680293 C13.5250086,24.5680293 19.2824355,24.9340579 21.0380423,23.8615791 C20.727812,24.8703634 20.8213326,28.1428872 21.0380423,28.6875188 C18.8146177,27.5429532 13.5250086,27.9901063 13.5250086,27.9901063 L13.5250086,32.5601918 L22.0499993,32.5601918 L23.869888,30.4410562 L23.869888,22.6274967 L21.760623,20.1804201 C20.5068025,20.0485121 16.0378094,20.0315126 13.5250086,20.0315126 L13.5250086,20.0315126 Z"></path>
                    </g>
                </g>
            </g>
        </g>
    </g>
</svg>