<?xml version="1.0" encoding="UTF-8"?>
<svg width="34px" height="45px" viewBox="0 0 34 45" version="1.1" xmlns="http://www.w3.org/2000/svg" xmlns:xlink="http://www.w3.org/1999/xlink">
    <!-- Generator: Sketch 42 (36781) - http://www.bohemiancoding.com/sketch -->
    <title>san-diego-padres</title>
    <desc>Created with Sketch.</desc>
    <defs></defs>
    <g id="Spritesheet" stroke="none" stroke-width="1" fill="none" fill-rule="evenodd">
        <g id="Artboard" transform="translate(-271.000000, -5533.000000)" fill="#000000">
            <g id="S" transform="translate(47.000000, 5482.000000)">
                <g id="Group-43" transform="translate(224.000000, 51.000000)">
                    <g id="Sprites/S/San-Diego-Padres">
                        <path d="M30.0293443,11.3245653 C28.7809092,10.2046008 26.5931802,8.74605498 23.4391819,8.74605498 C21.7888089,8.74605498 7.63915732,8.75595502 7.63915732,8.75595502 L7.63915732,9.03855615 C7.63915732,9.03855615 8.00296953,9.05133621 8.12849644,9.04845619 C8.67556354,9.05817623 9.0111412,9.26049704 9.3161464,9.58629835 C9.62115159,9.91119964 9.79955086,10.0161401 9.79955086,10.8671835 L9.79955086,16.5913864 L5.37589646,16.5913864 C5.06891304,16.5913864 4.8423172,16.4529658 4.67956384,16.2675651 C4.5178895,16.0821643 4.45890265,15.8985636 4.45890265,15.6314425 L4.45890265,7.62033048 C4.45890265,6.75362701 4.7452047,6.16178465 5.18850529,5.57768231 C5.63072686,4.99465998 6.58494714,4.46365785 7.5557125,4.46365785 L18.1740656,4.46365785 C18.4517355,4.46365785 18.6876829,4.53727815 18.8860442,4.73941896 C19.0851248,4.94065976 19.1691091,5.13398054 19.1691091,5.35682143 C19.1691091,5.57966232 19.1234303,5.86334345 18.7633947,6.13424454 C18.3551625,6.41000564 17.8670822,6.40226561 17.8670822,6.40226561 L17.8670822,6.70160681 L23.9411097,6.70160681 L23.9411097,4.49695799 C23.9411097,3.27097308 23.5470847,2.18340873 22.5809951,1.30806523 C21.6161644,0.43254173 20.6572683,0.00072000288 18.3310642,0.00072000288 L7.85496288,0.00072000288 L7.85100645,0 C5.4641969,0 3.36566762,1.10430442 2.06130282,2.5509702 C0.756938019,3.99763599 0,5.97746391 0,7.94253177 L0,15.7691431 C0,17.2836691 0.704245493,18.6774147 1.62591509,19.5342181 C2.54866372,20.3910216 3.67552845,21.0456842 5.47300896,21.0467642 L18.5778019,21.0467642 C18.8346105,21.0467642 19.0874627,21.1752847 19.2451806,21.3549254 C19.403438,21.5345661 19.480049,21.748767 19.480049,21.9408278 L19.480049,29.2267169 C19.480049,30.00828 19.1541826,30.7776031 18.7060264,31.2909652 C18.25805,31.8052272 17.457771,32.4089496 16.2436849,32.4089496 L14.257914,32.4089496 L14.257914,22.7241909 L9.79559443,22.7241909 L9.79559443,32.4091296 L5.37194002,32.4091296 C5.08851538,32.4091296 4.87864447,32.2986092 4.71103548,32.1303085 C4.54324665,31.9623678 4.45512605,31.7213469 4.45512605,31.491306 C4.45512605,31.1941248 4.47185098,27.240589 4.47185098,27.240589 C4.47185098,27.240589 4.47185098,26.7819471 4.59252226,26.5317461 C4.69251217,26.3245653 4.79537949,26.1105444 4.95237804,25.9429638 C5.14462483,25.737583 5.3789537,25.5610022 5.63881957,25.4560618 C5.94670218,25.3316813 6.62541068,25.3048612 6.62541068,25.3048612 L6.62541068,25.0075 L0.00107902782,25.0075 L0.00107902782,31.491306 C0.00107902782,32.7302509 0.448336061,34.1814167 1.54462833,35.2821211 C2.6409206,36.3822855 3.94222816,36.8790875 5.37301905,36.8790875 L9.79667345,36.8790875 L9.79667345,42.758451 C9.79667345,43.1933328 9.62205078,43.6564746 9.22784595,44.0413162 C8.83364112,44.4272377 8.34232379,44.5742983 8.12058357,44.6300985 C7.89992238,44.6864387 7.85478305,44.6948988 7.45967902,44.746739 L7.45967902,45 L23.3677862,44.98992 C25.9783142,44.98992 28.6818184,43.8742755 30.4546611,41.9862479 C31.8288031,40.5228421 33.1887378,38.4056736 33.1887378,35.1901408 C33.1887378,33.4567338 33.1180615,21.9181477 33.1887378,18.3541334 C33.2525803,15.1123204 31.2786787,12.4434498 30.0293443,11.3245653 L30.0293443,11.3245653 Z M28.7249795,35.8455234 C28.7249795,37.0900484 28.2032696,38.3208933 27.3571319,39.1544766 C26.5109943,39.9869799 25.2244334,40.5228421 24.0286908,40.5228421 L14.2575543,40.5228421 L14.2575543,36.8783675 L16.8367905,36.8783675 C18.3920293,36.8783675 20.2261967,36.4179257 21.828553,34.8740595 C23.4316287,33.3291133 23.9378726,31.2769251 23.9378726,29.8124392 L23.9378726,22.1053484 C23.9378726,20.5271021 23.4140046,19.1833967 22.3795766,18.1586526 C21.3449687,17.1340885 19.9785598,16.5903064 18.5463302,16.5903064 L14.2577342,16.5903064 L14.2577342,13.2320329 L23.9378726,13.2320329 C25.3828707,13.2320329 26.5404877,13.745395 27.3868052,14.6522386 C28.2340219,15.5601622 28.7251594,16.748707 28.7251594,17.7705711 L28.7251594,35.8455234 L28.7249795,35.8455234 Z"></path>
                    </g>
                </g>
            </g>
        </g>
    </g>
</svg>