<?xml version="1.0" encoding="UTF-8"?>
<svg width="25px" height="45px" viewBox="0 0 25 45" version="1.1" xmlns="http://www.w3.org/2000/svg" xmlns:xlink="http://www.w3.org/1999/xlink">
    <!-- Generator: Sketch 42 (36781) - http://www.bohemiancoding.com/sketch -->
    <title>seattle-mariners</title>
    <desc>Created with Sketch.</desc>
    <defs></defs>
    <g id="Spritesheet" stroke="none" stroke-width="1" fill="none" fill-rule="evenodd">
        <g id="Artboard" transform="translate(-47.000000, -5635.000000)" fill="#000000">
            <g id="S" transform="translate(47.000000, 5482.000000)">
                <g id="Group-49" transform="translate(0.000000, 153.000000)">
                    <g id="Sprites/S/Seattle-Mariners">
                        <g>
                            <path d="M15.9176059,16.2108686 L14.7916525,16.9280085 C14.5327119,16.7680297 14.2693856,16.605 14.0075847,16.4406356 L13.7499788,14.8477119 C14.43375,15.2971398 15.181589,15.7583898 15.9176059,16.2108686 Z M7.39983051,25.9833051 C5.97851695,25.0667161 4.55872881,24.0627966 3.3542161,22.7720975 L5.46788136,23.118178 C6.25347458,23.777161 7.08692797,24.3511017 7.90455508,24.8806144 L7.39983051,25.9833051 Z M11.0383475,26.7105508 L11.2988136,28.3806992 C10.823072,28.0170763 10.3139619,27.6648941 9.7857839,27.3157627 L10.9044915,26.6175 C10.9481568,26.6495339 10.9931568,26.6785169 11.0383475,26.7105508 Z M21.8543644,22.7863983 L23.034089,22.5869492 C24.0029237,24.3829449 24.6779237,26.6668856 24.6779237,29.6084746 C24.6779237,39.2972034 17.8142797,44.6098729 11.7930508,44.6098729 C8.96930085,44.6098729 5.51288136,42.9223729 5.51288136,42.9223729 L0.171038136,44.848411 L0.171038136,27.7899788 C4.25459746,28.1215678 4.48741525,30.5424153 5.96688559,33.1056992 C7.25434322,35.3345339 9.0190678,37.4205508 11.5037924,37.4205508 C14.2562288,37.4205508 14.5862924,34.6622034 14.5862924,33.6352119 C14.5862924,32.4859958 14.1660381,31.4938983 13.4763559,30.600572 L13.7295763,29.0701907 C15.1116102,30.4899788 15.7881356,31.9883263 15.7881356,33.6352119 C15.7881356,35.9365042 14.6663771,38.6220127 11.5037924,38.6220127 C8.98684322,38.6220127 6.83675847,37.013072 4.92673729,33.7078602 C4.61688559,33.1697669 4.33620763,32.6810593 4.09461864,32.18625 C3.4953178,30.9556144 2.81307203,29.9314831 1.37135593,29.6811229 L1.37135593,43.1376483 L5.68182203,41.4995339 C5.68182203,41.4995339 8.59423729,43.4082203 11.7932415,43.4082203 C14.6110805,43.4082203 17.4681992,42.1310593 19.6329661,39.9050847 C21.3858686,38.1012712 23.4764619,34.8513559 23.4764619,29.6084746 C23.4764619,27.0162076 22.9702119,24.7206356 21.8543644,22.7863983 Z M18.1229873,17.3616102 C19.3101483,18.2009746 20.840339,19.3749788 22.1236017,21.1412288 L20.4361017,20.8662712 C19.4931992,19.8434746 18.4488559,19.0668432 17.5337924,18.4164407 L18.0123941,17.2962076 C18.0619703,17.3223305 18.1010593,17.3455932 18.1229873,17.3616102 Z M3.52868644,21.1191102 L2.20194915,21.3402966 C0.904385593,19.4461017 0.0503389831,16.9905508 0.0503389831,13.5747458 C0.0503389831,4.41858051 6.8659322,0.159025424 11.5676695,0.159025424 C14.9922458,0.159025424 17.4697246,2.20595339 17.4697246,2.20595339 L22.1409534,0.514067797 L22.1409534,16.0217161 C20.9246186,16.0217161 19.8903814,15.5433051 19.0422458,14.8856568 L19.4291314,13.9765042 L18.5941525,14.5088771 C17.5322669,13.5356568 16.813411,12.3282839 16.4482627,11.6313559 C16.0627119,10.8951483 15.1201907,7.36741525 12.4346822,7.36741525 C10.7021822,7.36741525 10.2613347,9.17847458 10.2613347,10.2405508 C10.2613347,11.3256992 10.7937076,12.3469703 11.6723517,13.2431568 L11.4454449,14.6688559 C9.88302966,13.3581356 9.0596822,11.8393856 9.0596822,10.2405508 C9.0596822,8.27809322 10.1156568,6.16576271 12.4346822,6.16576271 C14.759428,6.16576271 15.8083475,7.70338983 17.0942797,9.87540254 C18.2625636,11.8466314 18.4866102,13.7129873 20.9393008,14.462161 L20.9393008,2.22769068 L17.3488347,3.65777542 C17.3488347,3.65777542 14.8875636,1.36067797 11.5676695,1.36067797 C9.32148305,1.36067797 7.06519068,2.28146186 5.18567797,4.09404661 C3.53154661,5.68849576 1.2504661,8.79730932 1.2504661,13.5747458 C1.2504661,16.6530508 1.99830508,19.1232839 3.52868644,21.1191102 Z" id="Combined-Shape"></path>
                            <g id="Group" transform="translate(2.097458, 2.097458)">
                                <path d="M6.36864407,18.1983051 L3.5117161,11.8977331 L8.93364407,15.176822 L9.17370763,13.6712288 C7.39010593,12.3444915 6.12152542,10.7368856 6.12152542,8.15338983 C6.12152542,5.06936441 8.01133475,3.09241525 10.1162288,3.09241525 C15.0319068,3.09241525 15.69375,9.07436441 17.9109534,10.8709322 L17.9109534,1.41044492 C16.514428,1.90658898 15.4174576,2.59608051 15.1613771,2.59608051 C14.7119492,2.59608051 12.707161,0.0968644068 9.50815678,0.0968644068 C5.59639831,0.0968644068 0.045,4.05228814 0.045,11.266589 C0.045,14.6459746 0.987711864,17.0332627 2.38995763,18.8618644 L6.36864407,18.1983051 L6.36864407,18.1983051 Z" id="Shape"></path>
                                <path d="M15.012839,17.3095551 L14.6476907,18.1649364 L16.5302542,18.4734534 C16.0457415,18.0528178 15.5352966,17.6703178 15.012839,17.3095551 L15.012839,17.3095551 Z" id="Shape"></path>
                                <path d="M4.80050847,21.2548729 C5.21790254,21.5822669 5.64711864,21.8898305 6.08358051,22.1836653 L6.39057203,21.5151483 L4.80050847,21.2548729 L4.80050847,21.2548729 Z" id="Shape"></path>
                                <path d="M14.608411,21.5588136 L14.6171822,21.7317585 L17.3579873,27.8220127 L12.0392161,24.5198517 L11.8063983,25.9251483 C13.415339,27.2518856 14.5311864,28.8522458 14.5311864,31.2786229 C14.5311864,34.8833898 12.5193432,37.4642161 9.75527542,37.4642161 C3.17688559,37.4642161 1.89667373,30.7576907 0.190105932,29.1108051 L0.194491525,39.6491949 C2.39701271,38.9858263 3.01824153,38.2875636 3.45889831,38.2875636 C4.23877119,38.2875636 5.94076271,40.3939831 9.63591102,40.3939831 C14.9165466,40.3939831 20.457839,35.2819068 20.457839,27.5951059 C20.457839,24.6912712 19.7538559,22.5469068 18.6582203,20.8748517 L14.608411,21.5588136 L14.608411,21.5588136 Z" id="Shape"></path>
                            </g>
                            <path d="M11.3022328,17.8599486 L12.5744492,9.85938559 L13.872851,17.8594253 L14.0161653,17.8487924 L18.6408686,14.9058686 L16.2340565,20.5446964 L24.7376059,21.9338771 L16.3273914,23.3555459 L16.3582627,23.9152119 L18.6408686,28.9916314 L13.8706388,26.0255949 L12.5439407,34.0077966 L11.2838313,25.9584719 L6.41783898,28.9916314 L8.91,23.5559746 L8.91238105,23.3168571 L0.651355932,21.9630508 L8.93961074,20.5823162 L8.94050847,20.492161 L6.41783898,14.9058686 L11.3022328,17.8599486 Z M12.5744492,9.85938559 L12.5439407,21.9615254 L10.9218432,20.2520975 L0.651355932,21.9630508 L12.5439407,21.9615254 L10.9218432,23.6461653 L12.5439407,34.0077966 L12.5439407,21.9615254 L14.2562288,23.7056568 L24.7376059,21.9338771 L12.5439407,21.9615254 L14.2562288,20.221589 L12.5744492,9.85938559 Z" id="Combined-Shape"></path>
                        </g>
                    </g>
                </g>
            </g>
        </g>
    </g>
</svg>