<?xml version="1.0" encoding="UTF-8"?>
<svg width="25px" height="45px" viewBox="0 0 25 45" version="1.1" xmlns="http://www.w3.org/2000/svg" xmlns:xlink="http://www.w3.org/1999/xlink">
    <!-- Generator: Sketch 42 (36781) - http://www.bohemiancoding.com/sketch -->
    <title>seattle-mariners-color</title>
    <desc>Created with Sketch.</desc>
    <defs></defs>
    <g id="Spritesheet" stroke="none" stroke-width="1" fill="none" fill-rule="evenodd">
        <g id="Artboard" transform="translate(-943.000000, -5533.000000)">
            <g id="S" transform="translate(47.000000, 5482.000000)">
                <g id="Group-47" transform="translate(896.000000, 51.000000)">
                    <g id="Sprites/S/Seattle-Mariners-(Color)">
                        <g>
                            <path d="M0.171349545,27.7899788 C4.25778814,28.1215678 4.49057928,30.5424153 5.9712836,33.1056992 C7.259649,35.3343432 9.02542705,37.4205508 11.5120944,37.4205508 C14.2664715,37.4205508 14.5967678,34.6622034 14.5967678,33.6352119 C14.5967678,32.0319915 13.7844794,30.7401483 12.5573648,29.5878814 C12.3623545,29.4075 12.0303409,28.9565466 11.8179667,28.7818856 C10.9881235,28.0981144 10.027383,27.4581992 9.02580867,26.8209534 C8.75199286,26.6462924 8.60373162,26.7423941 8.32552712,26.5677331 C4.35281272,24.0687076 0.0509469138,21.2398093 0.0509469138,13.5745551 C0.0509469138,4.41819915 6.87134574,0.158834746 11.5763982,0.158834746 C15.0031983,0.158834746 17.4826147,2.20576271 17.4826147,2.20576271 L22.1571372,0.513877119 L22.1571372,16.0215254 C19.0619691,16.0215254 17.1435411,12.9346398 16.4606235,11.6311653 C16.0749916,10.8951483 15.131615,7.36722458 12.444213,7.36722458 C10.7103006,7.36722458 10.2693332,9.17847458 10.2693332,10.2403602 C10.2693332,11.7226907 11.2621301,13.0873729 12.7731736,14.1740466 C13.7194124,14.8534322 14.9148521,15.5881144 16.0706029,16.2964831 C16.6224324,16.6368432 17.9455256,17.2260381 18.1363381,17.3612288 C20.6459029,19.1360593 24.6960871,22.4019915 24.6960871,29.6082839 C24.6960871,39.2970127 17.8276036,44.6096822 11.8021293,44.6096822 C8.97638826,44.6096822 5.51753168,42.9221822 5.51753168,42.9221822 L0.171921982,44.8482203 L0.171921982,27.7899788 L0.171349545,27.7899788 Z" id="Shape" fill="#003263"></path>
                            <g id="Group" fill="#006A65">
                                <path d="M15.9288293,16.2108686 C15.1922934,15.7583898 14.4439271,15.2971398 13.7596738,14.8477119 L14.0174613,16.4406356 C14.2794468,16.605 14.5429587,16.7680297 14.802082,16.9280085 L15.9288293,16.2108686 L15.9288293,16.2108686 Z" id="Shape"></path>
                                <path d="M7.40504805,25.9833051 L7.91012851,24.8806144 C7.09192489,24.3511017 6.25788384,23.777161 5.4717367,23.118178 L3.35658112,22.7720975 C4.56194313,24.0627966 5.98273234,25.0667161 7.40504805,25.9833051 L7.40504805,25.9833051 Z" id="Shape"></path>
                                <path d="M11.0461305,26.7105508 C11.0009079,26.6785169 10.9558762,26.6495339 10.9121802,26.6175 L9.79268375,27.3157627 C10.3212341,27.6648941 10.8307033,28.0170763 11.3067802,28.3806992 L11.0461305,26.7105508 L11.0461305,26.7105508 Z" id="Shape"></path>
                                <path d="M21.8697737,22.7863983 C22.9864079,24.7206356 23.4930149,27.0162076 23.4930149,29.6084746 C23.4930149,34.8513559 21.4009476,38.1012712 19.6468091,39.9050847 C17.4805158,42.1310593 14.6213826,43.4082203 11.8015568,43.4082203 C8.600297,43.4082203 5.68582823,41.4995339 5.68582823,41.4995339 L1.37232286,43.1376483 L1.37232286,29.6811229 C2.8150555,29.9314831 3.49778231,30.9556144 4.09750572,32.18625 C4.33926504,32.6810593 4.62014091,33.1697669 4.93021108,33.7078602 C6.841579,37.013072 8.99317975,38.6220127 11.5119036,38.6220127 C14.6767182,38.6220127 15.7992676,35.9365042 15.7992676,33.6352119 C15.7992676,31.9883263 15.1222652,30.4899788 13.7392569,29.0701907 L13.485858,30.600572 C14.1760265,31.4938983 14.596577,32.4859958 14.596577,33.6352119 C14.596577,34.6622034 14.2662807,37.4205508 11.5119036,37.4205508 C9.02542705,37.4205508 7.25945818,35.3345339 5.97109278,33.1056992 C4.49057928,30.5424153 4.25759733,28.1215678 0.171158733,27.7899788 L0.171158733,44.848411 L5.51676843,42.9223729 C5.51676843,42.9223729 8.97562501,44.6098729 11.801366,44.6098729 C17.8268403,44.6098729 24.6953239,39.2972034 24.6953239,29.6084746 C24.6953239,26.6668856 24.0198479,24.3829449 23.0503301,22.5869492 L21.8697737,22.7863983 L21.8697737,22.7863983 Z" id="Shape"></path>
                                <path d="M18.1357656,17.3616102 C18.1138222,17.3455932 18.0747056,17.3223305 18.0250944,17.2962076 L17.5461553,18.4164407 C18.461864,19.0668432 19.5069436,19.8434746 20.450511,20.8662712 L22.1392008,21.1412288 C20.8550333,19.3749788 19.3237637,18.2009746 18.1357656,17.3616102 L18.1357656,17.3616102 Z" id="Shape"></path>
                                <path d="M3.53117448,21.1191102 C1.99971407,19.1232839 1.25134779,16.6530508 1.25134779,13.5747458 C1.25134779,8.79730932 3.53403667,5.68849576 5.18933433,4.09404661 C7.07017227,2.28146186 9.32805553,1.36067797 11.5758257,1.36067797 C14.8980606,1.36067797 17.3610672,3.65777542 17.3610672,3.65777542 L20.9540649,2.22769068 L20.9540649,14.462161 C18.4996449,13.7129873 18.2754403,11.8466314 17.1063327,9.87540254 C15.8194938,7.70338983 14.7698347,6.16576271 12.4434498,6.16576271 C10.1227892,6.16576271 9.06607009,8.27809322 9.06607009,10.2405508 C9.06607009,11.8393856 9.88999808,13.3581356 11.453515,14.6688559 L11.6805817,13.2431568 C10.8013182,12.3469703 10.2685699,11.3256992 10.2685699,10.2405508 C10.2685699,9.17847458 10.7097282,7.36741525 12.4434498,7.36741525 C15.1308518,7.36741525 16.0740375,10.8951483 16.4598602,11.6313559 C16.825266,12.3282839 17.5446288,13.5356568 18.6072631,14.5088771 L19.4428306,13.9765042 L19.0556723,14.8856568 C19.9044059,15.5433051 20.9393724,16.0217161 22.1565647,16.0217161 L22.1565647,0.514067797 L17.4820423,2.20595339 C17.4820423,2.20595339 15.0028166,0.159025424 11.5758257,0.159025424 C6.8707733,0.159025424 0.0503744765,4.41858051 0.0503744765,13.5747458 C0.0503744765,16.9905508 0.905023266,19.4461017 2.20350172,21.3402966 L3.53117448,21.1191102 L3.53117448,21.1191102 Z" id="Shape"></path>
                            </g>
                            <g id="Group" transform="translate(2.098937, 2.097458)" fill="#C4CDD3">
                                <path d="M6.37313453,18.1983051 L3.51419218,11.8977331 L8.93994309,15.176822 L9.18017591,13.6712288 C7.39531662,12.3444915 6.12584165,10.7368856 6.12584165,8.15338983 C6.12584165,5.06936441 8.01698346,3.09241525 10.1233617,3.09241525 C15.0425056,3.09241525 15.7048155,9.07436441 17.9235822,10.8709322 L17.9235822,1.41044492 C16.5260721,1.90658898 15.4283283,2.59608051 15.1720672,2.59608051 C14.7223224,2.59608051 12.7161207,0.0968644068 9.51486088,0.0968644068 C5.60034427,0.0968644068 0.045031729,4.05228814 0.045031729,11.266589 C0.045031729,14.6459746 0.98840829,17.0332627 2.39164276,18.8618644 L6.37313453,18.1983051 L6.37313453,18.1983051 Z" id="Shape"></path>
                                <path d="M15.0234244,17.3095551 L14.6580186,18.1649364 L16.5419095,18.4734534 C16.0570552,18.0528178 15.5462504,17.6703178 15.0234244,17.3095551 L15.0234244,17.3095551 Z" id="Shape"></path>
                                <path d="M4.80389326,21.2548729 C5.22158163,21.5822669 5.65110037,21.8898305 6.08786998,22.1836653 L6.39507796,21.5151483 L4.80389326,21.2548729 L4.80389326,21.2548729 Z" id="Shape"></path>
                                <path d="M14.6187113,21.5588136 L14.6274886,21.7317585 L17.3702262,27.8220127 L12.0477048,24.5198517 L11.8147229,25.9251483 C13.424798,27.2518856 14.5414322,28.8522458 14.5414322,31.2786229 C14.5414322,34.8833898 12.5281705,37.4642161 9.76215377,37.4642161 C3.17912558,37.4642161 1.89801105,30.7576907 0.190239974,29.1108051 L0.194628659,39.6491949 C2.39870282,38.9858263 3.02036966,38.2875636 3.46133714,38.2875636 C4.2417599,38.2875636 5.94495148,40.3939831 9.6427052,40.3939831 C14.9270641,40.3939831 20.4722636,35.2819068 20.4722636,27.5951059 C20.4722636,24.6912712 19.7677842,22.5469068 18.6713761,20.8748517 L14.6187113,21.5588136 L14.6187113,21.5588136 Z" id="Shape"></path>
                            </g>
                            <polygon id="Shape" fill="#006A65" points="6.42236414 14.9058686 8.94681234 20.492161 8.91628235 23.5559746 6.42236414 28.9916314 11.5323205 25.8086441 13.3345437 25.6864195 18.6540121 28.9916314 16.3697968 23.9152119 16.1908147 20.6727331 18.6540121 14.9058686 14.0260479 17.8487924 11.5905183 18.0293644"></polygon>
                            <polygon id="Shape" fill="#C4CDD3" points="6.42236414 14.9058686 10.420075 19.5902542 8.91628235 23.5559746 6.42236414 28.9916314 10.6587813 24.3654025 13.3345437 25.6864195 18.6540121 28.9916314 13.8455394 23.2854025 16.1908147 20.6727331 18.6540121 14.9058686 14.2662807 19.8316525 11.5905183 18.0293644"></polygon>
                            <path d="M18.3832493,21.9615254 C18.3832493,25.1801695 15.7729355,27.7871186 12.5527853,27.7871186 C9.33263503,27.7871186 6.72232125,25.1801695 6.72232125,21.9615254 C6.72232125,18.7436441 9.33263503,16.1351695 12.5527853,16.1351695 C15.7729355,16.1351695 18.3832493,18.7436441 18.3832493,21.9615254 L18.3832493,21.9615254 Z" id="Shape" fill="#006A65"></path>
                            <path d="M18.1735465,21.9615254 C18.1735465,25.0638559 15.6578756,27.5775636 12.5525945,27.5775636 C9.44883979,27.5775636 6.93183327,25.0636653 6.93183327,21.9615254 C6.93183327,18.8599576 9.44883979,16.3447246 12.5525945,16.3447246 C15.6580665,16.3447246 18.1735465,18.8599576 18.1735465,21.9615254 L18.1735465,21.9615254 Z" id="Shape" fill="#FFFFFF"></path>
                            <g id="Group" transform="translate(8.395746, 17.542373)" fill="#EC174C">
                                <path d="M0.492868458,0.593199153 C0.5365645,0.580042373 0.641320514,0.204788136 0.641320514,0.204788136 C0.634069642,0.184385593 0.583122729,0.137860169 0.559843614,0.116122881 C0.533702314,0.136334746 0.507561014,0.161122881 0.481228901,0.183050847 L0.407002873,0.452288136 L0.341554216,0.398516949 C0.332776845,0.396991525 0.280494244,0.410148305 0.216381274,0.4275 C0.145017432,0.497288136 0.07518009,0.568601695 0.00820493368,0.644300847 C0.104183577,0.622563559 0.373610701,0.54095339 0.423031116,0.526461864 C0.450508103,0.558305085 0.492868458,0.593199153 0.492868458,0.593199153" id="Shape"></path>
                                <path d="M0.885942025,0.853474576 C0.923722882,0.837648305 1.03153189,0.444661017 1.03153189,0.444661017 C1.01855665,0.412627119 0.909221139,0.34875 0.909221139,0.34875 L0.877164654,0.332733051 L0.868387283,0.364576271 L0.77240864,0.721144068 L0.677765684,0.664322034 C0.65448657,0.661461864 0.207603903,0.796652542 0.207603903,0.796652542 C0.201688719,0.846038136 0.321137288,0.917351695 0.321137288,0.917351695 C0.341363404,0.918877119 0.737489969,0.798177966 0.785574697,0.782161017 C0.821829055,0.815720339 0.885942025,0.853474576 0.885942025,0.853474576" id="Shape"></path>
                                <path d="M0.782521698,1.19974576 C0.804274313,1.20127119 1.20459875,1.05273305 1.23665524,1.04110169 C1.27729828,1.07027542 1.34579994,1.10364407 1.34579994,1.10364407 C1.38644298,1.08476695 1.45341814,0.687584746 1.45341814,0.687584746 C1.43738989,0.659936441 1.31507914,0.600254237 1.31507914,0.600254237 L1.28168697,0.585572034 L1.27729828,0.621991525 L1.21623831,0.978368644 L1.11281798,0.926122881 C1.08953887,0.926122881 0.655631445,1.08762712 0.655631445,1.08762712 C0.652960071,1.13720339 0.782521698,1.19974576 0.782521698,1.19974576" id="Shape"></path>
                                <path d="M1.18437264,1.37574153 L1.18437264,1.37574153 C1.21642912,1.41940678 1.31107208,1.45868644 1.31107208,1.45868644 C1.33148901,1.45868644 1.72303607,1.29146186 1.75223037,1.27830508 C1.79439991,1.30595339 1.87015244,1.33646186 1.87015244,1.33646186 C1.90812411,1.31605932 1.94151628,0.917542373 1.94151628,0.917542373 C1.92415235,0.889894068 1.79745291,0.838983051 1.79745291,0.838983051 L1.76253424,0.822966102 L1.75967206,0.859385593 L1.72914207,1.21576271 L1.61847087,1.17209746 C1.59519176,1.17209746 1.1731147,1.35247881 1.1731147,1.35247881 C1.17273308,1.35838983 1.17693095,1.36849576 1.18437264,1.37574153" id="Shape"></path>
                                <path d="M1.7112057,1.5940678 C1.7127322,1.60264831 1.71864739,1.60855932 1.72589826,1.61866525 L1.72723395,1.61866525 C1.76520562,1.65641949 1.87282382,1.68559322 1.87282382,1.68559322 C1.89171424,1.68273305 2.24834264,1.47470339 2.27162176,1.46154661 C2.32104217,1.4832839 2.40843425,1.50654661 2.40843425,1.50654661 C2.44335293,1.47603814 2.39813038,1.08038136 2.39813038,1.08038136 C2.37790427,1.05711864 2.23365009,1.01936441 2.23365009,1.01936441 L2.19567842,1.00773305 L2.19873141,1.04834746 L2.23937446,1.40338983 L2.11420152,1.36849576 C2.09416621,1.37288136 1.7112057,1.5940678 1.7112057,1.5940678" id="Shape"></path>
                                <path id="Shape"></path>
                                <path d="M6.36111335,1.31167373 C6.34203211,1.33493644 6.28974951,1.67243644 6.28974951,1.67243644 C6.32600387,1.70161017 6.46739586,1.64783898 6.46739586,1.64783898 C6.48189761,1.62896186 6.52998234,1.34370763 6.53723321,1.29565678 C6.58379144,1.28116525 6.6509574,1.25790254 6.6509574,1.25790254 C6.6509574,1.2521822 6.64656872,1.24341102 6.63912703,1.23177966 L6.64218003,1.23025424 L6.63034966,1.2245339 C6.55478795,1.14158898 6.26799689,0.95529661 6.26799689,0.95529661 C6.24319128,0.952436441 6.11229397,1.00334746 6.11229397,1.00334746 L6.06268274,1.02222458 L6.45594712,1.27677966" id="Shape"></path>
                                <path d="M6.81372039,1.12709746 C6.79921865,1.15188559 6.8108582,1.48633475 6.8108582,1.48633475 C6.85016556,1.50826271 6.976865,1.44266949 6.976865,1.44266949 C6.98850456,1.42074153 6.98106288,1.15455508 6.97972719,1.09639831 C7.02475892,1.08038136 7.08734539,1.04987288 7.08734539,1.04987288 C7.08734539,1.04396186 7.08162102,1.03824153 7.06998146,1.02661017 L7.07417933,1.02661017 L7.06387546,1.02222458 C6.98392506,0.943665254 6.68244145,0.771864407 6.68244145,0.771864407 C6.65630015,0.770529661 6.53685158,0.828686441 6.53685158,0.828686441 L6.49029335,0.851949153 L6.89653298,1.08476695" id="Shape"></path>
                                <path d="M7.23598826,0.911631356 C7.22148651,0.939279661 7.25926737,1.26819915 7.25926737,1.26819915 C7.30162773,1.28993644 7.41935898,1.22014831 7.41935898,1.22014831 C7.43118935,1.19688559 7.40199505,0.929173729 7.39627068,0.875402542 C7.43996672,0.856525424 7.49224932,0.824491525 7.49224932,0.824491525 C7.49224932,0.817245763 7.48652495,0.81 7.47622108,0.801228814 L7.47774758,0.801228814 L7.47202321,0.79684322 C7.3903555,0.725529661 7.07608746,0.568411017 7.07608746,0.568411017 C7.04822884,0.568411017 6.93908414,0.633813559 6.93908414,0.633813559 L6.8969146,0.659936441 L7.31174078,0.867966102" id="Shape"></path>
                                <path d="M7.64070138,0.661461864 C7.63192401,0.691970339 7.74984608,1.00620763 7.74984608,1.00620763 C7.79354212,1.01631356 7.88818508,0.934894068 7.88818508,0.934894068 C7.89390945,0.91029661 7.80518168,0.665847458 7.78342906,0.606165254 C7.81968342,0.582902542 7.86776815,0.540762712 7.86776815,0.540762712 C7.86051728,0.495762712 7.43405154,0.332733051 7.43405154,0.332733051 C7.40619293,0.337118644 7.32032734,0.411292373 7.32032734,0.411292373 L7.28693517,0.441991525 L7.70748572,0.604830508 L7.64070138,0.661461864 Z" id="Shape"></path>
                                <path id="Shape"></path>
                                <path id="Shape"></path>
                                <path id="Shape"></path>
                                <path d="M8.03511063,7.93449153 C8.01335802,7.93144068 7.62028445,8.05080508 7.57067323,8.06548729 C7.53441887,8.03345339 7.4703059,7.99855932 7.4703059,7.99855932 C7.42947204,8.01610169 7.32471603,8.40584746 7.32471603,8.40584746 C7.33635558,8.43502119 7.44836247,8.49889831 7.44836247,8.49889831 L7.47736596,8.51644068 L7.58231278,8.12955508 L7.67829143,8.18485169 C7.69851754,8.18771186 8.14711752,8.05099576 8.14711752,8.05099576 C8.15322352,8.00447034 8.03511063,7.93449153 8.03511063,7.93449153" id="Shape"></path>
                                <path d="M7.57372622,7.65228814 C7.5517828,7.64942797 7.14268099,7.7979661 7.11787537,7.80940678 C7.07856802,7.78042373 7.00873067,7.74838983 7.00873067,7.74838983 C6.96942332,7.7659322 6.90397466,8.16158898 6.90397466,8.16158898 C6.9184764,8.19057203 7.03792497,8.24891949 7.03792497,8.24891949 L7.07284364,8.26341102 L7.13695662,7.87042373 L7.24171263,7.92286017 C7.26499174,7.92286017 7.69889917,7.76574153 7.69889917,7.76574153 C7.70176135,7.71635593 7.57372622,7.65228814 7.57372622,7.65228814" id="Shape"></path>
                                <path d="M7.1705396,7.47209746 L7.17187529,7.47209746 L7.1705396,7.47209746 C7.13848311,7.43129237 7.04536666,7.39353814 7.04536666,7.39353814 C7.02361404,7.39353814 6.62748748,7.56228814 6.60420836,7.57105932 C6.56051232,7.54207627 6.48475979,7.51271186 6.48475979,7.51271186 C6.44697894,7.53311441 6.41339595,7.9346822 6.41339595,7.9346822 C6.42942419,7.95794492 6.55765013,8.01324153 6.55765013,8.01324153 L6.59390449,8.02773305 L6.62729666,7.63207627 L6.73796786,7.67574153 C6.76124698,7.67574153 7.18351484,7.49822034 7.18351484,7.49822034 C7.18351484,7.48925847 7.17779047,7.48067797 7.1705396,7.47209746" id="Shape"></path>
                                <path d="M6.64485141,7.25663136 C6.64485141,7.24805085 6.63912703,7.23927966 6.63034966,7.23050847 L6.63187616,7.23050847 L6.63034966,7.23050847 C6.59256881,7.19275424 6.48475979,7.16338983 6.48475979,7.16338983 C6.46453368,7.16644068 6.10027279,7.37885593 6.08309967,7.38762712 C6.03654144,7.36722458 5.94609636,7.34396186 5.94609636,7.34396186 C5.91117769,7.37294492 5.95926241,7.77165254 5.95926241,7.76879237 C5.97815284,7.79510593 6.1235519,7.83 6.1235519,7.83 L6.16133276,7.84163136 L6.11477453,7.44597458 L6.24300047,7.48105932 C6.2634174,7.4778178 6.64485141,7.25663136 6.64485141,7.25663136" id="Shape"></path>
                                <path id="Shape"></path>
                                <path d="M1.99666107,7.53883475 C2.01268931,7.51862288 2.06497191,7.17521186 2.06497191,7.17521186 C2.03005324,7.14889831 1.88885206,7.20419492 1.88885206,7.20419492 C1.87282382,7.22173729 1.82626559,7.50394068 1.8203504,7.55332627 C1.77245649,7.5678178 1.70529052,7.59108051 1.70529052,7.59108051 C1.70376402,7.59985169 1.72418095,7.62311441 1.72418095,7.62311441 C1.80279566,7.70739407 2.08806022,7.89673729 2.08806022,7.89673729 C2.11133933,7.89673729 2.24376314,7.84716102 2.24376314,7.84716102 L2.29184787,7.82694915 L1.90316299,7.57391949" id="Shape"></path>
                                <path d="M1.54233672,7.72207627 C1.55550278,7.69881356 1.54519891,7.36436441 1.54519891,7.36436441 C1.50302936,7.34110169 1.38071861,7.40802966 1.38071861,7.40802966 C1.36621686,7.42824153 1.37213205,7.69881356 1.37499423,7.75411017 C1.32996251,7.76860169 1.27023822,7.79777542 1.27023822,7.79777542 C1.27023822,7.80349576 1.29199084,7.82675847 1.29199084,7.82675847 C1.37346774,7.9053178 1.67208916,8.07978814 1.67208916,8.07978814 C1.69823046,8.07978814 1.81920553,8.02163136 1.81920553,8.02163136 L1.86423726,7.99836864 L1.45818845,7.76555085" id="Shape"></path>
                                <path d="M1.12025967,7.93449153 C1.13323491,7.91122881 1.09545405,7.57963983 1.09545405,7.57963983 C1.0546202,7.55923729 0.936698126,7.63188559 0.936698126,7.63188559 C0.92353207,7.65209746 0.952726369,7.92 0.958450741,7.97224576 C0.917807698,7.99550847 0.862472098,8.02754237 0.862472098,8.02754237 C0.863998598,8.03059322 0.86972297,8.03631356 0.878500341,8.04775424 L0.876973842,8.04775424 L0.881362527,8.05080508 C0.959977241,8.12059322 1.27882478,8.28057203 1.27882478,8.28057203 C1.30649258,8.28057203 1.41563728,8.21364407 1.41563728,8.21364407 L1.45780682,8.19038136 L1.04298064,7.98082627" id="Shape"></path>
                                <path d="M0.717073041,8.18752119 C0.722797414,8.15853814 0.604875343,7.84144068 0.604875343,7.84144068 C0.562705801,7.83266949 0.468062845,7.91427966 0.468062845,7.91427966 C0.460811973,7.93754237 0.551066243,8.18485169 0.572818858,8.24300847 C0.536373688,8.26627119 0.48828896,8.31012712 0.48828896,8.31012712 C0.495539832,8.35379237 0.922196383,8.51663136 0.922196383,8.51663136 C0.949864183,8.51091102 1.03725627,8.43521186 1.03725627,8.43521186 L1.06931275,8.40889831 L0.647235699,8.24605932" id="Shape"></path>
                                <path id="Shape"></path>
                                <path id="Shape"></path>
                                <path id="Shape"></path>
                            </g>
                            <polygon id="Shape" fill="#006A65" points="12.5833153 9.85938559 10.9295441 20.2520975 0.651815197 21.9630508 10.9295441 23.6461653 12.5527853 34.0077966 14.2662807 23.7056568 24.7550482 21.9338771 14.2662807 20.221589"></polygon>
                            <polygon id="Shape" fill="#C4CDD3" points="12.5833153 9.85938559 12.5527853 21.9615254 10.9295441 20.2520975 0.651815197 21.9630508 12.5527853 21.9615254 10.9295441 23.6461653 12.5527853 34.0077966 12.5527853 21.9615254 14.2662807 23.7056568 24.7550482 21.9338771 12.5527853 21.9615254 14.2662807 20.221589"></polygon>
                        </g>
                    </g>
                </g>
            </g>
        </g>
    </g>
</svg>