<?xml version="1.0" encoding="UTF-8"?>
<svg width="37px" height="45px" viewBox="0 0 37 45" version="1.1" xmlns="http://www.w3.org/2000/svg" xmlns:xlink="http://www.w3.org/1999/xlink">
    <!-- Generator: Sketch 42 (36781) - http://www.bohemiancoding.com/sketch -->
    <title>st-louis-cardinals</title>
    <desc>Created with Sketch.</desc>
    <defs></defs>
    <g id="Spritesheet" stroke="none" stroke-width="1" fill="none" fill-rule="evenodd">
        <g id="Artboard" transform="translate(-495.000000, -5635.000000)" fill="#000000">
            <g id="S" transform="translate(47.000000, 5482.000000)">
                <g id="Group-48-Copy" transform="translate(448.000000, 153.000000)">
                    <g id="Sprites/S/St.-Louis-Cardinals">
                        <path d="M25.3976887,20.4879808 L25.3976887,17.8052885 L29.9584652,17.8052885 L29.9584652,14.2788462 L17.3136585,14.2788462 L17.3136585,17.8052885 L21.917665,17.8052885 L21.917665,20.3149038 C17.7675746,20.4230769 11.564054,19.5793269 11.564054,19.5793269 L11.564054,9.97355769 C15.0224627,9.25961538 23.9494801,10.6225962 28.4886415,12.2451923 L30.2610759,8.52403846 C30.2610759,8.52403846 29.2667835,8.50240385 28.0995705,8.24278846 C25.0086178,7.52884615 16.8165122,5.47355769 11.564054,6.33894231 L11.564054,3.63461538 L13.7255594,3.63461538 L13.7255594,0 L5.74960443,0 L5.74960443,3.63461538 L7.93272491,3.63461538 L7.93272491,6.87980769 C4.08524525,7.42067308 0,10.2331731 0,15.0576923 C0,19.96875 4.0636302,22.5649038 7.93272491,22.9975962 L7.93272491,31.3485577 C7.21942812,31.1322115 6.48451627,30.65625 5.59829905,30.1370192 C5.07953775,29.8125 4.27978074,29.2716346 4.27978074,29.2932692 L1.90212477,32.7115385 C1.92373983,32.7331731 2.96126243,33.0360577 3.45840868,33.2091346 C4.71208183,33.8149038 6.22513562,34.59375 7.93272491,35.2427885 L7.93272491,41.2572115 L4.15009042,41.2572115 L4.15009042,45 L29.2019383,45 C29.2019383,45 31.5363642,44.9350962 32.8332674,44.2427885 C35.1460782,43.0096154 36.248446,41.7980769 36.248446,41.7980769 L33.7194846,38.9423077 C33.5681792,39.5048077 32.7035771,40.0456731 31.9297581,40.4783654 C30.7409302,41.1706731 29.0549559,41.2572115 29.0549559,41.259375 L11.5856691,41.259375 L11.5856691,36.3699519 C14.7630821,37.1487981 18.329566,37.603125 22.7390371,37.5598558 C29.872005,37.5165865 34.1517857,33.384375 34.1517857,28.9060096 C34.1517857,24.9014423 31.2553684,20.4879808 25.3976887,20.4879808 L25.3976887,20.4879808 Z M7.93272491,10.3413462 L7.93272491,18.8221154 C5.42537862,18.7572115 3.95555493,17.0697115 3.95555493,14.6899038 C3.97716998,12.3317308 6.00898508,10.6009615 7.93272491,10.3413462 L7.93272491,10.3413462 Z M21.9392801,24.0360577 L21.9392801,29.7692308 L25.3976887,29.7692308 L25.3976887,24.2740385 C28.0779555,24.2524038 30.0016953,26.3942308 30.0016953,28.8822115 C30.0016953,31.5 27.6240393,33.9447115 21.2259833,33.9447115 C16.2329057,33.9447115 11.5856691,32.3004808 11.5856691,32.3004808 L11.5856691,23.3004808 C11.5856691,23.3004808 17.91888,24.0576923 21.9392801,24.0360577 L21.9392801,24.0360577 Z"></path>
                    </g>
                </g>
            </g>
        </g>
    </g>
</svg>