<?xml version="1.0" encoding="UTF-8"?>
<svg width="49px" height="45px" viewBox="0 0 49 45" version="1.1" xmlns="http://www.w3.org/2000/svg" xmlns:xlink="http://www.w3.org/1999/xlink">
    <!-- Generator: Sketch 42 (36781) - http://www.bohemiancoding.com/sketch -->
    <title>tampa-bay-rays-color</title>
    <desc>Created with Sketch.</desc>
    <defs></defs>
    <g id="Spritesheet" stroke="none" stroke-width="1" fill="none" fill-rule="evenodd">
        <g id="Artboard" transform="translate(-47.000000, -5920.000000)" fill="#061F41">
            <g id="T" transform="translate(47.000000, 5869.000000)">
                <g id="Group-23" transform="translate(0.000000, 51.000000)">
                    <g id="Sprites/T/Tampa-Bay-Rays-(Color)">
                        <path d="M41.3465511,27.1156292 C42.2745285,27.4247371 43.1165821,27.6479817 43.9242662,27.9914349 C47.0347092,29.348075 48.5813383,31.7522473 48.6500773,35.1524339 C48.6844469,37.5222609 48.2376429,39.7203613 46.6910138,41.5921811 C45.0240914,43.618555 42.7385173,44.4771879 40.2295412,44.8206411 C39.2500094,44.9580224 38.2704777,44.9923677 37.2737611,44.9923677 C32.0495918,45.0095404 26.8426071,44.9923677 21.6184378,44.9923677 L20.7248298,44.9923677 L20.7248298,42.5195047 C22.1683503,42.2619149 23.6290556,41.9699796 25.1069456,41.7639077 C25.6912277,41.6780444 25.8287058,41.4719725 25.8287058,40.9052748 C25.8115211,32.473499 25.8115211,24.0417232 25.8287058,15.6099474 C25.8287058,14.9917317 25.6224886,14.8028324 25.0725761,14.7341418 C23.6290556,14.5280699 22.2027199,14.27048 20.7248298,14.0300628 L20.7248298,11.6087178 L21.4122205,11.6087178 L36.0364579,11.6087178 C38.0642604,11.6087178 40.0576935,11.849135 41.9995722,12.5188687 C44.9209828,13.5320556 46.4504271,15.5756021 46.6394595,18.6495081 C46.8456767,22.0668674 45.3334172,24.5397303 42.5666696,26.3772049 C42.3776371,26.5145862 42.1714199,26.6176221 41.9652027,26.7550034 C41.7418007,26.875212 41.5699531,26.978248 41.3465511,27.1156292 L41.3465511,27.1156292 Z M33.4587427,27.0812839 C33.4587427,27.733845 33.4587427,28.3348881 33.4243732,28.9187585 C34.4210897,29.1076577 35.3834367,29.2278664 36.2942294,29.5026289 C37.2050221,29.7602188 38.09863,30.0864993 38.9234988,30.5329885 C42.4291914,32.4391537 42.755702,35.701959 41.1918882,38.6556564 C39.9545849,41.0083107 37.7721194,41.901289 35.2287738,42.0730156 C34.3007963,42.1417062 33.3556341,42.0901883 32.3417328,42.0901883 L32.3417328,41.2830733 C32.3417328,32.5765349 32.3417328,23.8528239 32.324548,15.1462856 C32.324548,14.4765519 32.5135805,14.2876526 33.1837864,14.2876526 C34.3867202,14.2876526 35.5552844,14.4078613 36.6551095,14.8715231 C39.4046723,16.0220912 40.7278994,19.1303426 39.7827372,22.2042486 C38.9406836,24.9862195 36.7925876,26.2569963 34.1633182,26.92673 C33.9399162,26.9954206 33.7165142,27.0297659 33.4587427,27.0812839 Z M12.3730327,3.70929444 L10.3795997,3.70929444 C9.09074211,3.70929444 7.80188453,3.76081242 6.51302696,3.69212178 C5.49912566,3.6406038 4.77736542,4.06992028 4.15871378,4.77399932 C3.14481249,5.90739484 2.59489992,7.2812076 2.26838934,8.74088365 C2.16528073,9.20454545 1.97624828,9.34192673 1.52944432,9.29040875 C1.0654556,9.23889077 0.601466869,9.23889077 0,9.20454545 C0.360880122,6.11346676 0.721760243,3.10825136 1.08264036,0.0171726594 L1.80440061,0.0171726594 C10.7748493,0.0171726594 19.7624828,0 28.7329316,0 C30.3998541,0 30.3826693,0 30.554517,1.64857531 C30.846658,4.3618555 31.1731686,7.05796303 31.4824944,9.77124322 C31.4996792,9.87427917 31.4996792,9.97731513 31.516864,10.183387 C30.8294732,10.234905 30.1592673,10.286423 29.6265395,10.3207683 C29.0766269,8.82674695 28.5782687,7.41858887 28.0111713,6.02760346 C27.8221389,5.58111431 27.5128131,5.16897049 27.220672,4.79117198 C26.6535747,4.06992028 25.966184,3.65777646 24.9694675,3.70929444 C23.1650669,3.77798507 21.3606662,3.74363976 19.5562656,3.7264671 C19.1266464,3.7264671 18.9547988,3.84667571 18.9547988,4.31033752 C18.9719835,12.5875594 18.9719835,20.8819539 18.9547988,29.1591757 C18.9547988,29.6056649 19.1438312,29.7258735 19.5390809,29.7945641 C20.9997861,30.0349813 22.4433066,30.3269166 23.9211966,30.6016791 L23.9211966,32.9371608 L7.50974348,32.9371608 C7.50974348,32.1987364 7.49255872,31.4774847 7.52692825,30.756233 C7.52692825,30.6360244 7.78469977,30.4471252 7.93936268,30.4127799 C9.26258979,30.1380173 10.5858169,29.8976001 11.9262288,29.6571828 C12.2527394,29.6056649 12.4074023,29.5026289 12.4074023,29.1420031 C12.3902175,20.7960906 12.4074023,12.4501781 12.3902175,4.08709294 C12.424587,3.98405699 12.4074023,3.88102103 12.3730327,3.70929444 Z" id="Combined-Shape-Copy-3"></path>
                    </g>
                </g>
            </g>
        </g>
    </g>
</svg>