<?xml version="1.0" encoding="UTF-8"?>
<svg width="57px" height="45px" viewBox="0 0 57 45" version="1.1" xmlns="http://www.w3.org/2000/svg" xmlns:xlink="http://www.w3.org/1999/xlink">
    <!-- Generator: Sketch 42 (36781) - http://www.bohemiancoding.com/sketch -->
    <title>toronto-blue-jays-color</title>
    <desc>Created with Sketch.</desc>
    <defs></defs>
    <g id="Spritesheet" stroke="none" stroke-width="1" fill="none" fill-rule="evenodd">
        <g id="Artboard" transform="translate(-943.000000, -5920.000000)">
            <g id="T" transform="translate(47.000000, 5869.000000)">
                <g id="Group-28" transform="translate(896.000000, 51.000000)">
                    <g id="Sprites/T/Toronto-Blue-Jays-(Color)">
                        <g>
                            <path d="M32.5444418,6.23078914 L32.5444418,6.23078914 C33.1629786,6.0883632 33.7801315,5.93902338 34.394517,5.7813869 C34.98953,5.62928153 35.5831592,5.47026228 36.1740209,5.30432914 C36.835454,5.11903715 37.4955032,4.92821404 38.14725,4.71111819 C39.0508394,4.409673 39.9350564,4.05015122 40.8026683,3.6574428 C41.5374401,3.32557654 42.261142,2.9688203 42.955785,2.56090135 C43.534193,2.2221212 44.0932284,1.84462333 44.5872275,1.39245554 C44.9968179,1.01634044 45.3607444,0.590445397 45.6651696,0.125832626 C45.7094497,0.448019458 45.7191359,0.77435462 45.6928447,1.09792423 C45.6720884,1.35650336 45.6278084,1.61231694 45.5766096,1.86536497 C45.5198758,2.14745129 45.452072,2.42677207 45.3745819,2.70332729 L46.9506744,2.00917368 C47.6370149,1.70634572 48.3579493,1.45329769 49.1065586,1.42287661 L48.7730746,1.72017348 C48.5364531,1.98704926 48.309518,2.26083893 48.0936528,2.54430804 C47.8708689,2.83469102 47.659155,3.13475343 47.4571273,3.44034695 C47.1388645,3.92155304 46.8441256,4.41935244 46.5756779,4.92959682 L45.9820486,6.2446169 L46.3874877,5.92657839 C46.6213416,5.78691801 46.8579631,5.65278872 47.0959683,5.52142499 C47.3339735,5.39006126 47.5761299,5.26422864 47.8335076,5.17434819 C48.0438378,5.10106106 48.2638542,5.05266389 48.4852544,5.03053947 C48.681747,5.01118061 48.8810072,5.01118061 49.0774998,5.03053947 C48.9626485,5.1273338 48.8560996,5.23380756 48.7592371,5.34857798 C48.5655119,5.57950159 48.4132993,5.8449946 48.3109017,6.1284637 C48.1448516,6.49075104 47.9995577,6.86271782 47.8764039,7.24159847 C47.7048187,7.76843617 47.5775136,8.30910162 47.4432898,8.84700153 C47.3146009,9.36415979 47.1789933,9.87993528 47.0378507,10.3929452 L44.9400841,6.9387705 L42.4520996,10.9861562 L40.0803503,10.0472512 L40.6144782,15.4234847 L37.9396873,12.8791767 L37.1288092,14.816446 L33.7690615,14.2896083 L33.7690615,14.9256853 C33.2681436,14.8759054 32.7686095,14.8205943 32.2690754,14.7583694 C31.6090261,14.6767856 30.9503606,14.5827568 30.3013813,14.4417137 C29.7464971,14.3214121 29.1985317,14.1665412 28.6533338,14.007522 C28.0763096,13.8388233 27.5020529,13.6632107 26.9319474,13.4723876 C26.3646095,13.2815645 25.8028065,13.0755309 25.2354686,12.8860905 C24.8424833,12.7547268 24.4467305,12.6330425 24.0495939,12.5182721 C24.4910105,12.4532816 24.9351946,12.4048845 25.3807624,12.370315 C25.7626777,12.3412767 26.1459768,12.3233007 26.5292759,12.327449 C26.9914487,12.327449 27.4522378,12.3689323 27.9088757,12.4366883 C27.3000252,12.2182097 26.678721,12.0356832 26.0491142,11.889109 C25.4250425,11.7439175 24.7926682,11.6346782 24.1575265,11.5530944 C23.6289336,11.4853383 23.0961894,11.438324 22.5634452,11.4189651 C22.0860511,11.4023718 21.608657,11.4051373 21.1312629,11.4341756 C20.674625,11.4590656 20.2179871,11.5005489 19.7710355,11.5931949 C19.3642127,11.6775442 18.9670762,11.8061424 18.5851609,11.96931 C18.3609932,12.0647215 18.1423605,12.1739608 17.9306466,12.2942624 C17.3563899,12.5486932 16.910822,13.0769136 16.7572257,13.6867179 C16.6451418,14.130589 16.6866544,14.6117951 16.8706933,15.0307763 C16.4638704,15.044604 16.0556639,14.9256853 15.7166449,14.7002928 C15.4661859,14.5343597 15.2558557,14.3117327 15.0773519,14.0697469 C14.9140692,13.8485027 14.7756941,13.6078997 14.6788315,13.3507033 C14.5238514,12.9372533 14.4837226,12.4740233 14.6179465,12.0536593 C14.7023553,11.7881663 14.8531842,11.5475633 15.0303043,11.3318502 C15.2060407,11.1161371 15.4080684,10.9225485 15.6073285,10.7289598 C16.0113838,10.3362514 16.4085204,9.9366291 16.855472,9.59370063 C17.4186587,9.1608917 18.0510329,8.82487711 18.706931,8.55108744 C19.5800779,8.18741733 20.4975049,7.93022097 21.4329206,7.79056058 C22.6340165,7.59558915 23.8406475,7.42412492 25.0486622,7.27755065 C26.1999431,7.13789026 27.3539915,7.01897152 28.5038887,6.87239725 C29.864116,6.69955024 31.220192,6.48798549 32.5693493,6.23770302" id="path3086" fill="#003DA5"></path>
                            <path d="M13.6852983,12.3786117 C13.6852983,12.3786117 13.1276466,12.5970903 12.8841064,12.7547268 C12.6405662,12.9123633 12.413631,13.1142486 12.2282084,13.3106028 C12.041402,13.506957 11.9113294,13.7364978 11.813083,13.8913688 C11.7148367,14.0462397 11.5778453,14.3338571 11.3868877,14.4500103 C11.1973138,14.5661635 10.2522118,14.6795511 9.56172002,14.7984699 C8.87261197,14.9146231 7.99116253,15.0805562 7.32004325,15.2229822 C6.65169148,15.3654081 6.11617981,15.4857096 5.54192311,15.6336667 C4.9676664,15.7830065 4.37957219,15.9226669 3.83990927,16.0803033 C3.30301385,16.236557 2.74259466,16.4190835 2.31224807,16.5698061 C1.88328523,16.7205287 1.59684876,16.8311508 1.31871479,16.9597489 C1.04196457,17.0897299 0.866228181,17.2058831 0.71263181,17.3012946 C0.559035439,17.3967062 0.430346588,17.5045627 0.314111497,17.6303954 C0.199260157,17.7576108 0.131456353,17.9387544 0.131456353,17.9387544 L14.5210839,17.9830033 C14.5210839,17.9830033 14.6566915,17.7907974 14.7383328,17.7036825 C14.8199741,17.6179504 14.893313,17.546046 15.0815031,17.4437206 C15.2683095,17.3413951 15.5021634,17.2611941 15.7429361,17.2031175 C15.9837088,17.1464237 16.216179,17.1353615 16.4528004,17.1312132 C16.6894219,17.1312132 16.9343458,17.1173854 17.2152473,17.1892898 C17.4975325,17.2570458 17.789504,17.373199 18.0192067,17.4976488 C18.2475256,17.6220987 18.4467857,17.7755868 18.6073009,17.9014195 C18.7664322,18.0300177 18.9020399,18.1973336 19.0611712,18.3273145 C19.2203026,18.4572955 19.3642127,18.5803625 19.5510191,18.7103435 C19.7392093,18.8403244 19.9633769,19.0048748 20.1861609,19.1044347 C20.4089448,19.2053773 20.6082049,19.2648367 20.8392914,19.3090855 C21.0703778,19.3519516 21.3056155,19.3671621 21.569912,19.3643966 C21.8342084,19.3643966 22.1649249,19.3173822 22.4347564,19.2357984 C22.7032041,19.1542146 22.9508955,19.0187026 23.1695282,18.8887216 C23.3881609,18.7601234 23.5749673,18.6107836 23.7465524,18.4711232 C23.9195213,18.3314628 24.0468264,18.1959508 24.2073415,18.0549076 C24.3678567,17.9138645 24.5200693,17.7479313 24.7110269,17.6220987 C24.9019846,17.4948833 25.1206172,17.3967062 25.3267962,17.3234191 C25.5329751,17.2501319 25.7142465,17.200352 25.9370304,17.175462 C26.1598143,17.1519548 33.8410166,17.1616343 33.8410166,17.1616343 L33.8105741,15.9904229 C33.8105741,15.9904229 27.1146026,16.0042507 25.9813104,15.9904229 C25.755759,15.971064 25.5841739,15.928198 25.4264262,15.8798008 C25.2686786,15.8314036 25.2202473,15.7913031 25.0389759,15.6945088 C24.8577045,15.5963317 24.6639794,15.4691163 24.4619517,15.3142454 C24.2599241,15.1593745 24.0316051,14.9339819 23.8337287,14.7625177 C23.6344686,14.5896707 23.4656509,14.4195892 23.2719258,14.2826944 C23.0768169,14.1457996 22.887243,14.0310292 22.6741453,13.9425315 C22.4596639,13.8540338 22.2299612,13.7890433 21.997491,13.7572395 C21.7650209,13.7268184 21.5270157,13.7364978 21.291778,13.7572395 C21.0551565,13.7793639 20.8392914,13.8028711 20.5860649,13.8886032 C20.413096,13.9480626 20.1764746,14.0614502 20.0325645,14.1513307 C19.7821055,14.3103499 19.5869966,14.4873453 19.3503752,14.6657234 C19.13451,14.8302737 18.9283311,15.0169485 18.7166172,15.174585 C18.4799958,15.3515803 18.2821194,15.5119824 18.0053692,15.6696188 C17.8074927,15.7816237 17.5127538,15.940643 17.2872023,15.9724468 C17.0021496,16.0111645 16.8568557,16.0139301 16.6382231,15.9973368 C16.4223579,15.9821262 16.2576915,15.9517052 16.0362914,15.8798008 C15.8148912,15.8092792 15.5893398,15.7111021 15.3651721,15.5686762 C15.1423882,15.4262502 14.9237555,15.2354271 14.7161928,15.0197141 C14.5100139,14.804001 14.2941487,14.5481874 14.1364011,14.2716322 C13.9772697,13.995077 13.8305921,13.6355552 13.7489508,13.3175167 C13.6673095,12.9994782 13.6852983,12.3758462 13.6852983,12.3758462 L13.6852983,12.3786117 Z M20.6386475,14.7099722 L20.6386475,16.2089015 L19.8429906,16.2089015 C19.8429906,16.2089015 19.8789681,15.7995998 19.9370857,15.6046284 C19.979982,15.4608196 20.040867,15.3170109 20.1211246,15.1897955 C20.1958471,15.069494 20.2899422,14.9616375 20.3951073,14.8676087 C20.4684461,14.8026182 20.6386475,14.7058239 20.6386475,14.7058239 L20.6386475,14.7099722 Z" id="path3003" stroke="#000000" stroke-width="0.21314" fill="#041E42"></path>
                            <path d="M38.2067513,14.2412111 L40.5397556,16.4384424 C40.7334808,16.5836338 41.0088472,16.7357392 41.2011886,16.6403277 C41.3312612,16.5573611 41.4474963,16.378983 41.4129025,16.1577388 C41.2759112,14.6588095 40.9396597,11.1866587 40.9396597,11.1866587 L42.6997911,11.9264439 L44.9912829,8.41004428 L47.1679233,11.9499511 L48.9045309,11.2557975 C48.9045309,11.2557975 48.6291645,14.5952018 48.5212319,16.1535905 C48.5350694,16.3444136 48.5641282,16.4660979 48.7440158,16.5684233 C48.9958585,16.6638349 49.0899536,16.5684233 49.3639363,16.4190835 C50.3021195,15.6585566 50.927575,14.9809963 51.7259994,14.1278235 L52.3127099,15.7111021 L55.3611135,15.2354271 L55.1549346,18.5679176 L56.1982829,19.0076404 L49.7375491,24.6065008 L50.7546061,25.9339659 L45.524027,25.5080708 L44.9677591,26.3875164 L44.4585387,25.5550852 L39.086817,25.902162 L40.1744453,24.6756396 L33.6223839,18.9371188 L34.7584436,18.6135492 L34.5494972,15.1897955 L37.6283433,15.6751499 L38.2067513,14.2412111 Z" id="path4003" fill="#DA291C"></path>
                            <path d="M0.143910113,18.3300801 L4.54423857,18.484951 L8.13368889,18.7352335 L11.3177001,19.0933725 L13.4998756,19.4141765 C13.4998756,19.4141765 13.4860381,19.7156217 13.5344694,19.9271865 C13.5787494,20.1387512 13.6714607,20.4346653 13.7973821,20.6655889 C13.9233034,20.8965125 14.1018073,21.1053117 14.2858462,21.2975176 C14.4698851,21.4883407 14.626249,21.6141733 14.8946967,21.8091447 C15.1617607,22.0041162 15.543676,22.2447192 15.9076025,22.4410734 C16.271529,22.6374276 16.6700494,22.7922986 17.0768722,22.9775906 C17.483695,23.1628826 17.9666241,23.3785956 18.3526907,23.5500599 C18.7387572,23.7201413 18.9297149,23.7782179 19.390504,24.0022277 C19.8499094,24.2262374 20.5929837,24.6230941 21.0952853,24.9190082 C21.597587,25.2163051 21.9891885,25.4735014 22.4070814,25.76665 C22.8235904,26.0584157 23.1543069,26.3045499 23.5998748,26.6709855 C24.0440589,27.038804 24.5560468,27.5075651 25.066651,27.9832401 C25.5758714,28.4561495 26.1266043,28.9401211 26.6524297,29.5195043 C27.1782551,30.0988875 27.7317555,30.8068689 28.2022309,31.4623047 C28.6727063,32.1177406 29.1376467,32.850612 29.4780494,33.4396746 C29.8170684,34.0287372 30.0772136,34.573551 30.2654038,34.9773216 C30.4535939,35.3810922 30.6348653,35.8470878 30.6348653,35.8470878 C30.6348653,35.8470878 31.0527582,35.2372835 31.3046009,34.8293646 C31.5550598,34.4214456 31.9549639,33.9181151 32.2400166,33.4147846 C32.5264531,32.9100713 32.9623347,32.3486642 33.3331799,31.8633098 C33.705409,31.3779554 34.1745006,30.8345244 34.5259734,30.4100121 C34.8774462,29.9854999 35.1417426,29.6536336 35.4434004,29.3134707 C35.7464418,28.971925 36.2266035,28.47136 36.2266035,28.47136 L33.6279189,28.4464701 C33.6279189,28.4464701 34.022288,27.6043594 34.2658282,27.0927323 C34.5093684,26.5797223 34.8179449,25.9187553 35.0946951,25.4237215 C35.3728291,24.9273049 35.6191367,24.549807 35.8972707,24.1004048 C36.1754047,23.6510025 36.7759527,22.6913559 36.7759527,22.6913559 L39.1241782,24.7890273 L37.4553744,26.8272392 C37.4553744,26.8272392 38.3022301,26.7829904 38.9719656,26.7525693 C39.6430849,26.723531 40.5674306,26.6530095 41.2039561,26.6073778 C41.6287677,26.5783395 42.7980374,26.433148 42.7980374,26.433148 C42.7980374,26.433148 41.732549,27.359608 41.1278498,27.9223979 C40.5231506,28.4865706 39.6693762,29.2208247 39.1795283,29.818184 C38.6647729,30.4445815 38.3534289,30.7031607 37.7888585,31.3544482 C37.224288,32.0057358 36.4258636,32.9501718 35.8100944,33.7383542 C35.1943252,34.5251538 34.656046,35.2746185 34.0928593,36.0738631 C33.5296726,36.8717249 32.9858584,37.6765006 32.4351255,38.5282907 C31.8843926,39.3800807 31.3737884,40.1917703 30.7898454,41.1859863 C30.2045187,42.1802023 28.941154,44.4977351 28.941154,44.4977351 C28.941154,44.4977351 28.3323035,42.9089254 28.023727,42.0917047 C27.7137668,41.274484 27.4453191,40.4213111 27.08416,39.5916455 C26.723001,38.7619798 26.2705144,37.9309314 25.8526216,37.1220074 C25.4347287,36.3130833 24.9933121,35.4792693 24.5768031,34.7394841 C24.160294,33.9983161 23.8697063,33.4880717 23.3604859,32.6777649 C22.8512655,31.8660754 22.1109586,30.7225195 21.5007244,29.8887055 C20.8904902,29.0562743 20.2415109,28.273623 19.723988,27.6721154 C19.2064651,27.0719906 18.8992724,26.7290621 18.4246457,26.2672149 C17.9500191,25.8039849 17.3937512,25.3200133 16.8748445,24.907946 C16.3545541,24.4958787 15.8328799,24.1087014 15.3112058,23.7878974 C14.7909154,23.4670933 14.2374149,23.1794759 13.7614046,22.9775906 C13.2853942,22.7757052 12.8924089,22.6789109 12.5243311,22.5655233 C12.1562533,22.4521356 11.8795031,22.3982074 11.5211116,22.3207719 C11.1641038,22.2419537 10.6438134,22.1313316 10.0903129,22.0207095 C9.53819625,21.9087046 9.0981634,21.8036136 8.25269149,21.5837522 C7.40721957,21.3625081 6.08712103,21.0140485 5.25963788,20.7610005 C4.43215473,20.5079524 3.85789803,20.3088327 3.27949008,20.0931196 C2.70246587,19.8787893 2.17525671,19.6561624 1.78919016,19.4860809 C1.4031236,19.3159994 0.95478825,19.0933725 0.95478825,19.0933725 C0.95478825,19.0933725 0.463556614,18.7905445 0.334867763,18.6522669 C0.206178912,18.5126065 0.143910113,18.3300801 0.143910113,18.3300801 L0.143910113,18.3300801 Z" id="path4005" fill="#041E42"></path>
                        </g>
                    </g>
                </g>
            </g>
        </g>
    </g>
</svg>