<svg width="376" height="70" viewBox="0 0 376 70" fill="none" xmlns="http://www.w3.org/2000/svg">
<path d="M70.4532 34.7275L35.7257 0L0.998158 34.7275L35.7257 69.455L70.4532 34.7275Z" fill="#2DB6AF"/>
<path d="M33.8018 9.00879L10.2506 32.56C9.05442 33.7562 9.05442 35.6957 10.2506 36.8919L33.8018 60.4431C34.998 61.6393 36.9375 61.6393 38.1337 60.4431L61.6849 36.8919C62.8811 35.6956 62.8811 33.7562 61.6849 32.56L38.1337 9.00879C36.9375 7.81256 34.998 7.81256 33.8018 9.00879Z" stroke="white" stroke-width="2.34" stroke-miterlimit="10"/>
<path d="M35.9707 62.6103V6.841" stroke="white" stroke-width="2.34" stroke-miterlimit="10"/>
<path d="M8.08607 34.7256H35.9707" stroke="white" stroke-width="2.34" stroke-miterlimit="10"/>
<path d="M35.9707 34.7256L22.0335 20.7782" stroke="white" stroke-width="2.34" stroke-miterlimit="10"/>
<path d="M89.8205 32.9286H85.7669L85.7874 17.3883H90.913L95.7323 27.4252L95.4975 17.3883H99.551V32.9286H94.405L89.6061 22.6161L89.8205 32.9286Z" fill="#231F20"/>
<path d="M102.216 16.3367H106.504V19.7061H102.216V16.3367ZM102.216 21.1356H106.504V32.9286H102.216V21.1356Z" fill="#231F20"/>
<path d="M114.754 33.3166C110.292 33.3166 108.669 31.1111 108.669 27.0576C108.669 23.0041 110.303 20.7782 114.754 20.7782C119.206 20.7782 120.431 22.7488 120.605 25.9855H116.378C116.317 24.4642 115.755 23.9536 114.744 23.9536C113.519 23.9536 113.029 24.7296 113.029 27.0576C113.029 29.3856 113.519 30.1207 114.744 30.1207C115.704 30.1207 116.286 29.6511 116.378 28.3441H120.605C120.39 31.4072 119.104 33.3166 114.754 33.3166Z" fill="#231F20"/>
<path d="M122.627 16.6838H126.915V22.4119C127.558 21.8299 128.783 20.9722 130.478 20.9722C133.48 20.9722 134.44 22.6059 134.44 26.3327L134.42 32.9388H130.152V26.4246C130.152 25.3729 129.804 24.7092 128.824 24.7092C127.844 24.7092 127.17 25.5465 126.915 25.9957V32.9388H122.627V16.6838Z" fill="#231F20"/>
<path d="M142.71 33.3166C138.208 33.3166 136.554 31.1111 136.554 27.0576C136.554 23.0041 138.208 20.7782 142.71 20.7578C147.193 20.7578 148.837 22.9837 148.837 27.0576C148.837 31.1316 147.183 33.3166 142.71 33.3166ZM142.71 30.1003C143.997 30.1003 144.467 29.355 144.467 27.0576C144.467 24.7603 143.997 23.9741 142.71 23.9741C141.424 23.9741 140.934 24.7501 140.934 27.0576C140.934 29.3652 141.404 30.1003 142.71 30.1003Z" fill="#231F20"/>
<path d="M151.012 16.6838H155.279L155.259 32.9388H150.991L151.012 16.6838Z" fill="#231F20"/>
<path d="M165.296 32.2445C164.479 32.8673 163.387 33.3166 161.906 33.3166C159.078 33.3166 157.444 32.2241 157.444 29.5387C157.444 26.6696 159.476 25.72 162.182 25.72C163.356 25.72 164.265 25.7813 164.949 25.8528V25.3831C164.949 24.0966 164.632 23.5656 163.387 23.5656C162.141 23.5656 161.784 24.168 161.784 24.9849H158.036C158.036 23.6167 158.506 20.8905 163.162 20.8905C168.839 20.8905 169.247 23.3104 169.247 27.1086V29.6408L169.482 32.9388H165.561L165.306 32.2547L165.296 32.2445ZM164.949 29.9063V27.9357C164.561 27.8949 164.112 27.8744 163.581 27.8744C162.427 27.8744 161.804 28.3237 161.804 29.2937C161.804 30.0901 162.294 30.5393 163.264 30.5393C164.009 30.5393 164.571 30.2432 164.959 29.9165L164.949 29.9063Z" fill="#231F20"/>
<path d="M177.211 33.3166C173.178 33.3166 171.249 31.6829 171.269 28.7934H175.302C175.302 29.9982 176.027 30.5496 177.171 30.5496C178.284 30.57 178.927 30.2739 178.927 29.5388C178.947 27.3742 171.463 29.5183 171.422 24.5663C171.402 22.1464 173.117 20.7476 177.191 20.7476C181.204 20.768 182.888 22.1362 182.888 24.9747H178.927C178.927 23.923 178.437 23.4329 177.273 23.4329C175.986 23.4329 175.598 23.923 175.598 24.4642C175.598 26.4144 183.185 24.4233 183.185 29.4367C183.185 31.8565 181.663 33.3166 177.201 33.3166H177.211Z" fill="#231F20"/>
<path d="M189.781 17.3883H194.13V24.5663L198.868 17.3883H203.626L198.97 23.6677L203.728 32.9286H199.052L196.285 27.2516L194.12 30.1922V32.9388H189.77V17.3985L189.781 17.3883Z" fill="#231F20"/>
<path d="M212.254 32.2445C211.437 32.8673 210.344 33.3166 208.864 33.3166C206.035 33.3166 204.402 32.2241 204.402 29.5387C204.402 26.6696 206.434 25.72 209.139 25.72C210.314 25.72 211.222 25.7813 211.906 25.8528V25.3831C211.906 24.0966 211.59 23.5656 210.344 23.5656C209.099 23.5656 208.741 24.168 208.741 24.9849H204.994C204.994 23.6167 205.464 20.8905 210.12 20.8905C215.797 20.8905 216.205 23.3104 216.205 27.1086V29.6408L216.44 32.9388H212.519L212.264 32.2547L212.254 32.2445ZM211.906 29.9063V27.9357C211.518 27.8949 211.069 27.8744 210.538 27.8744C209.385 27.8744 208.762 28.3237 208.762 29.2937C208.762 30.0901 209.252 30.5393 210.222 30.5393C210.967 30.5393 211.529 30.2432 211.917 29.9165L211.906 29.9063Z" fill="#231F20"/>
<path d="M223.352 29.7532L228.417 29.7328V32.9082H218.237V29.7532L223.322 24.26H218.451V21.156H228.417V24.26H228.396L223.363 29.7532H223.352Z" fill="#231F20"/>
<path d="M230.54 24.3723L230.326 21.1356H233.971L234.339 22.5752C234.829 21.9932 236.013 20.9722 237.851 20.9722C239.485 20.9722 240.557 21.5338 241.149 22.7488C241.598 22.2179 242.926 20.9722 244.947 20.9722C247.776 20.9722 248.889 22.6059 248.889 26.3327L248.868 32.9388H244.794V26.4246C244.794 25.3729 244.478 24.7092 243.508 24.7092C242.67 24.7092 242.068 25.2912 241.752 25.7405C241.772 25.9345 241.772 26.1489 241.772 26.3429L241.752 32.949H237.851V26.4348C237.851 25.3831 237.555 24.7194 236.585 24.7194C235.727 24.7194 235.145 25.3423 234.829 25.7915V32.949H230.54V24.3927V24.3723Z" fill="#231F20"/>
<path d="M251.421 16.3367H255.709V19.7061H251.421V16.3367ZM251.421 21.1356H255.709V32.9286H251.421V21.1356Z" fill="#231F20"/>
<path d="M264.01 33.3166C259.548 33.3166 257.874 31.1111 257.874 27.0576C257.874 23.0041 259.548 20.7782 264.01 20.7782C268.472 20.7782 269.953 22.8815 269.953 27.8744H262.274C262.387 29.8246 262.877 30.4475 263.99 30.4475C265.215 30.4475 265.685 29.7838 265.726 29.0589H269.932C269.759 31.2439 268.493 33.3268 264.02 33.3268L264.01 33.3166ZM262.295 25.5771H265.613C265.399 23.7801 264.888 23.3716 263.98 23.3716C262.948 23.3716 262.458 23.8822 262.285 25.5771H262.295Z" fill="#231F20"/>
<path d="M272.138 24.699L271.923 21.1356H275.589L276.038 23.1981C276.385 22.2995 277.365 20.7986 280.194 20.7986V24.5254C277.325 24.5254 276.589 26.5164 276.416 27.1801V32.9286H272.128V24.699H272.138Z" fill="#231F20"/>
<path d="M286.565 29.7532L291.629 29.7328V32.9082H281.45V29.7532L286.534 24.26H281.664V21.156H291.629V24.26H291.609L286.575 29.7532H286.565Z" fill="#231F20"/>
<path d="M304.28 33.3779C299.89 33.3779 297.766 31.4277 297.766 27.5886H301.993C301.993 29.2222 302.963 29.9267 304.505 29.9267C305.556 29.9472 306.496 29.5796 306.496 28.5585C306.496 26.1183 297.837 27.8949 297.899 21.932C297.939 18.8689 299.869 16.9187 304.239 16.9187C308.844 16.9391 310.611 18.828 310.611 22.5957H306.435C306.435 21.3908 305.944 20.4311 304.27 20.4311C302.81 20.4106 302.258 20.962 302.258 21.8197C302.258 24.2804 310.896 22.4017 310.896 28.3543C310.896 31.6319 308.773 33.3677 304.29 33.3677L304.28 33.3779Z" fill="#231F20"/>
<path d="M313.051 24.3723L312.836 21.1356H316.482L316.91 22.7692C317.339 22.2791 318.728 20.9722 320.831 20.9722C323.833 20.9722 324.772 22.6059 324.772 26.7002V32.9388H320.504V26.7819C320.504 25.3627 320.157 24.699 319.177 24.699C318.197 24.699 317.615 25.4035 317.339 25.8732V32.9286H313.051V24.3723Z" fill="#231F20"/>
<path d="M331.297 32.9286H329.663L325.671 21.1356H330.347L332.257 29.3039L334.442 21.1356H338.791L333.758 37.9828H329.939L331.287 32.9184L331.297 32.9286Z" fill="#231F20"/>
<path d="M347.736 31.6829C347.174 32.367 346.153 33.2043 344.172 33.2043C340.915 33.2043 339.516 31.2133 339.516 27.078C339.516 22.9428 340.915 20.8599 344.172 20.8599C345.612 20.8599 346.613 21.4215 347.215 21.9116V16.6838H351.483V29.4571L351.697 32.9286H348.073L347.725 31.6829H347.736ZM347.225 29.1916V24.8624C346.837 24.4335 346.306 24.066 345.571 24.066C344.438 24.066 343.856 24.9441 343.856 27.0678C343.856 29.1916 344.438 30.0289 345.53 30.0289C346.235 30.0289 346.796 29.6613 347.225 29.1916Z" fill="#231F20"/>
<path d="M359.815 33.3166C355.353 33.3166 353.688 31.1111 353.688 27.0576C353.688 23.0041 355.363 20.7782 359.815 20.7782C364.266 20.7782 365.757 22.8815 365.757 27.8744H358.079C358.181 29.8246 358.681 30.4475 359.794 30.4475C361.019 30.4475 361.489 29.7838 361.53 29.0589H365.737C365.563 31.2439 364.297 33.3268 359.825 33.3268L359.815 33.3166ZM358.099 25.5771H361.418C361.203 23.7801 360.693 23.3716 359.784 23.3716C358.753 23.3716 358.263 23.8822 358.089 25.5771H358.099Z" fill="#231F20"/>
<path d="M367.942 24.699L367.728 21.1356H371.393L371.842 23.1981C372.19 22.2995 373.17 20.7986 375.998 20.7986V24.5254C373.129 24.5254 372.394 26.5164 372.22 27.1801V32.9286H367.932V24.699H367.942Z" fill="#231F20"/>
<path d="M86.2348 46.2838C86.3676 45.3036 86.6228 43.3228 86.6432 42.5979C87.2559 42.5979 87.7868 42.5775 88.3075 42.5162C88.2054 42.9655 88.0319 44.1805 87.94 44.7829L87.3171 49.1632C87.021 51.1542 87.8787 52.2978 89.7064 52.2978C91.3298 52.2978 92.4019 51.1542 92.647 49.4491L93.1064 46.2838C93.2596 45.3036 93.474 43.3228 93.5046 42.5979C94.0968 42.5979 94.6788 42.5775 95.22 42.5162C95.077 42.9655 94.9137 44.1805 94.8218 44.7829L94.1785 49.1019C93.9641 50.511 93.5046 51.6137 92.7695 52.3591C91.9731 53.1861 90.8193 53.6149 89.5022 53.6354C86.7964 53.666 85.4895 51.7668 85.8162 49.3776L86.2348 46.2838Z" fill="#231F20"/>
<path d="M106.166 42.5673L101.622 47.9278L102.888 50.2251C103.429 51.1747 104.113 52.4101 104.665 53.3597L103.011 53.4822L100.672 49.0305L99.5696 50.4089L97.2417 53.3699H95.3731L100.009 47.8869L98.8345 45.7223C98.3035 44.7421 97.599 43.5169 97.0579 42.5877L98.6915 42.4652L100.968 46.8046L101.959 45.5283L104.287 42.5673H106.155H106.166Z" fill="#231F20"/>
<path d="M110.791 44.497L106.462 54.8606C106.166 55.5549 105.931 56.1471 105.594 57.0048L104.215 57.1273C104.787 55.851 104.951 55.4528 105.716 53.6149L109.116 45.4977C109.729 44.0478 110.178 42.9757 110.474 42.1282C110.873 42.1486 111.393 42.1078 111.883 42.067C111.638 42.5979 111.056 43.8538 110.801 44.4868L110.791 44.497Z" fill="#231F20"/>
<path d="M112.476 46.2838C112.608 45.3036 112.864 43.3228 112.884 42.5979C113.497 42.5979 114.028 42.5775 114.548 42.5162C114.446 42.9655 114.273 44.1805 114.181 44.7829L113.558 49.1632C113.262 51.1542 114.119 52.2978 115.947 52.2978C117.571 52.2978 118.643 51.1542 118.888 49.4491L119.347 46.2838C119.5 45.3036 119.715 43.3228 119.745 42.5979C120.338 42.5979 120.92 42.5775 121.461 42.5162C121.318 42.9655 121.154 44.1805 121.063 44.7829L120.419 49.1019C120.205 50.511 119.745 51.6137 119.01 52.3591C118.214 53.1861 117.06 53.6149 115.753 53.6354C113.037 53.666 111.74 51.7668 112.057 49.3776L112.476 46.2838Z" fill="#231F20"/>
<path d="M122.717 53.3597C122.9 52.6245 123.207 50.6641 123.35 49.6737L123.819 46.2941C123.962 45.3139 124.207 43.3331 124.238 42.6081C124.851 42.6081 125.402 42.5877 125.923 42.5264C125.8 42.9757 125.616 44.1907 125.535 44.7931L124.626 51.1644C124.555 51.7464 124.391 52.9411 124.381 53.3699H122.706L122.717 53.3597Z" fill="#231F20"/>
<path d="M133.274 53.3597H130.242C130.426 52.6245 130.732 50.6641 130.875 49.6737L131.344 46.2941C131.477 45.3139 131.732 43.3331 131.753 42.6081C132.304 42.6081 133.213 42.5264 134.683 42.5264C137.91 42.5264 139.615 44.5175 139.615 47.0803C139.615 50.6029 136.889 53.3699 133.274 53.3699V53.3597ZM138.083 47.1109C138.083 45.1505 136.766 43.8129 134.459 43.8129C134.04 43.8129 133.591 43.8334 133.203 43.8538C133.141 44.1193 133.08 44.5787 133.05 44.8034L132.182 51.1134L132.08 51.9711C132.539 52.0119 132.947 52.0528 133.519 52.0528C136.113 52.0528 138.094 49.9902 138.094 47.1109H138.083Z" fill="#231F20"/>
<path d="M140.564 50.6335C140.564 48.3974 142.219 46.1001 144.373 46.1001C145.598 46.1001 146.221 46.9271 146.221 47.7133C146.221 49.1224 145.026 50.174 141.953 50.6845C141.984 51.726 142.566 52.4101 143.423 52.4101C144.036 52.4101 144.475 52.257 145.905 51.3278L145.598 52.6449C144.873 53.2576 143.883 53.6456 143.178 53.6456C141.453 53.6456 140.564 52.3897 140.564 50.6437V50.6335ZM142.025 49.7962C144.414 49.3368 144.996 48.6527 144.996 47.8971C144.996 47.5295 144.72 47.2538 144.148 47.2538C143.107 47.2538 142.249 48.3362 142.025 49.7962Z" fill="#231F20"/>
<path d="M146.721 52.8593L146.997 51.4707C147.508 51.9302 148.355 52.4509 149.172 52.4509C149.876 52.4509 150.213 51.9404 150.213 51.4912C150.213 50.368 147.538 50.0004 147.538 48.3668C147.538 47.1109 148.58 46.1103 149.958 46.1103C150.744 46.1103 151.367 46.3553 151.847 46.682L151.306 47.8562C150.897 47.5499 150.407 47.3049 149.897 47.3049C149.233 47.3049 148.886 47.7031 148.886 48.1728C148.886 49.153 151.53 49.5512 151.53 51.2359C151.53 52.4714 150.663 53.6353 149.019 53.6353C148.222 53.6353 147.354 53.3188 146.721 52.8491V52.8593Z" fill="#231F20"/>
<path d="M153.338 48.9794C153.583 47.3457 153.634 46.9782 153.695 46.3655C154.267 46.3349 154.706 46.2736 155.165 46.1817C155.073 46.58 155.012 46.9884 154.767 48.6118L154.318 51.5831C154.226 52.1753 154.277 52.3591 154.655 52.3591C154.89 52.3591 155.053 52.2978 155.319 52.1855L155.145 53.1657C154.798 53.3699 154.349 53.523 153.94 53.523C153.021 53.523 152.715 53.1044 152.929 51.7158L153.338 48.9692V48.9794ZM154.696 44.6298C154.195 44.6298 153.93 44.2826 153.93 43.8844C153.93 43.3024 154.42 42.7817 155.012 42.7817C155.502 42.7817 155.778 43.139 155.778 43.5475C155.778 44.1192 155.288 44.6298 154.696 44.6298Z" fill="#231F20"/>
<path d="M157.606 52.9819C157.146 52.7471 156.83 52.4918 156.83 52.1242C156.83 51.6545 157.259 51.2563 157.779 50.9806C157.116 50.6131 156.728 49.9392 156.728 49.153C156.728 47.4887 157.983 46.1205 159.74 46.1205C160.128 46.1205 160.465 46.2022 160.74 46.3145C161.098 45.3547 161.966 44.8952 163.058 45.0178L162.813 46.2124C162.068 46.1409 161.639 46.3043 161.435 46.7944C161.833 47.2232 162.017 47.7746 162.017 48.2443C162.017 49.929 160.761 51.2665 158.994 51.2665C158.862 51.2665 158.739 51.2461 158.606 51.2359C158.31 51.4299 158.157 51.6647 158.157 51.869C158.157 52.1753 158.862 52.308 159.668 52.5224C161.006 52.8798 162.068 53.278 162.068 54.3705C162.068 55.8102 160.434 56.821 158.514 56.821C156.391 56.821 155.39 55.8102 155.39 54.9525C155.39 53.9417 156.258 53.3393 157.595 52.9717L157.606 52.9819ZM158.77 53.3903C157.412 53.6047 156.779 54.2071 156.779 54.7381C156.779 55.2078 157.299 55.7285 158.708 55.7285C159.852 55.7285 160.75 55.1465 160.75 54.5339C160.75 53.9213 160.015 53.7068 158.943 53.4311L158.77 53.3801V53.3903ZM158.024 48.9794C158.024 49.7146 158.392 50.2251 159.107 50.2557C160.046 50.2557 160.699 49.3572 160.699 48.4383C160.699 47.7337 160.342 47.162 159.607 47.162C158.678 47.162 158.014 48.0809 158.014 48.9794H158.024Z" fill="#231F20"/>
<path d="M168.184 48.9181C168.337 47.9379 168.367 47.3457 167.673 47.3457C166.509 47.3457 165.355 49.0611 164.978 50.1434L164.712 51.777C164.62 52.3284 164.528 52.9512 164.518 53.3495H163.068C163.221 52.6858 163.375 51.6443 163.517 50.7458L163.793 48.9079C163.936 47.9992 163.977 47.0394 163.946 46.3043C164.467 46.2941 164.814 46.243 165.263 46.1715C165.325 46.4166 165.417 47.3661 165.253 48.3463C166.142 46.8965 167.183 46.0898 168.265 46.0898C169.582 46.0898 169.828 47.0905 169.603 48.6322L169.154 51.5728C169.062 52.165 169.113 52.3488 169.491 52.3488C169.725 52.3488 169.889 52.2876 170.154 52.1753L169.981 53.1555C169.623 53.3597 169.184 53.5128 168.766 53.5128C167.847 53.5128 167.54 53.0942 167.755 51.7056L168.184 48.9079V48.9181Z" fill="#231F20"/>
<path d="M171.175 50.6335C171.175 48.3974 172.829 46.1001 174.984 46.1001C176.209 46.1001 176.832 46.9271 176.832 47.7133C176.832 49.1224 175.637 50.174 172.564 50.6845C172.595 51.726 173.177 52.4101 174.034 52.4101C174.647 52.4101 175.086 52.257 176.515 51.3278L176.209 52.6449C175.484 53.2576 174.494 53.6456 173.789 53.6456C172.064 53.6456 171.175 52.3897 171.175 50.6437V50.6335ZM172.635 49.7962C175.025 49.3368 175.607 48.6527 175.607 47.8971C175.607 47.5295 175.331 47.2538 174.759 47.2538C173.718 47.2538 172.86 48.3362 172.635 49.7962Z" fill="#231F20"/>
<path d="M182.172 47.6622C182.09 47.6418 182.019 47.6418 181.937 47.6418C180.834 47.6418 179.895 48.9896 179.507 50.1332L179.242 51.7668C179.15 52.3182 179.058 52.941 179.048 53.3392H177.598C177.751 52.6755 177.904 51.6341 178.047 50.7356L178.323 48.8977C178.466 47.989 178.476 47.1517 178.476 46.294C178.996 46.2838 179.344 46.2328 179.793 46.1613C179.895 46.6922 179.915 47.4376 179.783 48.3361C180.62 46.8454 181.171 46.2226 182.356 46.0796L182.182 47.6418L182.172 47.6622Z" fill="#231F20"/>
<path d="M222.595 43.8333C221.788 43.8129 220.941 43.8027 219.981 43.8027C219.522 43.8027 219.032 43.8027 218.593 43.8129C218.531 44.0886 218.47 44.5072 218.439 44.7318L218.092 47.213L221.431 47.1823C221.349 47.5703 221.257 48.0298 221.217 48.4791L217.929 48.4484L217.541 51.144C217.459 51.7464 217.306 52.9206 217.296 53.3494H215.631C215.815 52.6143 216.122 50.6539 216.265 49.6635L216.755 46.1919C216.887 45.1913 217.143 43.2309 217.163 42.4958C218.051 42.5468 219.093 42.5774 220.185 42.5774C221.145 42.5774 222.095 42.5468 222.922 42.4958C222.799 42.945 222.707 43.3228 222.615 43.8333H222.595Z" fill="#231F20"/>
<path d="M222.595 51.0929L222.891 48.9794C223.116 47.3457 223.136 46.9781 223.197 46.3655C223.769 46.3349 224.208 46.2736 224.647 46.1817C224.576 46.5799 224.515 46.9883 224.3 48.6118L224.045 50.613C223.892 51.777 223.83 52.3897 224.545 52.3897C225.709 52.3897 226.751 50.6743 227.139 49.5818L227.231 48.9692C227.476 47.3355 227.527 46.9679 227.588 46.3553C228.149 46.3247 228.599 46.2634 229.058 46.1715C228.966 46.5697 228.844 47.3355 228.762 47.8766L228.211 51.583C228.119 52.1752 228.17 52.359 228.548 52.359C228.619 52.359 228.946 52.2978 229.211 52.1854L229.038 53.1656C228.854 53.2677 228.241 53.523 227.823 53.523C227.088 53.523 226.761 52.9921 226.904 51.7566C226.934 51.5422 226.965 51.2971 227.026 51.0317C226.199 52.7164 225.066 53.6251 223.984 53.6251C222.666 53.6251 222.391 52.6245 222.605 51.0827L222.595 51.0929Z" fill="#231F20"/>
<path d="M231.509 45.079C231.754 43.4453 231.805 43.0778 231.866 42.4651C232.428 42.4345 232.877 42.3732 233.336 42.2813C233.244 42.6795 233.183 43.088 232.938 44.7114L231.927 51.583C231.835 52.1752 231.886 52.359 232.264 52.359C232.499 52.359 232.662 52.2978 232.928 52.1855L232.754 53.1657C232.407 53.3699 231.958 53.523 231.539 53.523C230.62 53.523 230.314 53.1044 230.528 51.7158L231.509 45.0688V45.079Z" fill="#231F20"/>
<path d="M235.235 45.079C235.481 43.4453 235.532 43.0778 235.593 42.4651C236.154 42.4345 236.604 42.3732 237.063 42.2813C236.971 42.6795 236.91 43.088 236.665 44.7114L235.654 51.583C235.562 52.1752 235.613 52.359 235.991 52.359C236.226 52.359 236.389 52.2978 236.655 52.1855L236.481 53.1657C236.134 53.3699 235.685 53.523 235.276 53.523C234.357 53.523 234.051 53.1044 234.265 51.7158L235.246 45.0688L235.235 45.079Z" fill="#231F20"/>
<path d="M242.71 49.7043C242.158 49.6941 241.658 49.6737 241.137 49.6737H239.759C239.177 49.6737 238.717 49.6941 238.258 49.7043C238.319 49.4184 238.411 48.8773 238.452 48.5403C239.156 48.571 239.738 48.5812 240.688 48.5812C241.352 48.5812 242.24 48.5608 242.944 48.5403C242.852 48.8467 242.761 49.347 242.71 49.7043Z" fill="#231F20"/>
<path d="M250.531 44.5072C250.071 44.0886 249.316 43.5985 248.448 43.5985C247.58 43.5985 246.732 44.1703 246.732 45.1607C246.732 47.0292 250.561 47.5806 250.561 50.3986C250.561 52.1855 249.173 53.6353 247.09 53.6353C246.007 53.6353 244.762 53.2371 243.986 52.7164L244.302 51.2053C244.884 51.7056 245.987 52.3488 247.161 52.3488C248.172 52.3488 249.06 51.7566 249.06 50.5416C249.06 48.4791 245.231 47.9481 245.231 45.3343C245.231 43.7006 246.447 42.3324 248.478 42.3324C249.581 42.3324 250.52 42.751 251.184 43.3024L250.531 44.5174V44.5072Z" fill="#231F20"/>
<path d="M255.36 52.9513C254.993 53.1963 254.237 53.5333 253.471 53.5333C252.45 53.5333 252.205 52.89 252.399 51.5524L252.991 47.4376H251.756L252.369 46.2532H253.206L253.563 44.9565L254.768 44.5889L254.513 46.2532H256.238L256.024 47.4376H254.339L253.778 51.338C253.675 52.063 253.737 52.3182 254.247 52.3182C254.635 52.3182 255.227 52.0732 255.564 51.869L255.35 52.9411L255.36 52.9513Z" fill="#231F20"/>
<path d="M262.262 46.5493L263.273 46.0184L263.396 46.1409L262.589 51.5933C262.497 52.1855 262.548 52.3693 262.926 52.3693C263.161 52.3693 263.324 52.308 263.59 52.1957L263.416 53.1759C263.059 53.3801 262.62 53.5332 262.201 53.5332C261.405 53.5332 261.129 53.0738 261.333 51.7668L261.435 51.1746C260.7 52.6756 259.434 53.6456 258.587 53.6456C257.361 53.6456 256.82 52.5633 256.82 51.1644C256.82 48.8569 258.628 46.1103 260.782 46.1103C261.446 46.1103 262.038 46.3757 262.252 46.5595L262.262 46.5493ZM261.813 47.6827C261.558 47.4274 261.17 47.2845 260.67 47.2845C259.404 47.2845 258.219 49.0611 258.219 50.8071C258.219 52.0017 258.474 52.4101 259.128 52.4101C259.924 52.4101 261.344 50.9602 261.65 48.8467L261.823 47.6827H261.813Z" fill="#231F20"/>
<path d="M269.91 47.9583C269.379 47.5499 268.869 47.3355 268.256 47.3355C267.041 47.3355 266.091 48.7139 266.091 50.5314C266.091 51.6137 266.724 52.4101 267.613 52.4101C268.225 52.4101 268.664 52.2569 270.063 51.3278L269.798 52.7062C269.093 53.3188 268.103 53.6456 267.398 53.6456C265.663 53.6456 264.703 52.3284 264.703 50.5824C264.703 48.3463 266.234 46.1103 268.389 46.1103C269.257 46.1103 269.767 46.294 270.441 46.6923L269.9 47.9583H269.91Z" fill="#231F20"/>
<path d="M273.137 49.3776C273.933 48.5199 275.454 46.825 276.006 46.2124C276.557 46.2124 277.241 46.2021 277.731 46.1511L274.392 49.6328L274.821 50.2557C275.74 51.5932 276.343 52.4611 276.925 53.2371L275.495 53.5434L273.065 49.8983L272.769 51.8689C272.687 52.3897 272.636 52.9717 272.616 53.3596H271.054C271.217 52.696 271.391 51.7566 271.523 50.8683L272.381 45.079C272.626 43.4453 272.677 43.0778 272.738 42.4651C273.3 42.4345 273.749 42.3732 274.209 42.2813C274.117 42.6795 273.994 43.4453 273.913 43.9763L273.126 49.3776H273.137Z" fill="#231F20"/>
<path d="M284.409 53.3597H281.376C281.56 52.6245 281.866 50.6641 282.009 49.6737L282.479 46.294C282.612 45.3138 282.867 43.333 282.888 42.6081C283.439 42.6081 284.348 42.5264 285.818 42.5264C289.044 42.5264 290.75 44.5174 290.75 47.0802C290.75 50.6028 288.023 53.3699 284.409 53.3699V53.3597ZM289.218 47.1109C289.218 45.1505 287.901 43.8129 285.593 43.8129C285.175 43.8129 284.725 43.8333 284.337 43.8538C284.276 44.1192 284.215 44.5787 284.184 44.8033L283.316 51.1134L283.214 51.971C283.674 52.0119 284.082 52.0527 284.654 52.0527C287.247 52.0527 289.228 49.9902 289.228 47.1109H289.218Z" fill="#231F20"/>
<path d="M291.699 50.6335C291.699 48.3974 293.353 46.1 295.508 46.1C296.733 46.1 297.356 46.9271 297.356 47.7133C297.356 49.1223 296.161 50.174 293.088 50.6845C293.118 51.726 293.7 52.4101 294.558 52.4101C295.171 52.4101 295.61 52.2569 297.039 51.3278L296.733 52.6449C296.008 53.2575 295.017 53.6455 294.313 53.6455C292.587 53.6455 291.699 52.3897 291.699 50.6437V50.6335ZM293.159 49.7962C295.548 49.3367 296.13 48.6526 296.13 47.8971C296.13 47.5295 295.855 47.2538 295.283 47.2538C294.242 47.2538 293.384 48.3361 293.159 49.7962Z" fill="#231F20"/>
<path d="M301.113 53.4209L300.164 53.523C300.041 52.8389 299.97 52.3999 299.643 51.2053L299.061 48.9079C298.755 47.7133 298.591 47.0598 298.356 46.3043L299.755 46.1103L300.96 51.3278L302.063 48.9283C302.43 48.1319 302.92 46.9577 303.288 46.2022C303.839 46.2022 304.37 46.1919 304.83 46.1409L301.113 53.4107V53.4209Z" fill="#231F20"/>
<path d="M304.881 50.6335C304.881 48.3974 306.535 46.1 308.689 46.1C309.915 46.1 310.537 46.9271 310.537 47.7133C310.537 49.1223 309.343 50.174 306.269 50.6845C306.3 51.726 306.882 52.4101 307.74 52.4101C308.352 52.4101 308.791 52.2569 310.221 51.3278L309.914 52.6449C309.19 53.2575 308.199 53.6455 307.495 53.6455C305.769 53.6455 304.881 52.3897 304.881 50.6437V50.6335ZM306.341 49.7962C308.73 49.3367 309.312 48.6526 309.312 47.8971C309.312 47.5295 309.036 47.2538 308.465 47.2538C307.423 47.2538 306.565 48.3361 306.341 49.7962Z" fill="#231F20"/>
<path d="M312.59 45.079C312.835 43.4453 312.886 43.0778 312.947 42.4651C313.509 42.4345 313.958 42.3732 314.417 42.2813C314.325 42.6795 314.264 43.088 314.019 44.7114L313.008 51.583C312.916 52.1752 312.967 52.359 313.345 52.359C313.58 52.359 313.743 52.2978 314.009 52.1855L313.835 53.1657C313.488 53.3699 313.039 53.523 312.62 53.523C311.701 53.523 311.395 53.1044 311.609 51.7158L312.59 45.0688V45.079Z" fill="#231F20"/>
<path d="M317.777 53.6353C315.928 53.6353 315.101 52.2978 315.101 50.5926C315.101 48.1932 316.715 46.1 318.787 46.1C320.635 46.1 321.462 47.4376 321.462 49.1427C321.462 51.5422 319.859 53.6353 317.777 53.6353ZM317.96 52.4101C319.186 52.4101 320.074 51.0215 320.074 49.2755C320.074 47.9788 319.604 47.3355 318.604 47.3355C317.378 47.3355 316.49 48.7241 316.49 50.4701C316.49 51.7668 316.96 52.4101 317.96 52.4101Z" fill="#231F20"/>
<path d="M322.31 53.9621L323.106 48.9283C323.249 48.0196 323.29 47.0598 323.26 46.3247C323.78 46.3145 324.127 46.2634 324.577 46.1919C324.638 46.4268 324.73 47.1313 324.607 48.0298C325.353 46.7739 326.445 46.1 327.211 46.1C328.436 46.1 329.059 47.213 329.059 48.6118C329.059 50.9296 327.16 53.6353 325.005 53.6353C324.607 53.6353 324.178 53.5332 323.78 53.3596L323.566 54.9933C323.484 55.5243 323.413 56.3513 323.413 56.5045L321.82 56.6474C322.004 55.9735 322.157 54.8708 322.31 53.9723V53.9621ZM325.128 52.4509C326.415 52.4509 327.67 50.5109 327.67 48.7752C327.67 47.8154 327.272 47.3253 326.67 47.3253C325.873 47.3253 324.454 48.7956 324.138 50.8989L323.964 52.0629C324.23 52.3182 324.607 52.4611 325.108 52.4611L325.128 52.4509Z" fill="#231F20"/>
<path d="M330.029 50.6335C330.029 48.3974 331.683 46.1 333.838 46.1C335.063 46.1 335.686 46.9271 335.686 47.7133C335.686 49.1223 334.491 50.174 331.418 50.6845C331.448 51.726 332.03 52.4101 332.888 52.4101C333.501 52.4101 333.94 52.2569 335.369 51.3278L335.063 52.6449C334.338 53.2575 333.347 53.6455 332.643 53.6455C330.917 53.6455 330.029 52.3897 330.029 50.6437V50.6335ZM331.489 49.7962C333.878 49.3367 334.46 48.6526 334.46 47.8971C334.46 47.5295 334.185 47.2538 333.613 47.2538C332.571 47.2538 331.714 48.3361 331.489 49.7962Z" fill="#231F20"/>
<path d="M341.026 47.6622C340.944 47.6418 340.873 47.6418 340.791 47.6418C339.688 47.6418 338.749 48.9896 338.361 50.1332L338.095 51.7668C338.003 52.3182 337.911 52.941 337.901 53.3392H336.451C336.605 52.6755 336.758 51.6341 336.901 50.7356L337.176 48.8977C337.319 47.989 337.329 47.1517 337.329 46.294C337.85 46.2838 338.197 46.2328 338.647 46.1613C338.759 46.6922 338.769 47.4376 338.636 48.3361C339.474 46.8454 340.025 46.2226 341.209 46.0796L341.046 47.6418L341.026 47.6622Z" fill="#231F20"/>
<g opacity="0.09">
<path d="M206.759 50.3578C205.533 50.3578 204.614 49.9902 203.93 49.5614C203.838 52.6449 201.225 55.1363 198.233 55.1363C195.241 55.1363 193.454 53.4822 193.454 51.6137C193.454 50.174 194.281 48.9794 195.823 48.2953C195.364 47.8767 195.139 47.3559 195.139 46.7025C195.139 46.4064 195.2 46.1103 195.333 45.8448C194.629 45.5691 193.924 45.3343 193.189 45.3343C191.504 45.3343 189.574 46.1307 189.574 47.9788C189.574 48.5506 189.973 48.9794 190.524 48.9794C191.229 48.9794 191.137 47.9073 191.984 47.9073C192.566 47.9073 192.913 48.2749 192.913 48.8977C192.913 49.5206 192.29 50.123 191.29 50.123C190.003 50.123 188.921 49.2755 188.921 47.9788C188.921 45.8652 191.075 44.7217 193.189 44.7217C194.169 44.7217 194.955 45.028 195.639 45.3037C196.17 44.5685 197.406 44.0069 198.458 44.0069C199.346 44.0069 199.969 44.5277 199.969 45.1097C199.969 45.7938 199.356 46.4268 197.988 46.4268C197.59 46.4268 197.191 46.3655 196.773 46.2124C196.742 46.386 196.712 46.5493 196.712 46.7331C196.712 47.1619 196.834 47.5295 197.069 47.8358C197.457 47.6418 197.865 47.4785 198.345 47.4785C199.08 47.4785 199.519 47.989 199.519 48.5506C199.519 49.2142 198.937 49.7146 198.223 49.7146C197.59 49.7146 197.008 49.4287 196.538 48.9488C195.956 49.3674 195.527 49.98 195.527 51.0317C195.527 52.5326 196.712 53.6047 198.713 53.6047C200.714 53.6047 203.287 52.308 203.287 49.2142C202.705 48.8773 202.062 48.4076 201.613 48.4076C201.245 48.4076 201.051 48.5914 201.051 48.8467C201.051 49.4185 201.817 49.4593 201.817 50.0413C201.817 50.4701 201.48 50.7969 201.01 50.7969C200.54 50.7969 199.999 50.4089 199.999 49.5512C199.999 48.5404 201 47.2538 202.572 47.2538C203.9 47.2538 205.207 49.0305 207.473 49.0305C208.607 49.0305 209.178 48.3055 209.178 47.2845C209.178 46.2634 208.484 45.6916 207.688 45.6916C206.789 45.6916 206.411 46.1103 206.411 46.6923C206.411 46.9373 206.534 47.1517 206.718 47.1517C206.902 47.1517 207.085 46.8352 207.422 46.8352C207.79 46.8352 208.015 47.0803 208.015 47.4478C208.015 47.7848 207.718 48.183 206.942 48.183C206.258 48.183 205.595 47.652 205.595 46.9067C205.595 45.9469 206.36 45.1403 207.698 45.1403C209.199 45.1403 209.842 46.3962 209.842 47.2845C209.842 48.9181 208.79 50.368 206.748 50.368L206.759 50.3578ZM198.58 44.6196C197.814 44.6196 197.171 45.0178 196.926 45.661C197.243 45.7529 197.6 45.8142 197.998 45.8142C199.019 45.8142 199.295 45.4772 199.295 45.1097C199.295 44.834 199.04 44.6196 198.57 44.6196H198.58ZM198.294 48.0911C197.978 48.0911 197.661 48.1932 197.355 48.4076C197.641 48.8058 198.029 48.9998 198.294 48.9998C198.631 48.9998 198.856 48.8058 198.856 48.5404C198.856 48.2749 198.621 48.0809 198.294 48.0809V48.0911Z" fill="#1D726D"/>
</g>
<path d="M205.738 49.3368C204.512 49.3368 203.593 48.9692 202.909 48.5403C202.817 51.6239 200.204 54.1152 197.212 54.1152C194.22 54.1152 192.433 52.4611 192.433 50.5926C192.433 49.153 193.26 47.9583 194.802 47.2742C194.343 46.8556 194.118 46.3349 194.118 45.6814C194.118 45.3853 194.179 45.0892 194.312 44.8237C193.608 44.5481 192.903 44.3132 192.168 44.3132C190.483 44.3132 188.553 45.1096 188.553 46.9577C188.553 47.5295 188.952 47.9583 189.503 47.9583C190.208 47.9583 190.116 46.8863 190.963 46.8863C191.545 46.8863 191.892 47.2538 191.892 47.8767C191.892 48.4995 191.269 49.1019 190.269 49.1019C188.982 49.1019 187.9 48.2544 187.9 46.9577C187.9 44.8442 190.054 43.7006 192.168 43.7006C193.148 43.7006 193.934 44.0069 194.618 44.2826C195.149 43.5474 196.385 42.9859 197.437 42.9859C198.325 42.9859 198.948 43.5066 198.948 44.0886C198.948 44.7727 198.335 45.4057 196.967 45.4057C196.569 45.4057 196.17 45.3445 195.752 45.1913C195.721 45.3649 195.691 45.5283 195.691 45.7121C195.691 46.1409 195.813 46.5085 196.048 46.8148C196.436 46.6208 196.844 46.4574 197.324 46.4574C198.059 46.4574 198.498 46.9679 198.498 47.5295C198.498 48.1932 197.916 48.6935 197.202 48.6935C196.569 48.6935 195.987 48.4076 195.517 47.9277C194.935 48.3463 194.506 48.959 194.506 50.0106C194.506 51.5116 195.691 52.5837 197.692 52.5837C199.693 52.5837 202.266 51.2869 202.266 48.1932C201.684 47.8562 201.041 47.3866 200.592 47.3866C200.224 47.3866 200.03 47.5704 200.03 47.8256C200.03 48.3974 200.796 48.4382 200.796 49.0202C200.796 49.4491 200.459 49.7758 199.989 49.7758C199.519 49.7758 198.978 49.3878 198.978 48.5301C198.978 47.5193 199.979 46.2328 201.551 46.2328C202.879 46.2328 204.186 48.0094 206.452 48.0094C207.586 48.0094 208.157 47.2845 208.157 46.2634C208.157 45.2424 207.463 44.6706 206.667 44.6706C205.768 44.6706 205.39 45.0892 205.39 45.6712C205.39 45.9163 205.513 46.1307 205.697 46.1307C205.881 46.1307 206.064 45.8142 206.401 45.8142C206.769 45.8142 206.993 46.0592 206.993 46.4268C206.993 46.7637 206.697 47.1619 205.921 47.1619C205.237 47.1619 204.574 46.631 204.574 45.8856C204.574 44.9259 205.339 44.1192 206.677 44.1192C208.178 44.1192 208.821 45.3751 208.821 46.2634C208.821 47.8971 207.769 49.347 205.727 49.347L205.738 49.3368ZM197.559 43.5985C196.793 43.5985 196.15 43.9967 195.905 44.64C196.221 44.7319 196.579 44.7931 196.977 44.7931C197.998 44.7931 198.274 44.4562 198.274 44.0886C198.274 43.8129 198.019 43.5985 197.549 43.5985H197.559ZM197.273 47.07C196.957 47.07 196.64 47.1721 196.334 47.3866C196.62 47.7848 197.008 47.9788 197.273 47.9788C197.61 47.9788 197.835 47.7848 197.835 47.5193C197.835 47.2538 197.6 47.0598 197.273 47.0598V47.07Z" fill="#2BB5AE"/>
</svg>
